Russolo-10ptLight.ufo
<glyph name="exclam" format="2">
  <advance width="457.98837209302326"/>
  <unicode hex="0021"/>
  <note>
exclam
</note>
  <outline>
    <contour>
      <point x="189.41860465116278" y="310.05426356589146" type="curve"/>
      <point x="268.3062015503876" y="310.05426356589146" type="line"/>
      <point x="263.4651162790698" y="762.8449612403101"/>
      <point x="304.2984496124031" y="1061.2674418604652"/>
      <point x="304.2984496124031" y="1206.4767441860465" type="curve" smooth="yes"/>
      <point x="304.2984496124031" y="1294.7325581395348"/>
      <point x="271.41472868217056" y="1325.5891472868218"/>
      <point x="277.82945736434107" y="1461.7364341085272" type="curve"/>
      <point x="181.52713178294573" y="1461.7364341085272" type="line"/>
      <point x="187.9418604651163" y="1325.5891472868218"/>
      <point x="153.0581395348837" y="1294.7325581395348"/>
      <point x="153.0581395348837" y="1206.4767441860465" type="curve" smooth="yes"/>
      <point x="153.0581395348837" y="1061.2674418604652"/>
      <point x="193.89147286821705" y="762.8449612403101"/>
    </contour>
    <contour>
      <point x="228.6782945736434" y="-17.84108527131783" type="curve" smooth="yes"/>
      <point x="288.2015503875969" y="-17.84108527131783"/>
      <point x="327.98837209302326" y="27.627906976744185"/>
      <point x="327.98837209302326" y="89.09689922480621" type="curve" smooth="yes"/>
      <point x="327.98837209302326" y="150.19767441860466"/>
      <point x="288.2015503875969" y="194.03488372093022"/>
      <point x="228.6782945736434" y="194.03488372093022" type="curve" smooth="yes"/>
      <point x="169.15503875968992" y="194.03488372093022"/>
      <point x="129.36821705426357" y="150.19767441860466"/>
      <point x="129.36821705426357" y="89.09689922480621" type="curve" smooth="yes"/>
      <point x="129.36821705426357" y="27.627906976744185"/>
      <point x="169.15503875968992" y="-17.84108527131783"/>
    </contour>
  </outline>
</glyph>
<glyph name="quotedbl" format="2">
  <advance width="594.2364341085271"/>
  <unicode hex="0022"/>
  <note>
quotedbl
</note>
  <outline>
    <contour>
      <point x="365.0387596899225" y="813.3217054263566" type="line"/>
      <point x="452.8682170542636" y="813.3217054263566" type="line"/>
      <point x="473.97286821705427" y="1358.8410852713178" type="line"/>
      <point x="346.0387596899225" y="1358.8410852713178" type="line"/>
    </contour>
    <contour>
      <point x="139.63178294573643" y="813.3217054263566" type="line"/>
      <point x="226.7248062015504" y="813.3217054263566" type="line"/>
      <point x="248.8294573643411" y="1358.8410852713178" type="line"/>
      <point x="121.26356589147287" y="1358.8410852713178" type="line"/>
    </contour>
  </outline>
</glyph>
<glyph name="numbersign" format="2">
  <advance width="1414.0891472868218"/>
  <unicode hex="0023"/>
  <note>
numbersign
</note>
  <outline>
    <contour>
      <point x="780.3178294573644" y="0.0" type="line"/>
      <point x="904.5658914728682" y="0.0" type="line"/>
      <point x="1194.6666666666667" y="1431.1046511627908" type="line"/>
      <point x="1070.4186046511627" y="1431.1046511627908" type="line"/>
    </contour>
    <contour>
      <point x="123.63178294573643" y="471.0581395348837" type="line"/>
      <point x="1223.1937984496124" y="471.0581395348837" type="line"/>
      <point x="1223.1937984496124" y="564.5736434108527" type="line"/>
      <point x="123.63178294573643" y="564.5736434108527" type="line"/>
    </contour>
    <contour>
      <point x="237.0581395348837" y="0.0" type="line"/>
      <point x="360.6744186046512" y="0.0" type="line"/>
      <point x="652.1434108527131" y="1431.1046511627908" type="line"/>
      <point x="527.8953488372093" y="1431.1046511627908" type="line"/>
    </contour>
    <contour>
      <point x="190.52713178294573" y="874.2674418604652" type="line"/>
      <point x="1290.4573643410852" y="874.2674418604652" type="line"/>
      <point x="1290.4573643410852" y="968.1511627906976" type="line"/>
      <point x="190.52713178294573" y="968.1511627906976" type="line"/>
    </contour>
  </outline>
</glyph>
<glyph name="percent" format="2">
  <advance width="1645.4186046511627"/>
  <unicode hex="0025"/>
  <note>
percent
</note>
  <outline>
    <contour>
      <point x="262.5891472868217" y="-28.686046511627907" type="line"/>
      <point x="368.8333333333333" y="-28.686046511627907" type="line"/>
      <point x="1358.5116279069766" y="1444.1589147286822" type="line"/>
      <point x="1253.2674418604652" y="1444.1589147286822" type="line"/>
    </contour>
    <contour>
      <point x="1211.84496124031" y="-21.57751937984496" type="curve" smooth="yes"/>
      <point x="1384.2093023255813" y="-21.57751937984496"/>
      <point x="1504.5232558139535" y="149.68604651162792"/>
      <point x="1504.5232558139535" y="387.1589147286822" type="curve" smooth="yes"/>
      <point x="1504.5232558139535" y="621.2635658914729"/>
      <point x="1380.4728682170542" y="795.6317829457364"/>
      <point x="1211.84496124031" y="795.6317829457364" type="curve" smooth="yes"/>
      <point x="1044.953488372093" y="795.6317829457364"/>
      <point x="920.1666666666666" y="619.8953488372093"/>
      <point x="920.1666666666666" y="387.1589147286822" type="curve" smooth="yes"/>
      <point x="920.1666666666666" y="149.68604651162792"/>
      <point x="1041.4806201550387" y="-21.57751937984496"/>
    </contour>
    <contour>
      <point x="1211.84496124031" y="66.93798449612403" type="curve" smooth="yes"/>
      <point x="1084.9418604651162" y="66.93798449612403"/>
      <point x="1022.6744186046511" y="189.20542635658916"/>
      <point x="1022.6744186046511" y="387.1589147286822" type="curve" smooth="yes"/>
      <point x="1022.6744186046511" y="585.8488372093024"/>
      <point x="1084.9418604651162" y="708.7480620155038"/>
      <point x="1211.84496124031" y="708.7480620155038" type="curve" smooth="yes"/>
      <point x="1339.1162790697674" y="708.7480620155038"/>
      <point x="1402.3837209302326" y="586.1124031007752"/>
      <point x="1402.3837209302326" y="387.1589147286822" type="curve" smooth="yes"/>
      <point x="1402.3837209302326" y="189.20542635658916"/>
      <point x="1340.1162790697674" y="66.93798449612403"/>
    </contour>
    <contour>
      <point x="432.9418604651163" y="646.2131782945736" type="curve" smooth="yes"/>
      <point x="604.3062015503876" y="646.2131782945736"/>
      <point x="724.9883720930233" y="816.4767441860465"/>
      <point x="724.9883720930233" y="1054.6860465116279" type="curve" smooth="yes"/>
      <point x="724.9883720930233" y="1288.0542635658915"/>
      <point x="601.2015503875969" y="1462.7906976744187"/>
      <point x="432.9418604651163" y="1462.7906976744187" type="curve" smooth="yes"/>
      <point x="264.6821705426357" y="1462.7906976744187"/>
      <point x="140.8953488372093" y="1287.6860465116279"/>
      <point x="140.8953488372093" y="1054.6860465116279" type="curve" smooth="yes"/>
      <point x="140.8953488372093" y="817.4767441860465"/>
      <point x="262.2093023255814" y="646.2131782945736"/>
    </contour>
    <contour>
      <point x="432.9418604651163" y="734.0968992248062" type="curve" smooth="yes"/>
      <point x="306.0387596899225" y="734.0968992248062"/>
      <point x="243.77131782945736" y="855.9961240310078"/>
      <point x="243.77131782945736" y="1054.6860465116279" type="curve" smooth="yes"/>
      <point x="243.77131782945736" y="1254.375968992248"/>
      <point x="306.0387596899225" y="1374.906976744186"/>
      <point x="432.9418604651163" y="1374.906976744186" type="curve" smooth="yes"/>
      <point x="559.8449612403101" y="1374.906976744186"/>
      <point x="623.1124031007752" y="1253.2713178294573"/>
      <point x="623.1124031007752" y="1054.6860465116279" type="curve" smooth="yes"/>
      <point x="623.1124031007752" y="856.1007751937984"/>
      <point x="559.8449612403101" y="734.0968992248062"/>
    </contour>
  </outline>
</glyph>
<glyph name="ampersand" format="2">
  <advance width="1317.546511627907"/>
  <unicode hex="0026"/>
  <note>
ampersand
</note>
  <outline>
    <contour>
      <point x="579.4069767441861" y="-28.1046511627907" type="curve" smooth="yes"/>
      <point x="697.6124031007752" y="-28.1046511627907"/>
      <point x="858.5116279069767" y="-6.263565891472869"/>
      <point x="924.4031007751938" y="37.52325581395349" type="curve"/>
      <point x="877.8875968992248" y="119.98837209302326" type="line"/>
      <point x="838.3062015503876" y="93.62015503875969"/>
      <point x="671.8333333333334" y="67.3062015503876"/>
      <point x="573.4069767441861" y="67.3062015503876" type="curve" smooth="yes"/>
      <point x="349.50387596899225" y="67.3062015503876"/>
      <point x="276.02713178294573" y="210.51937984496124"/>
      <point x="276.02713178294573" y="400.0503875968992" type="curve" smooth="yes"/>
      <point x="276.02713178294573" y="637.7945736434109"/>
      <point x="393.9263565891473" y="731.3217054263566"/>
      <point x="589.984496124031" y="731.5852713178294" type="curve"/>
      <point x="600.6162790697674" y="829.3643410852713" type="line"/>
      <point x="449.29457364341084" y="825.8914728682171"/>
      <point x="356.02713178294573" y="924.3682170542636"/>
      <point x="356.02713178294573" y="1082.5813953488373" type="curve" smooth="yes"/>
      <point x="356.02713178294573" y="1251.4806201550387"/>
      <point x="464.45348837209303" y="1364.3255813953488"/>
      <point x="625.4612403100775" y="1364.3255813953488" type="curve" smooth="yes"/>
      <point x="785.453488372093" y="1364.3255813953488" type="line"/>
      <point x="785.453488372093" y="1459.7364341085272" type="line"/>
      <point x="621.4612403100775" y="1459.7364341085272" type="line" smooth="yes"/>
      <point x="381.57751937984494" y="1459.7364341085272"/>
      <point x="234.0" y="1309.5232558139535"/>
      <point x="234.0" y="1082.5813953488373" type="curve" smooth="yes"/>
      <point x="234.0" y="946.0"/>
      <point x="290.21317829457365" y="844.4728682170543"/>
      <point x="382.8488372093023" y="788.0" type="curve"/>
      <point x="247.63565891472868" y="730.5813953488372"/>
      <point x="140.52713178294573" y="604.0038759689922"/>
      <point x="140.52713178294573" y="394.0503875968992" type="curve" smooth="yes"/>
      <point x="140.52713178294573" y="138.63178294573643"/>
      <point x="259.4108527131783" y="-28.1046511627907"/>
    </contour>
    <contour>
      <point x="1003.9263565891473" y="-26.1046511627907" type="curve" smooth="yes"/>
      <point x="1057.9186046511627" y="-26.1046511627907"/>
      <point x="1132.7596899224807" y="-14.0"/>
      <point x="1180.9147286821706" y="10.945736434108527" type="curve"/>
      <point x="1180.9147286821706" y="121.72093023255815" type="line"/>
      <point x="1135.453488372093" y="91.2015503875969"/>
      <point x="1090.9767441860465" y="74.67441860465117"/>
      <point x="1033.922480620155" y="74.67441860465117" type="curve" smooth="yes"/>
      <point x="996.6550387596899" y="74.67441860465117"/>
      <point x="985.4418604651163" y="132.9108527131783"/>
      <point x="985.4418604651163" y="235.4922480620155" type="curve" smooth="yes"/>
      <point x="985.4418604651163" y="731.5852713178294" type="line"/>
      <point x="1129.8100775193798" y="731.5852713178294" type="line"/>
      <point x="1129.8100775193798" y="828.9961240310078" type="line"/>
      <point x="985.4418604651163" y="828.9961240310078" type="line"/>
      <point x="985.4418604651163" y="1107.046511627907" type="line"/>
      <point x="922.6162790697674" y="1107.046511627907" type="line"/>
      <point x="929.8759689922481" y="872.7248062015503"/>
      <point x="899.2015503875969" y="828.9961240310078"/>
      <point x="736.7325581395348" y="828.9961240310078" type="curve" smooth="yes"/>
      <point x="584.9341085271318" y="828.9961240310078" type="line"/>
      <point x="568.1976744186046" y="731.5852713178294" type="line"/>
      <point x="861.8372093023256" y="731.5852713178294" type="line"/>
      <point x="861.8372093023256" y="214.89147286821705" type="line" smooth="yes"/>
      <point x="861.8372093023256" y="79.26356589147287"/>
      <point x="869.7209302325581" y="-26.1046511627907"/>
    </contour>
  </outline>
</glyph>
<glyph name="quotesingle" format="2">
  <advance width="368.7248062015504"/>
  <unicode hex="0027"/>
  <note>
quotesingle
</note>
  <outline>
    <contour>
      <point x="139.63178294573643" y="813.3217054263566" type="line"/>
      <point x="226.7248062015504" y="813.3217054263566" type="line"/>
      <point x="248.8294573643411" y="1358.8410852713178" type="line"/>
      <point x="121.26356589147287" y="1358.8410852713178" type="line"/>
    </contour>
  </outline>
</glyph>
<glyph name="parenleft" format="2">
  <advance width="610.5658914728682"/>
  <unicode hex="0028"/>
  <note>
parenleft
</note>
  <outline>
    <contour>
      <point x="468.5232558139535" y="-398.7906976744186" type="curve"/>
      <point x="506.7751937984496" y="-334.8953488372093" type="line"/>
      <point x="336.9341085271318" y="-77.06201550387597"/>
      <point x="228.984496124031" y="267.78682170542635"/>
      <point x="228.984496124031" y="563.3643410852713" type="curve" smooth="yes"/>
      <point x="228.984496124031" y="863.1007751937984"/>
      <point x="343.4612403100775" y="1224.0581395348838"/>
      <point x="511.67054263565893" y="1475.7286821705427" type="curve"/>
      <point x="463.2596899224806" y="1526.2558139534883" type="line"/>
      <point x="211.41860465116278" y="1186.8294573643411"/>
      <point x="106.8953488372093" y="907.9922480620155"/>
      <point x="106.8953488372093" y="565.2054263565891" type="curve" smooth="yes"/>
      <point x="106.8953488372093" y="216.7325581395349"/>
      <point x="214.57751937984497" y="-69.15891472868218"/>
    </contour>
  </outline>
</glyph>
<glyph name="parenright" format="2">
  <advance width="609.9341085271318"/>
  <unicode hex="0029"/>
  <note>
parenright
</note>
  <outline>
    <contour>
      <point x="142.4108527131783" y="-398.7906976744186" type="line"/>
      <point x="395.09302325581393" y="-69.79069767441861"/>
      <point x="503.0387596899225" y="216.7325581395349"/>
      <point x="503.0387596899225" y="565.2054263565891" type="curve" smooth="yes"/>
      <point x="503.0387596899225" y="907.6240310077519"/>
      <point x="398.8837209302326" y="1186.8294573643411"/>
      <point x="146.67441860465115" y="1527.2558139534883" type="curve"/>
      <point x="98.8953488372093" y="1475.7286821705427" type="line"/>
      <point x="268.47286821705427" y="1221.7945736434108"/>
      <point x="381.3178294573643" y="864.3643410852713"/>
      <point x="381.3178294573643" y="563.3643410852713" type="curve" smooth="yes"/>
      <point x="381.3178294573643" y="267.4186046511628"/>
      <point x="273.63178294573646" y="-76.16666666666667"/>
      <point x="103.79069767441861" y="-334.8953488372093" type="curve"/>
    </contour>
  </outline>
</glyph>
<glyph name="asterisk" format="2">
  <advance width="838.6201550387597"/>
  <unicode hex="002A"/>
  <note>
asterisk
</note>
  <outline>
    <contour>
      <point x="426.51937984496124" y="1136.7945736434108" type="line"/>
      <point x="541.3565891472869" y="1189.5271317829458"/>
      <point x="617.4108527131783" y="1200.6356589147288"/>
      <point x="653.9883720930233" y="1222.108527131783" type="curve" smooth="yes"/>
      <point x="664.4069767441861" y="1228.6860465116279"/>
      <point x="677.937984496124" y="1262.6860465116279"/>
      <point x="712.7248062015503" y="1283.2635658914728" type="curve"/>
      <point x="681.8837209302326" y="1335.577519379845" type="line"/>
      <point x="646.4651162790698" y="1315.0"/>
      <point x="609.8837209302326" y="1318.9961240310076"/>
      <point x="601.0968992248062" y="1313.4186046511627" type="curve" smooth="yes"/>
      <point x="564.5193798449612" y="1291.9457364341085"/>
      <point x="514.1472868217054" y="1233.9457364341085"/>
      <point x="412.1007751937984" y="1160.8953488372092" type="curve"/>
    </contour>
    <contour>
      <point x="156.73643410852713" y="962.1124031007752" type="line"/>
      <point x="191.15503875968992" y="981.6899224806201"/>
      <point x="228.1046511627907" y="976.6937984496124"/>
      <point x="238.52325581395348" y="982.2713178294574" type="curve" smooth="yes"/>
      <point x="275.1007751937984" y="1003.7441860465117"/>
      <point x="322.8410852713178" y="1063.1124031007753"/>
      <point x="426.51937984496124" y="1136.7945736434108" type="curve"/>
      <point x="412.1007751937984" y="1160.8953488372092" type="line"/>
      <point x="297.8953488372093" y="1109.1627906976744"/>
      <point x="223.2093023255814" y="1094.6860465116279"/>
      <point x="185.63178294573643" y="1073.5813953488373" type="curve" smooth="yes"/>
      <point x="177.84496124031008" y="1068.6356589147288"/>
      <point x="161.31395348837208" y="1035.0038759689924"/>
      <point x="125.8953488372093" y="1014.4263565891473" type="curve"/>
    </contour>
    <contour>
      <point x="388.468992248062" y="826.6937984496124" type="curve"/>
      <point x="449.1511627906977" y="826.6937984496124" type="line"/>
      <point x="449.1511627906977" y="866.8488372093024"/>
      <point x="472.2015503875969" y="895.8527131782946"/>
      <point x="472.2015503875969" y="908.0077519379845" type="curve" smooth="yes"/>
      <point x="472.2015503875969" y="953.2170542635658"/>
      <point x="444.88759689922483" y="1021.4302325581396"/>
      <point x="433.0968992248062" y="1147.84496124031" type="curve"/>
      <point x="404.5232558139535" y="1147.84496124031" type="line"/>
      <point x="392.7325581395349" y="1023.062015503876"/>
      <point x="367.4186046511628" y="951.5852713178294"/>
      <point x="367.4186046511628" y="908.0077519379845" type="curve" smooth="yes"/>
      <point x="367.4186046511628" y="894.8527131782946"/>
      <point x="388.468992248062" y="867.4806201550388"/>
    </contour>
    <contour>
      <point x="411.7325581395349" y="1136.7945736434108" type="curve"/>
      <point x="426.51937984496124" y="1160.8953488372092" type="line"/>
      <point x="324.47286821705427" y="1233.9457364341085"/>
      <point x="274.1007751937984" y="1291.9457364341085"/>
      <point x="237.52325581395348" y="1313.4186046511627" type="curve" smooth="yes"/>
      <point x="228.73643410852713" y="1318.9961240310076"/>
      <point x="191.78682170542635" y="1315.0"/>
      <point x="156.36821705426357" y="1335.2093023255813" type="curve"/>
      <point x="125.8953488372093" y="1283.2635658914728" type="line"/>
      <point x="160.31395348837208" y="1262.6860465116279"/>
      <point x="174.21317829457365" y="1228.6860465116279"/>
      <point x="184.63178294573643" y="1222.108527131783" type="curve" smooth="yes"/>
      <point x="221.2093023255814" y="1200.6356589147288"/>
      <point x="296.8953488372093" y="1189.1589147286822"/>
    </contour>
    <contour>
      <point x="600.0968992248062" y="982.2713178294574" type="curve" smooth="yes"/>
      <point x="610.515503875969" y="976.6937984496124"/>
      <point x="647.4651162790698" y="981.6899224806201"/>
      <point x="681.8837209302326" y="962.1124031007752" type="curve"/>
      <point x="712.7248062015503" y="1014.0581395348837" type="line"/>
      <point x="677.3062015503876" y="1034.6356589147288"/>
      <point x="660.7751937984497" y="1068.6356589147288"/>
      <point x="652.9883720930233" y="1073.5813953488373" type="curve" smooth="yes"/>
      <point x="615.4108527131783" y="1094.6860465116279"/>
      <point x="539.7248062015503" y="1109.1627906976744"/>
      <point x="426.51937984496124" y="1160.8953488372092" type="curve"/>
      <point x="411.7325581395349" y="1136.7945736434108" type="line"/>
      <point x="515.7790697674419" y="1062.7441860465117"/>
      <point x="563.5193798449612" y="1003.7441860465117"/>
    </contour>
    <contour>
      <point x="404.5232558139535" y="1147.84496124031" type="curve"/>
      <point x="433.0968992248062" y="1147.84496124031" type="line"/>
      <point x="444.88759689922483" y="1274.2596899224807"/>
      <point x="472.2015503875969" y="1342.1046511627908"/>
      <point x="472.2015503875969" y="1387.6821705426357" type="curve" smooth="yes"/>
      <point x="472.2015503875969" y="1399.8372093023256"/>
      <point x="449.1511627906977" y="1428.8410852713178"/>
      <point x="449.1511627906977" y="1468.9961240310076" type="curve"/>
      <point x="388.468992248062" y="1468.9961240310076" type="line"/>
      <point x="388.468992248062" y="1427.8410852713178"/>
      <point x="367.4186046511628" y="1400.468992248062"/>
      <point x="367.4186046511628" y="1387.6821705426357" type="curve" smooth="yes"/>
      <point x="367.4186046511628" y="1344.1046511627908"/>
      <point x="392.7325581395349" y="1272.6279069767443"/>
    </contour>
  </outline>
</glyph>
<glyph name="plus" format="2">
  <advance width="1097.937984496124"/>
  <unicode hex="002B"/>
  <note>
plus
</note>
  <outline>
    <contour>
      <point x="138.73643410852713" y="608.2751937984497" type="line"/>
      <point x="959.2015503875969" y="608.2751937984497" type="line"/>
      <point x="959.2015503875969" y="729.9883720930233" type="line"/>
      <point x="138.73643410852713" y="729.9883720930233" type="line"/>
    </contour>
    <contour>
      <point x="496.21317829457365" y="258.8992248062016" type="line"/>
      <point x="601.7248062015503" y="258.8992248062016" type="line"/>
      <point x="601.7248062015503" y="1079.3643410852712" type="line"/>
      <point x="496.21317829457365" y="1079.3643410852712" type="line"/>
    </contour>
  </outline>
</glyph>
<glyph name="comma" format="2">
  <advance width="506.18992248062017"/>
  <unicode hex="002C"/>
  <note>
comma
</note>
  <outline>
    <contour>
      <point x="130.52713178294573" y="-138.6782945736434" type="curve"/>
      <point x="253.40697674418604" y="-138.6782945736434" type="line"/>
      <point x="304.1937984496124" y="-43.52325581395349"/>
      <point x="348.9263565891473" y="71.31007751937985"/>
      <point x="378.66279069767444" y="190.9922480620155" type="curve"/>
      <point x="220.46899224806202" y="190.9922480620155" type="line"/>
      <point x="189.41860465116278" y="129.52325581395348"/>
      <point x="140.84108527131784" y="-48.31782945736434"/>
    </contour>
  </outline>
</glyph>
<glyph name="hyphen" format="2">
  <advance width="637.2868217054264"/>
  <unicode hex="002D"/>
  <note>
hyphen
</note>
  <outline>
    <contour>
      <point x="84.79069767441861" y="460.8488372093023" type="line"/>
      <point x="534.0852713178294" y="460.8488372093023" type="line"/>
      <point x="552.8643410852713" y="585.4612403100775" type="line"/>
      <point x="102.83333333333333" y="585.4612403100775" type="line"/>
    </contour>
  </outline>
</glyph>
<glyph name="period" format="2">
  <advance width="479.66279069767444"/>
  <unicode hex="002E"/>
  <note>
period
</note>
  <outline>
    <contour>
      <point x="240.14728682170542" y="-13.054263565891473" type="curve" smooth="yes"/>
      <point x="302.72093023255815" y="-13.054263565891473"/>
      <point x="348.3992248062016" y="30.310077519379846"/>
      <point x="348.3992248062016" y="96.82945736434108" type="curve" smooth="yes"/>
      <point x="348.3992248062016" y="162.7170542635659"/>
      <point x="302.72093023255815" y="205.4496124031008"/>
      <point x="240.14728682170542" y="205.4496124031008" type="curve" smooth="yes"/>
      <point x="176.9418604651163" y="205.4496124031008"/>
      <point x="131.26356589147287" y="163.34883720930233"/>
      <point x="131.26356589147287" y="96.82945736434108" type="curve" smooth="yes"/>
      <point x="131.26356589147287" y="31.310077519379846"/>
      <point x="176.57364341085272" y="-13.054263565891473"/>
    </contour>
  </outline>
</glyph>
<glyph name="slash" format="2">
  <advance width="766.9341085271318"/>
  <unicode hex="002F"/>
  <note>
slash
</note>
  <outline>
    <contour>
      <point x="74.26356589147287" y="-389.8953488372093" type="line"/>
      <point x="189.14728682170542" y="-389.8953488372093" type="line"/>
      <point x="692.6705426356589" y="1495.0" type="line"/>
      <point x="578.7868217054264" y="1495.0" type="line"/>
    </contour>
  </outline>
</glyph>
<glyph name="zero" format="2">
  <advance width="1317.0271317829458"/>
  <unicode hex="0030"/>
  <note>
zero
</note>
  <anchor x="655.1472868217054" y="715.0" name="center"/>
  <outline>
    <contour>
      <point x="658.8294573643411" y="-27.1046511627907" type="curve" smooth="yes"/>
      <point x="982.2441860465117" y="-27.1046511627907"/>
      <point x="1209.1317829457364" y="279.57751937984494"/>
      <point x="1209.1317829457364" y="715.0" type="curve" smooth="yes"/>
      <point x="1209.1317829457364" y="1145.0038759689924"/>
      <point x="977.1937984496124" y="1456.4728682170542"/>
      <point x="658.8294573643411" y="1456.4728682170542" type="curve" smooth="yes"/>
      <point x="338.0968992248062" y="1456.4728682170542"/>
      <point x="107.8953488372093" y="1146.3720930232557"/>
      <point x="107.8953488372093" y="715.0" type="curve" smooth="yes"/>
      <point x="107.8953488372093" y="281.0503875968992"/>
      <point x="335.88759689922483" y="-27.1046511627907"/>
    </contour>
    <contour>
      <point x="658.8294573643411" y="69.67441860465117" type="curve" smooth="yes"/>
      <point x="413.9263565891473" y="69.67441860465117"/>
      <point x="255.81782945736433" y="319.0968992248062"/>
      <point x="255.81782945736433" y="715.0" type="curve" smooth="yes"/>
      <point x="255.81782945736433" y="1110.5348837209303"/>
      <point x="413.9263565891473" y="1360.6937984496124"/>
      <point x="658.8294573643411" y="1360.6937984496124" type="curve" smooth="yes"/>
      <point x="903.1007751937984" y="1360.6937984496124"/>
      <point x="1059.577519379845" y="1109.1666666666667"/>
      <point x="1059.577519379845" y="715.0" type="curve" smooth="yes"/>
      <point x="1059.577519379845" y="319.8333333333333"/>
      <point x="903.468992248062" y="69.67441860465117"/>
    </contour>
  </outline>
</glyph>
<glyph name="one" format="2">
  <advance width="587.9728682170543"/>
  <unicode hex="0031"/>
  <note>
one
</note>
  <outline>
    <contour>
      <point x="319.5232558139535" y="-1.0" type="line"/>
      <point x="451.7093023255814" y="-1.0" type="line"/>
      <point x="451.7093023255814" y="1428.5271317829458" type="line"/>
      <point x="397.51162790697674" y="1428.5271317829458" type="line"/>
      <point x="97.26356589147287" y="993.2248062015503" type="line"/>
      <point x="162.25968992248062" y="944.8604651162791" type="line"/>
      <point x="387.0503875968992" y="1260.5038759689924" type="line"/>
      <point x="319.5232558139535" y="1276.3410852713178" type="line"/>
    </contour>
  </outline>
</glyph>
<glyph name="two" format="2">
  <advance width="1140.5038759689924"/>
  <unicode hex="0032"/>
  <note>
two
</note>
  <outline>
    <contour>
      <point x="97.26356589147287" y="0.0" type="line"/>
      <point x="1036.2403100775193" y="0.0" type="line"/>
      <point x="1036.2403100775193" y="113.2984496124031" type="line"/>
      <point x="292.24418604651163" y="113.2984496124031" type="line"/>
      <point x="256.24418604651163" y="52.251937984496124" type="line"/>
      <point x="407.17054263565893" y="188.50387596899225"/>
      <point x="706.6589147286821" y="517.2093023255813"/>
      <point x="775.2403100775193" y="590.5813953488372" type="curve" smooth="yes"/>
      <point x="1006.6782945736434" y="841.4961240310078"/>
      <point x="1017.5581395348837" y="960.6550387596899"/>
      <point x="1017.5581395348837" y="1064.1666666666667" type="curve" smooth="yes"/>
      <point x="1017.5581395348837" y="1312.6899224806202"/>
      <point x="833.031007751938" y="1459.7364341085272"/>
      <point x="585.7248062015503" y="1459.7364341085272" type="curve" smooth="yes"/>
      <point x="321.31007751937983" y="1459.7364341085272"/>
      <point x="159.57751937984497" y="1292.7906976744187"/>
      <point x="159.57751937984497" y="1086.7906976744187" type="curve" smooth="yes"/>
      <point x="159.57751937984497" y="1070.0542635658915"/>
      <point x="159.94573643410854" y="1030.3682170542636"/>
      <point x="165.68217054263565" y="987.5813953488372" type="curve"/>
      <point x="295.66279069767444" y="988.6860465116279" type="line"/>
      <point x="295.66279069767444" y="1064.422480620155" type="line" smooth="yes"/>
      <point x="295.66279069767444" y="1230.8527131782946"/>
      <point x="398.40697674418607" y="1365.2713178294573"/>
      <point x="582.4108527131783" y="1365.2713178294573" type="curve" smooth="yes"/>
      <point x="743.3682170542636" y="1365.2713178294573"/>
      <point x="876.7906976744187" y="1272.8953488372092"/>
      <point x="876.7906976744187" y="1078.0" type="curve" smooth="yes"/>
      <point x="876.7906976744187" y="860.9883720930233"/>
      <point x="700.9341085271318" y="665.468992248062"/>
      <point x="477.62015503875966" y="418.41472868217056" type="curve" smooth="yes"/>
    </contour>
  </outline>
</glyph>
<glyph name="three" format="2">
  <advance width="1083.2403100775193"/>
  <unicode hex="0033"/>
  <note>
three
</note>
  <outline>
    <contour>
      <point x="522.7790697674419" y="-31.15891472868217" type="curve" smooth="yes"/>
      <point x="797.3488372093024" y="-31.15891472868217"/>
      <point x="976.7131782945736" y="139.73643410852713"/>
      <point x="976.7131782945736" y="396.94573643410854" type="curve" smooth="yes"/>
      <point x="976.7131782945736" y="612.7364341085271"/>
      <point x="839.5542635658915" y="755.0"/>
      <point x="635.5581395348837" y="779.1007751937984" type="curve"/>
      <point x="466.2248062015504" y="701.5813953488372" type="line"/>
      <point x="783.0271317829457" y="708.2093023255813"/>
      <point x="955.031007751938" y="859.1046511627907"/>
      <point x="955.031007751938" y="1083.6860465116279" type="curve" smooth="yes"/>
      <point x="955.031007751938" y="1310.1589147286822"/>
      <point x="797.2441860465117" y="1456.4728682170542"/>
      <point x="557.7790697674419" y="1456.4728682170542" type="curve" smooth="yes"/>
      <point x="295.8410852713178" y="1456.4728682170542"/>
      <point x="134.0" y="1291.3178294573643"/>
      <point x="129.63178294573643" y="1046.9457364341085" type="curve"/>
      <point x="253.98062015503876" y="1046.577519379845" type="line"/>
      <point x="244.45348837209303" y="1232.015503875969"/>
      <point x="363.4108527131783" y="1363.639534883721"/>
      <point x="552.7790697674419" y="1363.639534883721" type="curve" smooth="yes"/>
      <point x="724.046511627907" y="1363.639534883721"/>
      <point x="823.2093023255813" y="1256.639534883721"/>
      <point x="823.2093023255813" y="1078.2131782945737" type="curve" smooth="yes"/>
      <point x="823.2093023255813" y="897.6317829457364"/>
      <point x="713.7325581395348" y="788.1550387596899"/>
      <point x="509.4108527131783" y="788.1550387596899" type="curve" smooth="yes"/>
      <point x="326.0503875968992" y="788.1550387596899" type="line"/>
      <point x="326.0503875968992" y="701.5813953488372" type="line"/>
      <point x="513.4108527131783" y="701.5813953488372" type="line" smooth="yes"/>
      <point x="710.8914728682171" y="701.5813953488372"/>
      <point x="834.4728682170543" y="596.6860465116279"/>
      <point x="834.4728682170543" y="396.0503875968992" type="curve" smooth="yes"/>
      <point x="834.4728682170543" y="199.72868217054264"/>
      <point x="713.6782945736434" y="60.56976744186046"/>
      <point x="528.7790697674419" y="60.56976744186046" type="curve" smooth="yes"/>
      <point x="355.35271317829455" y="60.56976744186046"/>
      <point x="235.92635658914728" y="186.41472868217053"/>
      <point x="235.92635658914728" y="361.2093023255814" type="curve" smooth="yes"/>
      <point x="235.92635658914728" y="395.36821705426354" type="line"/>
      <point x="102.8953488372093" y="395.36821705426354" type="line"/>
      <point x="102.8953488372093" y="352.3139534883721" type="line" smooth="yes"/>
      <point x="102.8953488372093" y="118.1046511627907"/>
      <point x="263.3139534883721" y="-31.15891472868217"/>
    </contour>
  </outline>
</glyph>
<glyph name="four" format="2">
  <advance width="1117.2364341085272"/>
  <unicode hex="0034"/>
  <note>
four
</note>
  <outline>
    <contour>
      <point x="716.1511627906976" y="0.0" type="line"/>
      <point x="837.6589147286821" y="0.0" type="line"/>
      <point x="837.6589147286821" y="468.2093023255814" type="line"/>
      <point x="682.7170542635658" y="361.4263565891473" type="line"/>
      <point x="1017.2364341085271" y="361.4263565891473" type="line"/>
      <point x="1017.2364341085271" y="463.4651162790698" type="line"/>
      <point x="682.7170542635658" y="463.4651162790698" type="line"/>
      <point x="837.6589147286821" y="396.58527131782944" type="line"/>
      <point x="837.6589147286821" y="904.8023255813954" type="line"/>
      <point x="716.1511627906976" y="904.8023255813954" type="line"/>
      <point x="716.1511627906976" y="396.58527131782944" type="line"/>
      <point x="826.1976744186046" y="463.4651162790698" type="line"/>
      <point x="198.7248062015504" y="463.4651162790698" type="line"/>
      <point x="261.1395348837209" y="429.0" type="line"/>
      <point x="418.6162790697674" y="748.7868217054264"/>
      <point x="506.3488372093023" y="1004.3565891472869"/>
      <point x="589.4496124031008" y="1435.5232558139535" type="curve"/>
      <point x="474.88759689922483" y="1435.5232558139535" type="line"/>
      <point x="387.1046511627907" y="1001.7286821705426"/>
      <point x="294.0581395348837" y="735.2674418604652"/>
      <point x="97.8953488372093" y="361.4263565891473" type="curve"/>
      <point x="826.1976744186046" y="361.4263565891473" type="line"/>
      <point x="716.1511627906976" y="468.2093023255814" type="line"/>
    </contour>
  </outline>
</glyph>
<glyph name="five" format="2">
  <advance width="1055.2441860465117"/>
  <unicode hex="0035"/>
  <note>
five
</note>
  <outline>
    <contour>
      <point x="424.8255813953488" y="-28.84108527131783" type="curve" smooth="yes"/>
      <point x="708.1356589147287" y="-28.84108527131783"/>
      <point x="951.3488372093024" y="176.41860465116278"/>
      <point x="951.3488372093024" y="465.0" type="curve" smooth="yes"/>
      <point x="951.3488372093024" y="718.9457364341085"/>
      <point x="770.9883720930233" y="882.3139534883721"/>
      <point x="502.3565891472868" y="882.3139534883721" type="curve" smooth="yes"/>
      <point x="384.41472868217056" y="882.3139534883721"/>
      <point x="286.72868217054264" y="848.5813953488372"/>
      <point x="206.72868217054264" y="795.5852713178294" type="curve"/>
      <point x="258.7248062015504" y="777.531007751938" type="line"/>
      <point x="380.56976744186045" y="1372.6937984496124" type="line"/>
      <point x="296.2674418604651" y="1309.2790697674418" type="line"/>
      <point x="872.984496124031" y="1309.2790697674418" type="line"/>
      <point x="872.984496124031" y="1430.0" type="line"/>
      <point x="307.9496124031008" y="1430.0" type="line"/>
      <point x="166.8953488372093" y="734.7403100775193" type="line"/>
      <point x="199.515503875969" y="718.484496124031" type="line"/>
      <point x="268.8837209302326" y="758.4302325581396"/>
      <point x="373.82945736434107" y="782.9573643410853"/>
      <point x="463.72868217054264" y="782.9573643410853" type="curve" smooth="yes"/>
      <point x="678.7829457364342" y="782.9573643410853"/>
      <point x="815.422480620155" y="659.953488372093"/>
      <point x="815.422480620155" y="459.84496124031006" type="curve" smooth="yes"/>
      <point x="815.422480620155" y="235.73643410852713"/>
      <point x="633.3604651162791" y="70.14728682170542"/>
      <point x="426.2480620155039" y="70.14728682170542" type="curve" smooth="yes"/>
      <point x="307.98837209302326" y="70.14728682170542"/>
      <point x="208.99612403100775" y="122.93410852713178"/>
      <point x="147.94573643410854" y="173.30232558139534" type="curve"/>
      <point x="97.26356589147287" y="96.46899224806202" type="line"/>
      <point x="201.63178294573643" y="13.205426356589147"/>
      <point x="299.1511627906977" y="-28.84108527131783"/>
    </contour>
  </outline>
</glyph>
<glyph name="six" format="2">
  <advance width="1142.2480620155038"/>
  <unicode hex="0036"/>
  <note>
six
</note>
  <outline>
    <contour>
      <point x="553.7790697674419" y="-33.0" type="curve" smooth="yes"/>
      <point x="877.4069767441861" y="-36.263565891472865"/>
      <point x="1037.984496124031" y="168.7906976744186"/>
      <point x="1037.984496124031" y="445.73643410852713" type="curve" smooth="yes"/>
      <point x="1037.984496124031" y="717.7868217054264"/>
      <point x="859.7209302325581" y="903.9961240310078"/>
      <point x="588.3062015503876" y="903.9961240310078" type="curve" smooth="yes"/>
      <point x="406.5077519379845" y="903.9961240310078"/>
      <point x="234.03488372093022" y="810.515503875969"/>
      <point x="185.72868217054264" y="589.6705426356589" type="curve"/>
      <point x="237.4031007751938" y="611.7751937984497" type="line"/>
      <point x="236.6124031007752" y="781.6240310077519"/>
      <point x="265.4031007751938" y="942.2170542635658"/>
      <point x="392.56976744186045" y="1090.2751937984497" type="curve" smooth="yes"/>
      <point x="450.6744186046512" y="1165.4263565891472"/>
      <point x="596.2558139534883" y="1303.7441860465117"/>
      <point x="834.2054263565891" y="1343.2209302325582" type="curve"/>
      <point x="833.468992248062" y="1443.1007751937984" type="line"/>
      <point x="576.6937984496124" y="1420.9418604651162"/>
      <point x="398.06201550387595" y="1258.5813953488373"/>
      <point x="326.3255813953488" y="1177.062015503876" type="curve" smooth="yes"/>
      <point x="105.20930232558139" y="944.9031007751938"/>
      <point x="108.8953488372093" y="622.8953488372093"/>
      <point x="108.8953488372093" y="530.0542635658915" type="curve" smooth="yes"/>
      <point x="108.8953488372093" y="79.36434108527132"/>
      <point x="319.2093023255814" y="-30.368217054263567"/>
    </contour>
    <contour>
      <point x="569.5697674418604" y="66.82945736434108" type="curve" smooth="yes"/>
      <point x="348.5077519379845" y="69.46124031007751"/>
      <point x="243.29457364341084" y="260.2596899224806"/>
      <point x="246.5581395348837" y="461.26356589147287" type="curve" smooth="yes"/>
      <point x="249.82170542635657" y="703.6899224806201"/>
      <point x="421.87984496124034" y="801.3255813953489"/>
      <point x="594.3604651162791" y="801.3255813953489" type="curve" smooth="yes"/>
      <point x="847.8992248062016" y="801.3255813953489"/>
      <point x="904.7945736434109" y="583.8914728682171"/>
      <point x="904.7945736434109" y="433.0503875968992" type="curve" smooth="yes"/>
      <point x="904.7945736434109" y="199.51937984496124"/>
      <point x="757.2093023255813" y="64.56589147286822"/>
    </contour>
  </outline>
</glyph>
<glyph name="seven" format="2">
  <advance width="1067.922480620155"/>
  <unicode hex="0037"/>
  <note>
seven
</note>
  <outline>
    <contour>
      <point x="303.41472868217056" y="0.0" type="curve"/>
      <point x="432.6046511627907" y="0.0" type="line"/>
      <point x="516.3372093023256" y="567.3682170542636"/>
      <point x="684.7558139534883" y="1010.3100775193799"/>
      <point x="970.6589147286821" y="1417.1046511627908" type="curve"/>
      <point x="101.0" y="1417.1046511627908" type="line"/>
      <point x="101.0" y="1283.6472868217054" type="line"/>
      <point x="839.1472868217054" y="1283.6472868217054" type="line"/>
      <point x="792.5736434108527" y="1335.953488372093" type="line"/>
      <point x="583.0387596899225" y="994.6744186046511"/>
      <point x="400.67054263565893" y="566.2054263565891"/>
    </contour>
  </outline>
</glyph>
<glyph name="eight" format="2">
  <advance width="1094.0852713178294"/>
  <unicode hex="0038"/>
  <note>
eight
</note>
  <outline>
    <contour>
      <point x="553.1511627906976" y="-30.368217054263567" type="curve" smooth="yes"/>
      <point x="820.984496124031" y="-30.368217054263567"/>
      <point x="990.8217054263566" y="130.1046511627907"/>
      <point x="990.8217054263566" y="377.8914728682171" type="curve" smooth="yes"/>
      <point x="990.8217054263566" y="600.1007751937984"/>
      <point x="838.7713178294574" y="753.7325581395348"/>
      <point x="575.6201550387597" y="838.3100775193799" type="curve" smooth="yes"/>
      <point x="330.34496124031006" y="917.9457364341085"/>
      <point x="287.3488372093023" y="1003.6317829457364"/>
      <point x="287.3488372093023" y="1108.6317829457364" type="curve" smooth="yes"/>
      <point x="287.3488372093023" y="1258.1627906976744"/>
      <point x="390.1937984496124" y="1353.1124031007753"/>
      <point x="557.4069767441861" y="1353.1124031007753" type="curve" smooth="yes"/>
      <point x="711.4612403100775" y="1353.1124031007753"/>
      <point x="826.9418604651163" y="1251.5852713178294"/>
      <point x="826.9418604651163" y="1105.5271317829458" type="curve" smooth="yes"/>
      <point x="826.9418604651163" y="1005.3139534883721"/>
      <point x="761.0930232558139" y="891.6821705426356"/>
      <point x="537.7480620155038" y="792.6821705426356" type="curve"/>
      <point x="661.6705426356589" y="763.1085271317829" type="line"/>
      <point x="801.4031007751938" y="832.7945736434109"/>
      <point x="931.2984496124031" y="976.8488372093024"/>
      <point x="931.2984496124031" y="1121.108527131783" type="curve" smooth="yes"/>
      <point x="931.2984496124031" y="1328.5813953488373"/>
      <point x="738.1937984496124" y="1444.4728682170542"/>
      <point x="540.8837209302326" y="1444.4728682170542" type="curve" smooth="yes"/>
      <point x="319.3643410852713" y="1444.1046511627908"/>
      <point x="169.26356589147287" y="1309.422480620155"/>
      <point x="169.26356589147287" y="1098.0038759689924" type="curve" smooth="yes"/>
      <point x="169.26356589147287" y="922.7441860465117"/>
      <point x="326.0" y="803.7480620155038"/>
      <point x="499.6782945736434" y="744.5387596899225" type="curve" smooth="yes"/>
      <point x="797.6860465116279" y="641.4302325581396"/>
      <point x="864.6317829457364" y="529.4767441860465"/>
      <point x="864.6317829457364" y="384.0" type="curve" smooth="yes"/>
      <point x="864.6317829457364" y="190.25968992248062"/>
      <point x="748.577519379845" y="68.72868217054264"/>
      <point x="540.2054263565891" y="68.72868217054264" type="curve" smooth="yes"/>
      <point x="334.9922480620155" y="68.72868217054264"/>
      <point x="214.5658914728682" y="194.04651162790697"/>
      <point x="214.5658914728682" y="384.7906976744186" type="curve" smooth="yes"/>
      <point x="214.19767441860466" y="524.7945736434109"/>
      <point x="285.7829457364341" y="647.5852713178294"/>
      <point x="512.9341085271318" y="762.2131782945736" type="curve"/>
      <point x="420.73643410852713" y="799.7364341085271" type="line"/>
      <point x="221.26356589147287" y="709.4186046511628"/>
      <point x="103.26356589147287" y="551.1550387596899"/>
      <point x="103.26356589147287" y="360.3139534883721" type="curve" smooth="yes"/>
      <point x="103.26356589147287" y="123.52713178294573"/>
      <point x="300.42248062015506" y="-30.368217054263567"/>
    </contour>
  </outline>
</glyph>
<glyph name="nine" format="2">
  <advance width="1141.6162790697674"/>
  <unicode hex="0039"/>
  <note>
nine
</note>
  <outline>
    <contour>
      <point x="289.63178294573646" y="-35.945736434108525" type="line"/>
      <point x="535.7286821705426" y="-14.523255813953488"/>
      <point x="707.7325581395348" y="117.2751937984496"/>
      <point x="784.2558139534883" y="188.85271317829458" type="curve" smooth="yes"/>
      <point x="848.4108527131783" y="248.43023255813955"/>
      <point x="896.0930232558139" y="319.0581395348837"/>
      <point x="930.1976744186046" y="384.16279069767444" type="curve" smooth="yes"/>
      <point x="1036.2480620155038" y="586.8449612403101"/>
      <point x="1033.3527131782946" y="802.9457364341085"/>
      <point x="1033.3527131782946" y="877.1007751937984" type="curve" smooth="yes"/>
      <point x="1033.3527131782946" y="1327.7906976744187"/>
      <point x="822.6705426356589" y="1437.5232558139535"/>
      <point x="588.468992248062" y="1440.15503875969" type="curve" smooth="yes"/>
      <point x="269.99612403100775" y="1443.4186046511627"/>
      <point x="104.26356589147287" y="1238.3643410852712"/>
      <point x="104.26356589147287" y="959.9457364341085" type="curve" smooth="yes"/>
      <point x="104.26356589147287" y="684.5813953488372"/>
      <point x="285.8410852713178" y="498.37209302325584"/>
      <point x="553.5736434108527" y="498.37209302325584" type="curve" smooth="yes"/>
      <point x="735.7403100775193" y="498.37209302325584"/>
      <point x="903.4263565891473" y="594.4302325581396"/>
      <point x="956.5193798449612" y="817.8527131782946" type="curve"/>
      <point x="903.0038759689922" y="795.3798449612403" type="line"/>
      <point x="905.6356589147287" y="632.5271317829457"/>
      <point x="882.7364341085271" y="470.4612403100775"/>
      <point x="755.5697674418604" y="322.77131782945736" type="curve" smooth="yes"/>
      <point x="697.4651162790698" y="247.6201550387597"/>
      <point x="552.9883720930233" y="109.30232558139535"/>
      <point x="295.8914728682171" y="71.66666666666666" type="curve"/>
    </contour>
    <contour>
      <point x="547.8875968992248" y="603.6201550387597" type="curve" smooth="yes"/>
      <point x="294.7170542635659" y="603.6201550387597"/>
      <point x="238.92635658914728" y="823.2635658914729"/>
      <point x="238.92635658914728" y="972.6317829457364" type="curve" smooth="yes"/>
      <point x="238.92635658914728" y="1206.8992248062016"/>
      <point x="385.7751937984496" y="1341.8527131782946"/>
      <point x="572.6782945736434" y="1339.2209302325582" type="curve" smooth="yes"/>
      <point x="793.0038759689922" y="1336.9573643410852"/>
      <point x="897.1124031007752" y="1143.5813953488373"/>
      <point x="893.8488372093024" y="944.4186046511628" type="curve" smooth="yes"/>
      <point x="890.5852713178294" y="701.2558139534883"/>
      <point x="718.8953488372093" y="603.6201550387597"/>
    </contour>
  </outline>
</glyph>
<glyph name="greater" format="2">
  <advance width="1097.937984496124"/>
  <unicode hex="003E"/>
  <note>
greater
</note>
  <outline>
    <contour>
      <point x="138.73643410852713" y="314.4922480620155" type="line"/>
      <point x="912.453488372093" y="635.5348837209302" type="line"/>
      <point x="912.453488372093" y="732.3604651162791" type="line"/>
      <point x="138.73643410852713" y="1052.4031007751937" type="line"/>
      <point x="138.73643410852713" y="932.3682170542636" type="line"/>
      <point x="741.8953488372093" y="683.6317829457364" type="line"/>
      <point x="138.73643410852713" y="434.52713178294573" type="line"/>
    </contour>
  </outline>
</glyph>
<glyph name="question" format="2">
  <advance width="1044.7713178294573"/>
  <unicode hex="003F"/>
  <note>
question
</note>
  <outline>
    <contour>
      <point x="437.2596899224806" y="363.97286821705427" type="curve"/>
      <point x="530.1472868217054" y="363.97286821705427" type="line"/>
      <point x="525.6201550387597" y="453.93798449612405"/>
      <point x="522.8333333333334" y="527.6705426356589"/>
      <point x="522.8333333333334" y="586.5193798449612" type="curve" smooth="yes"/>
      <point x="522.8333333333334" y="810.9883720930233"/>
      <point x="919.3488372093024" y="826.1589147286821"/>
      <point x="919.3488372093024" y="1165.3720930232557" type="curve" smooth="yes"/>
      <point x="919.3488372093024" y="1359.7906976744187"/>
      <point x="773.9341085271318" y="1462.0"/>
      <point x="507.9418604651163" y="1462.0" type="curve" smooth="yes"/>
      <point x="248.26356589147287" y="1462.0"/>
      <point x="122.79069767441861" y="1364.0"/>
      <point x="122.79069767441861" y="1161.6860465116279" type="curve" smooth="yes"/>
      <point x="122.79069767441861" y="1145.3178294573643"/>
      <point x="122.79069767441861" y="1127.422480620155"/>
      <point x="122.79069767441861" y="1096.6899224806202" type="curve"/>
      <point x="257.35271317829455" y="1096.6899224806202" type="line"/>
      <point x="248.7751937984496" y="1124.577519379845"/>
      <point x="249.03875968992247" y="1142.7325581395348"/>
      <point x="249.03875968992247" y="1168.0" type="curve" smooth="yes"/>
      <point x="249.03875968992247" y="1293.6356589147288"/>
      <point x="348.62015503875966" y="1367.2209302325582"/>
      <point x="505.31007751937983" y="1367.2209302325582" type="curve" smooth="yes"/>
      <point x="681.6317829457364" y="1367.2209302325582"/>
      <point x="772.6860465116279" y="1286.3255813953488"/>
      <point x="772.6860465116279" y="1141.0542635658915" type="curve" smooth="yes"/>
      <point x="772.6860465116279" y="873.6240310077519"/>
      <point x="421.0503875968992" y="916.8217054263566"/>
      <point x="421.0503875968992" y="575.5193798449612" type="curve" smooth="yes"/>
      <point x="421.0503875968992" y="507.6744186046512"/>
      <point x="431.57751937984494" y="439.35271317829455"/>
    </contour>
    <contour>
      <point x="490.6782945736434" y="-17.84108527131783" type="curve" smooth="yes"/>
      <point x="550.2015503875969" y="-17.84108527131783"/>
      <point x="589.9883720930233" y="27.627906976744185"/>
      <point x="589.9883720930233" y="89.09689922480621" type="curve" smooth="yes"/>
      <point x="589.9883720930233" y="150.19767441860466"/>
      <point x="550.2015503875969" y="194.03488372093022"/>
      <point x="490.6782945736434" y="194.03488372093022" type="curve" smooth="yes"/>
      <point x="431.15503875968994" y="194.03488372093022"/>
      <point x="391.36821705426354" y="150.19767441860466"/>
      <point x="391.36821705426354" y="89.09689922480621" type="curve" smooth="yes"/>
      <point x="391.36821705426354" y="27.627906976744185"/>
      <point x="431.15503875968994" y="-17.84108527131783"/>
    </contour>
  </outline>
</glyph>
<glyph name="at" format="2">
  <advance width="1715.031007751938"/>
  <unicode hex="0040"/>
  <note>
at
</note>
  <outline>
    <contour>
      <point x="904.8333333333334" y="-32.2093023255814" type="curve" smooth="yes"/>
      <point x="1190.2480620155038" y="-32.2093023255814"/>
      <point x="1443.6627906976744" y="124.05038759689923"/>
      <point x="1574.9767441860465" y="360.4108527131783" type="curve"/>
      <point x="1475.2015503875969" y="374.72868217054264" type="line"/>
      <point x="1355.937984496124" y="182.72868217054264"/>
      <point x="1144.5697674418604" y="56.93798449612403"/>
      <point x="902.2015503875969" y="56.93798449612403" type="curve" smooth="yes"/>
      <point x="532.1472868217054" y="56.93798449612403"/>
      <point x="231.6201550387597" y="352.20542635658916"/>
      <point x="231.6201550387597" y="714.8953488372093" type="curve" smooth="yes"/>
      <point x="231.6201550387597" y="1076.3217054263566"/>
      <point x="532.1472868217054" y="1371.5891472868218"/>
      <point x="902.2015503875969" y="1371.5891472868218" type="curve" smooth="yes"/>
      <point x="1228.624031007752" y="1371.5891472868218"/>
      <point x="1471.3100775193798" y="1145.2170542635658"/>
      <point x="1471.3100775193798" y="834.1589147286821" type="curve" smooth="yes"/>
      <point x="1471.3100775193798" y="742.7906976744187"/>
      <point x="1444.6782945736434" y="649.3682170542636"/>
      <point x="1400.5736434108528" y="579.2093023255813" type="curve" smooth="yes"/>
      <point x="1355.0968992248063" y="504.88759689922483"/>
      <point x="1288.8837209302326" y="436.04651162790697"/>
      <point x="1200.1937984496124" y="425.0" type="curve" smooth="yes"/>
      <point x="1161.2441860465117" y="426.8410852713178"/>
      <point x="1109.2403100775193" y="447.8953488372093"/>
      <point x="1117.9263565891472" y="523.9031007751938" type="curve"/>
      <point x="1258.3953488372092" y="1081.7325581395348" type="line"/>
      <point x="1146.8410852713178" y="1081.7325581395348" type="line"/>
      <point x="1116.9961240310076" y="965.1395348837209" type="line"/>
      <point x="1096.577519379845" y="1064.360465116279"/>
      <point x="1042.8410852713178" y="1101.7325581395348"/>
      <point x="947.6279069767442" y="1101.7325581395348" type="curve" smooth="yes"/>
      <point x="686.7906976744187" y="1101.7325581395348"/>
      <point x="496.43023255813955" y="829.7325581395348"/>
      <point x="496.43023255813955" y="599.1627906976744" type="curve" smooth="yes"/>
      <point x="496.43023255813955" y="435.9573643410853"/>
      <point x="595.1627906976744" y="329.5387596899225"/>
      <point x="762.577519379845" y="329.5387596899225" type="curve" smooth="yes"/>
      <point x="867.9457364341085" y="329.5387596899225"/>
      <point x="967.5813953488372" y="368.48837209302326"/>
      <point x="1020.577519379845" y="468.1240310077519" type="curve"/>
      <point x="1035.3100775193798" y="395.8062015503876"/>
      <point x="1075.3100775193798" y="342.5387596899225"/>
      <point x="1177.7325581395348" y="342.5387596899225" type="curve" smooth="yes"/>
      <point x="1247.9418604651162" y="342.5387596899225"/>
      <point x="1312.2558139534883" y="367.6434108527132"/>
      <point x="1368.4108527131782" y="410.9573643410853" type="curve" smooth="yes"/>
      <point x="1427.9341085271317" y="456.27131782945736"/>
      <point x="1471.6705426356589" y="514.1666666666666"/>
      <point x="1505.3527131782946" y="585.4806201550388" type="curve" smooth="yes"/>
      <point x="1542.2984496124031" y="662.7945736434109"/>
      <point x="1561.4031007751937" y="749.2674418604652"/>
      <point x="1561.4031007751937" y="835.0542635658915" type="curve" smooth="yes"/>
      <point x="1561.4031007751937" y="1211.5271317829458"/>
      <point x="1288.8798449612402" y="1460.3682170542636"/>
      <point x="904.8333333333334" y="1460.3682170542636" type="curve" smooth="yes"/>
      <point x="482.8914728682171" y="1460.3682170542636"/>
      <point x="141.8953488372093" y="1126.7364341085272"/>
      <point x="141.8953488372093" y="714.8953488372093" type="curve" smooth="yes"/>
      <point x="141.8953488372093" y="301.42248062015506"/>
      <point x="482.5232558139535" y="-32.2093023255814"/>
    </contour>
    <contour>
      <point x="798.9457364341085" y="411.26356589147287" type="curve" smooth="yes"/>
      <point x="686.5697674418604" y="411.26356589147287"/>
      <point x="610.0891472868217" y="481.2674418604651"/>
      <point x="610.0891472868217" y="588.6899224806201" type="curve" smooth="yes"/>
      <point x="610.0891472868217" y="820.2209302325581"/>
      <point x="771.0930232558139" y="1019.1124031007752"/>
      <point x="957.468992248062" y="1019.1124031007752" type="curve" smooth="yes"/>
      <point x="1032.577519379845" y="1019.1124031007752"/>
      <point x="1058.2635658914728" y="950.5813953488372"/>
      <point x="1058.2635658914728" y="856.6860465116279" type="curve" smooth="yes"/>
      <point x="1058.2635658914728" y="702.4806201550388"/>
      <point x="960.1085271317829" y="411.26356589147287"/>
    </contour>
  </outline>
</glyph>
<glyph name="A" format="2">
  <advance width="1511.5077519379845"/>
  <unicode hex="0041"/>
  <note>
A
</note>
  <anchor x="755.5697674418604" y="-8.953488372093023" name="bottom"/>
  <anchor x="1316.8488372093022" y="0.0" name="ogonek"/>
  <anchor x="755.5697674418604" y="1430.0" name="top"/>
  <outline>
    <contour>
      <point x="103.8953488372093" y="0.0" type="line"/>
      <point x="206.93798449612405" y="0.0" type="line"/>
      <point x="760.0" y="1259.9806201550387" type="line"/>
      <point x="704.5232558139535" y="1287.7713178294573" type="line"/>
      <point x="1267.4302325581396" y="0.0" type="line"/>
      <point x="1407.6124031007753" y="0.0" type="line"/>
      <point x="754.5697674418604" y="1468.2093023255813" type="line"/>
    </contour>
    <contour>
      <point x="338.6860465116279" y="478.7015503875969" type="line"/>
      <point x="1141.0503875968993" y="478.7015503875969" type="line"/>
      <point x="1102.3178294573643" y="576.3217054263566" type="line"/>
      <point x="378.8914728682171" y="576.3217054263566" type="line"/>
    </contour>
  </outline>
</glyph>
<glyph name="B" format="2">
  <advance width="1208.0813953488373"/>
  <unicode hex="0042"/>
  <note>
B
</note>
  <anchor x="599.937984496124" y="-8.953488372093023" name="bottom"/>
  <anchor x="599.937984496124" y="1430.0" name="top"/>
  <outline>
    <contour>
      <point x="142.26356589147287" y="0.0" type="line"/>
      <point x="568.4147286821706" y="0.0" type="line" smooth="yes"/>
      <point x="909.6627906976744" y="0.0"/>
      <point x="1098.8178294573643" y="145.42248062015503"/>
      <point x="1098.8178294573643" y="407.62790697674416" type="curve" smooth="yes"/>
      <point x="1098.8178294573643" y="615.6279069767442"/>
      <point x="967.3953488372093" y="767.7364341085271"/>
      <point x="759.7131782945736" y="789.1550387596899" type="curve"/>
      <point x="763.2945736434109" y="722.9496124031008" type="line"/>
      <point x="942.7131782945736" y="764.0"/>
      <point x="1046.7674418604652" y="885.2131782945736"/>
      <point x="1046.7674418604652" y="1051.7403100775193" type="curve" smooth="yes"/>
      <point x="1046.7674418604652" y="1281.577519379845"/>
      <point x="865.1395348837209" y="1431.1046511627908"/>
      <point x="583.468992248062" y="1431.1046511627908" type="curve" smooth="yes"/>
      <point x="142.26356589147287" y="1431.1046511627908" type="line"/>
    </contour>
    <contour>
      <point x="273.5" y="12.631782945736434" type="line"/>
      <point x="273.5" y="782.5232558139535" type="line"/>
      <point x="215.13953488372093" y="710.4263565891473" type="line"/>
      <point x="605.9922480620155" y="710.4263565891473" type="line" smooth="yes"/>
      <point x="818.7364341085271" y="710.4263565891473"/>
      <point x="954.8992248062016" y="596.5813953488372"/>
      <point x="954.8992248062016" y="414.78682170542635" type="curve" smooth="yes"/>
      <point x="954.8992248062016" y="213.72868217054264"/>
      <point x="799.6317829457364" y="95.41085271317829"/>
      <point x="536.3062015503876" y="95.41085271317829" type="curve" smooth="yes"/>
      <point x="189.36821705426357" y="95.41085271317829" type="line"/>
    </contour>
    <contour>
      <point x="273.5" y="730.1085271317829" type="line"/>
      <point x="273.5" y="1416.8953488372092" type="line"/>
      <point x="156.62790697674419" y="1335.6937984496124" type="line"/>
      <point x="568.4147286821706" y="1335.6937984496124" type="line" smooth="yes"/>
      <point x="788.5232558139535" y="1335.6937984496124"/>
      <point x="904.953488372093" y="1220.0658914728683"/>
      <point x="904.953488372093" y="1042.2674418604652" type="curve" smooth="yes"/>
      <point x="904.953488372093" y="867.6821705426356"/>
      <point x="780.3139534883721" y="802.5736434108527"/>
      <point x="583.468992248062" y="802.5736434108527" type="curve" smooth="yes"/>
      <point x="212.60852713178295" y="802.5736434108527" type="line"/>
    </contour>
  </outline>
</glyph>
<glyph name="C" format="2">
  <advance width="1503.2403100775193"/>
  <unicode hex="0043"/>
  <note>
C
</note>
  <anchor x="745.7286821705426" y="-8.953488372093023" name="bottom"/>
  <anchor x="795.725" y="1430.0" name="top"/>
  <outline>
    <contour>
      <point x="808.7286821705426" y="-15.523255813953488" type="curve" smooth="yes"/>
      <point x="1075.2480620155038" y="-15.523255813953488"/>
      <point x="1263.1860465116279" y="106.15503875968992"/>
      <point x="1397.9767441860465" y="363.72868217054264" type="curve"/>
      <point x="1258.6860465116279" y="363.72868217054264" type="line"/>
      <point x="1167.3682170542636" y="182.62403100775194"/>
      <point x="1009.6279069767442" y="82.62403100775194"/>
      <point x="811.2558139534883" y="82.62403100775194" type="curve" smooth="yes"/>
      <point x="480.4573643410853" y="82.62403100775194"/>
      <point x="254.34496124031008" y="338.8914728682171"/>
      <point x="254.34496124031008" y="715.8953488372093" type="curve" smooth="yes"/>
      <point x="254.34496124031008" y="1093.531007751938"/>
      <point x="478.1937984496124" y="1348.9031007751937"/>
      <point x="806.3604651162791" y="1348.9031007751937" type="curve" smooth="yes"/>
      <point x="1009.9961240310078" y="1348.9031007751937"/>
      <point x="1184.0542635658915" y="1245.639534883721"/>
      <point x="1260.2131782945737" y="1070.062015503876" type="curve"/>
      <point x="1395.031007751938" y="1070.062015503876" type="line"/>
      <point x="1293.922480620155" y="1314.0581395348838"/>
      <point x="1076.0387596899225" y="1446.6821705426357"/>
      <point x="807.6240310077519" y="1446.6821705426357" type="curve" smooth="yes"/>
      <point x="400.1007751937984" y="1446.6821705426357"/>
      <point x="112.8953488372093" y="1142.422480620155"/>
      <point x="112.8953488372093" y="715.2635658914729" type="curve" smooth="yes"/>
      <point x="112.8953488372093" y="281.2093023255814"/>
      <point x="393.5736434108527" y="-15.523255813953488"/>
    </contour>
  </outline>
</glyph>
<glyph name="D" format="2">
  <advance width="1397.5581395348838"/>
  <unicode hex="0044"/>
  <note>
D
</note>
  <anchor x="700.9883720930233" y="-16.686046511627907" name="bottom"/>
  <anchor x="211.8294573643411" y="715.0" name="center"/>
  <anchor x="700.9883720930233" y="1430.0" name="top"/>
  <outline>
    <contour>
      <point x="142.26356589147287" y="0.0" type="line"/>
      <point x="506.3565891472868" y="0.0" type="line" smooth="yes"/>
      <point x="746.3992248062016" y="0.0"/>
      <point x="878.8255813953489" y="27.42248062015504"/>
      <point x="1014.2945736434109" y="107.89147286821705" type="curve" smooth="yes"/>
      <point x="1184.562015503876" y="208.41860465116278"/>
      <point x="1283.6627906976744" y="414.57751937984494"/>
      <point x="1283.6627906976744" y="714.7364341085271" type="curve" smooth="yes"/>
      <point x="1283.6627906976744" y="976.5813953488372"/>
      <point x="1206.875968992248" y="1174.1589147286822"/>
      <point x="1070.6124031007753" y="1281.5271317829458" type="curve" smooth="yes"/>
      <point x="925.2480620155038" y="1396.5232558139535"/>
      <point x="767.8720930232558" y="1431.1046511627908"/>
      <point x="443.3565891472868" y="1431.1046511627908" type="curve" smooth="yes"/>
      <point x="142.26356589147287" y="1431.1046511627908" type="line"/>
    </contour>
    <contour>
      <point x="283.1317829457364" y="13.422480620155039" type="line"/>
      <point x="283.1317829457364" y="1417.6821705426357" type="line"/>
      <point x="188.2093023255814" y="1335.6937984496124" type="line"/>
      <point x="512.2054263565891" y="1335.6937984496124" type="line" smooth="yes"/>
      <point x="951.7906976744187" y="1335.6937984496124"/>
      <point x="1146.3720930232557" y="1149.2674418604652"/>
      <point x="1146.3720930232557" y="720.1046511627907" type="curve" smooth="yes"/>
      <point x="1146.3720930232557" y="284.31007751937983"/>
      <point x="949.0542635658915" y="95.41085271317829"/>
      <point x="505.6782945736434" y="95.41085271317829" type="curve" smooth="yes"/>
      <point x="188.2093023255814" y="95.41085271317829" type="line"/>
    </contour>
  </outline>
</glyph>
<glyph name="E" format="2">
  <advance width="1105.1899224806202"/>
  <unicode hex="0045"/>
  <note>
E
</note>
  <anchor x="548.3604651162791" y="-8.953488372093023" name="bottom"/>
  <anchor x="834.3914728682171" y="0.0" name="ogonek"/>
  <anchor x="589.8333333333334" y="1430.0" name="top"/>
  <anchor x="-0.2131782945736438" y="1430.0" name="topleft"/>
  <outline>
    <contour>
      <point x="142.26356589147287" y="0.0" type="line"/>
      <point x="991.8217054263566" y="0.0" type="line"/>
      <point x="991.8217054263566" y="95.41085271317829" type="line"/>
      <point x="184.6705426356589" y="95.41085271317829" type="line"/>
      <point x="273.5" y="14.527131782945737" type="line"/>
      <point x="273.5" y="767.6782945736434" type="line"/>
      <point x="197.10077519379846" y="680.531007751938" type="line"/>
      <point x="991.8217054263566" y="680.531007751938" type="line"/>
      <point x="991.8217054263566" y="775.9418604651163" type="line"/>
      <point x="184.6705426356589" y="775.9418604651163" type="line"/>
      <point x="273.5" y="695.0581395348837" type="line"/>
      <point x="273.5" y="1420.1046511627908" type="line"/>
      <point x="181.2093023255814" y="1335.6937984496124" type="line"/>
      <point x="991.8217054263566" y="1335.6937984496124" type="line"/>
      <point x="991.8217054263566" y="1431.1046511627908" type="line"/>
      <point x="142.26356589147287" y="1431.1046511627908" type="line"/>
    </contour>
  </outline>
</glyph>
<glyph name="F" format="2">
  <advance width="1076.1937984496124"/>
  <unicode hex="0046"/>
  <note>
F
</note>
  <anchor x="532.9418604651163" y="-8.953488372093023" name="bottom"/>
  <anchor x="532.9418604651163" y="1430.0" name="top"/>
  <outline>
    <contour>
      <point x="142.26356589147287" y="0.0" type="line"/>
      <point x="273.5" y="0.0" type="line"/>
      <point x="273.5" y="765.2596899224807" type="line"/>
      <point x="193.0" y="677.5852713178294" type="line"/>
      <point x="965.8255813953489" y="677.5852713178294" type="line"/>
      <point x="965.8255813953489" y="772.6279069767442" type="line"/>
      <point x="172.68217054263565" y="772.6279069767442" type="line"/>
      <point x="273.5" y="689.3759689922481" type="line"/>
      <point x="273.5" y="1417.8953488372092" type="line"/>
      <point x="181.2093023255814" y="1335.6937984496124" type="line"/>
      <point x="965.8255813953489" y="1335.6937984496124" type="line"/>
      <point x="965.8255813953489" y="1431.1046511627908" type="line"/>
      <point x="142.26356589147287" y="1431.1046511627908" type="line"/>
    </contour>
  </outline>
</glyph>
<glyph name="G" format="2">
  <advance width="1588.0852713178294"/>
  <unicode hex="0047"/>
  <note>
G
</note>
  <anchor x="792.5697674418604" y="-8.953488372093023" name="bottom"/>
  <anchor x="792.5697674418604" y="1430.0" name="top"/>
  <outline>
    <contour>
      <point x="798.4108527131783" y="-15.523255813953488" type="curve" smooth="yes"/>
      <point x="1185.5116279069766" y="-15.523255813953488"/>
      <point x="1456.453488372093" y="254.8953488372093"/>
      <point x="1480.8217054263566" y="655.1046511627907" type="curve"/>
      <point x="1337.531007751938" y="655.1046511627907" type="line"/>
      <point x="1315.3720930232557" y="314.15503875968994"/>
      <point x="1105.3139534883721" y="88.31007751937985"/>
      <point x="798.0426356589147" y="80.7829457364341" type="curve"/>
      <point x="472.5077519379845" y="89.31007751937985"/>
      <point x="256.1860465116279" y="342.4186046511628"/>
      <point x="256.1860465116279" y="715.5271317829457" type="curve" smooth="yes"/>
      <point x="256.1860465116279" y="1089.0038759689924"/>
      <point x="475.1395348837209" y="1345.4806201550387"/>
      <point x="798.0426356589147" y="1350.375968992248" type="curve"/>
      <point x="1001.6782945736434" y="1347.1124031007753"/>
      <point x="1163.3139534883721" y="1244.8488372093022"/>
      <point x="1255.1589147286822" y="1072.2713178294573" type="curve"/>
      <point x="1406.2403100775193" y="1072.2713178294573" type="line"/>
      <point x="1300.0813953488373" y="1302.108527131783"/>
      <point x="1072.7751937984497" y="1446.6821705426357"/>
      <point x="798.0426356589147" y="1446.6821705426357" type="curve" smooth="yes"/>
      <point x="396.04651162790697" y="1446.6821705426357"/>
      <point x="112.8953488372093" y="1142.422480620155"/>
      <point x="112.8953488372093" y="714.0" type="curve" smooth="yes"/>
      <point x="112.8953488372093" y="281.8953488372093"/>
      <point x="390.83720930232556" y="-15.523255813953488"/>
    </contour>
    <contour>
      <point x="958.7364341085271" y="558.6937984496124" type="line"/>
      <point x="1432.4651162790697" y="558.6937984496124" type="line"/>
      <point x="1432.4651162790697" y="654.1046511627907" type="line"/>
      <point x="958.7364341085271" y="654.1046511627907" type="line"/>
    </contour>
  </outline>
</glyph>
<glyph name="H" format="2">
  <advance width="1498.0387596899225"/>
  <unicode hex="0048"/>
  <note>
H
</note>
  <anchor x="749.5193798449612" y="-8.953488372093023" name="bottom"/>
  <anchor x="749.5193798449612" y="715.0" name="center"/>
  <anchor x="749.5193798449612" y="1430.0" name="top"/>
  <anchor x="-0.2131782945736438" y="1430.0" name="topleft"/>
  <outline>
    <contour>
      <point x="142.26356589147287" y="0.0" type="line"/>
      <point x="276.55426356589146" y="0.0" type="line"/>
      <point x="276.55426356589146" y="765.8333333333334" type="line"/>
      <point x="169.31395348837208" y="684.531007751938" type="line"/>
      <point x="1314.9341085271317" y="684.531007751938" type="line"/>
      <point x="1222.1162790697674" y="765.8333333333334" type="line"/>
      <point x="1222.1162790697674" y="0.0" type="line"/>
      <point x="1355.7751937984497" y="0.0" type="line"/>
      <point x="1355.7751937984497" y="1431.1046511627908" type="line"/>
      <point x="1222.1162790697674" y="1431.1046511627908" type="line"/>
      <point x="1222.1162790697674" y="699.0077519379845" type="line"/>
      <point x="1314.9341085271317" y="780.3100775193799" type="line"/>
      <point x="169.31395348837208" y="780.3100775193799" type="line"/>
      <point x="276.55426356589146" y="699.0077519379845" type="line"/>
      <point x="276.55426356589146" y="1431.1046511627908" type="line"/>
      <point x="142.26356589147287" y="1431.1046511627908" type="line"/>
    </contour>
  </outline>
</glyph>
<glyph name="I" format="2">
  <advance width="415.3953488372093"/>
  <unicode hex="0049"/>
  <note>
I
</note>
  <anchor x="208.19767441860466" y="-8.953488372093023" name="bottom"/>
  <anchor x="215.5077519379845" y="0.0" name="ogonek"/>
  <anchor x="208.19767441860466" y="1430.0" name="top"/>
  <anchor x="-0.5813953488372094" y="1430.0" name="topleft"/>
  <outline>
    <contour>
      <point x="142.26356589147287" y="0.0" type="line"/>
      <point x="273.5" y="0.0" type="line"/>
      <point x="273.5" y="1431.1046511627908" type="line"/>
      <point x="142.26356589147287" y="1431.1046511627908" type="line"/>
    </contour>
  </outline>
</glyph>
<glyph name="J" format="2">
  <advance width="751.0697674418604"/>
  <unicode hex="004A"/>
  <note>
J
</note>
  <anchor x="382.29457364341084" y="-8.953488372093023" name="bottom"/>
  <anchor x="382.29457364341084" y="1430.0" name="top"/>
  <outline>
    <contour>
      <point x="106.63178294573643" y="-66.48062015503876" type="line"/>
      <point x="164.31395348837208" y="-106.84496124031008"/>
      <point x="243.8294573643411" y="-148.1046511627907"/>
      <point x="339.98062015503876" y="-148.1046511627907" type="curve" smooth="yes"/>
      <point x="508.0736434108527" y="-148.1046511627907"/>
      <point x="610.5426356589147" y="-22.589147286821706"/>
      <point x="610.5426356589147" y="197.02713178294573" type="curve" smooth="yes"/>
      <point x="610.5426356589147" y="1431.1046511627908" type="line"/>
      <point x="478.6744186046512" y="1431.1046511627908" type="line"/>
      <point x="478.6744186046512" y="243.61627906976744" type="line" smooth="yes"/>
      <point x="478.6744186046512" y="20.2015503875969"/>
      <point x="439.984496124031" y="-46.85271317829458"/>
      <point x="337.2480620155039" y="-46.85271317829458" type="curve" smooth="yes"/>
      <point x="240.04263565891472" y="-46.85271317829458"/>
      <point x="158.7325581395349" y="11.406976744186046"/>
      <point x="106.63178294573643" y="47.13953488372093" type="curve"/>
    </contour>
  </outline>
</glyph>
<glyph name="K" format="2">
  <advance width="1368.0232558139535"/>
  <unicode hex="004B"/>
  <note>
K
</note>
  <anchor x="671.6240310077519" y="-8.953488372093023" name="bottom"/>
  <anchor x="671.6240310077519" y="1430.0" name="top"/>
  <outline>
    <contour>
      <point x="142.26356589147287" y="0.0" type="line"/>
      <point x="273.5" y="0.0" type="line"/>
      <point x="273.5" y="1431.1046511627908" type="line"/>
      <point x="142.26356589147287" y="1431.1046511627908" type="line"/>
    </contour>
    <contour>
      <point x="252.7093023255814" y="483.8992248062016" type="line"/>
      <point x="1193.1317829457364" y="1431.1046511627908" type="line"/>
      <point x="1065.046511627907" y="1431.1046511627908" type="line"/>
      <point x="219.46511627906978" y="577.2674418604652" type="line"/>
    </contour>
    <contour>
      <point x="1084.2596899224807" y="0.0" type="line"/>
      <point x="1265.1279069767443" y="0.0" type="line"/>
      <point x="554.9147286821706" y="836.6240310077519" type="line"/>
      <point x="457.1434108527132" y="737.6356589147287" type="line"/>
    </contour>
  </outline>
</glyph>
<glyph name="L" format="2">
  <advance width="1065.7093023255813"/>
  <unicode hex="004C"/>
  <note>
L
</note>
  <anchor x="533.0387596899225" y="-8.953488372093023" name="bottom"/>
  <anchor x="199.7248062015504" y="715.0" name="center"/>
  <anchor x="685.6046511627907" y="780.8914728682171" name="dot"/>
  <anchor x="1003.0271317829457" y="10.0" name="ogonek"/>
  <anchor x="335.984496124031" y="1430.0" name="top"/>
  <anchor x="-45.104651162790695" y="1430.0" name="topleft"/>
  <anchor x="755.2441860465117" y="1430.0" name="topright"/>
  <outline>
    <contour>
      <point x="142.26356589147287" y="0.0" type="line"/>
      <point x="960.077519379845" y="0.0" type="line"/>
      <point x="960.077519379845" y="91.72868217054264" type="line"/>
      <point x="183.57751937984497" y="91.72868217054264" type="line"/>
      <point x="278.1317829457364" y="16.1046511627907" type="line"/>
      <point x="278.1317829457364" y="1430.0" type="line"/>
      <point x="142.26356589147287" y="1430.0" type="line"/>
    </contour>
  </outline>
</glyph>
<glyph name="M" format="2">
  <advance width="1692.0852713178294"/>
  <unicode hex="004D"/>
  <note>
M
</note>
  <anchor x="846.0426356589147" y="-8.953488372093023" name="bottom"/>
  <anchor x="846.0426356589147" y="1430.0" name="top"/>
  <outline>
    <contour>
      <point x="142.26356589147287" y="0.0" type="line"/>
      <point x="259.5077519379845" y="0.0" type="line"/>
      <point x="259.5077519379845" y="1361.9186046511627" type="line"/>
      <point x="195.9418604651163" y="1347.5542635658915" type="line"/>
      <point x="840.1511627906976" y="70.27131782945736" type="line"/>
      <point x="1479.5736434108528" y="1363.2829457364342" type="line"/>
      <point x="1420.4263565891472" y="1350.5038759689924" type="line"/>
      <point x="1420.4263565891472" y="0.0" type="line"/>
      <point x="1549.8217054263566" y="0.0" type="line"/>
      <point x="1549.8217054263566" y="1431.1046511627908" type="line"/>
      <point x="1372.6356589147288" y="1431.1046511627908" type="line"/>
      <point x="782.6860465116279" y="240.03875968992247" type="line"/>
      <point x="900.562015503876" y="247.77131782945736" type="line"/>
      <point x="304.72093023255815" y="1431.1046511627908" type="line"/>
      <point x="142.26356589147287" y="1431.1046511627908" type="line"/>
    </contour>
  </outline>
</glyph>
<glyph name="N" format="2">
  <advance width="1538.2558139534883"/>
  <unicode hex="004E"/>
  <note>
N
</note>
  <anchor x="769.6279069767442" y="-8.953488372093023" name="bottom"/>
  <anchor x="769.6279069767442" y="1430.0" name="top"/>
  <outline>
    <contour>
      <point x="144.1046511627907" y="0.0" type="line"/>
      <point x="260.98062015503876" y="0.0" type="line"/>
      <point x="260.98062015503876" y="1314.3527131782946" type="line"/>
      <point x="201.36434108527132" y="1310.7635658914728" type="line"/>
      <point x="1250.1666666666667" y="0.0" type="line"/>
      <point x="1395.9922480620155" y="0.0" type="line"/>
      <point x="1395.9922480620155" y="1431.1046511627908" type="line"/>
      <point x="1278.7480620155038" y="1431.1046511627908" type="line"/>
      <point x="1278.7480620155038" y="95.76356589147287" type="line"/>
      <point x="1324.15503875969" y="135.18604651162792" type="line"/>
      <point x="295.87984496124034" y="1431.1046511627908" type="line"/>
      <point x="142.26356589147287" y="1431.1046511627908" type="line"/>
    </contour>
  </outline>
</glyph>
<glyph name="O" format="2">
  <advance width="1594.9806201550387"/>
  <unicode hex="004F"/>
  <note>
O
</note>
  <anchor x="797.6744186046511" y="-16.686046511627907" name="bottom"/>
  <anchor x="797.6744186046511" y="715.0" name="center"/>
  <anchor x="894.9806201550388" y="0.0" name="ogonek"/>
  <anchor x="797.6744186046511" y="1430.0" name="top"/>
  <anchor x="6.046511627906977" y="1430.0" name="topleft"/>
  <anchor x="1404.5736434108528" y="1430.0" name="topright"/>
  <outline>
    <contour>
      <point x="797.6744186046511" y="-15.523255813953488" type="curve" smooth="yes"/>
      <point x="1204.1434108527133" y="-15.523255813953488"/>
      <point x="1482.0852713178294" y="282.63178294573646"/>
      <point x="1482.0852713178294" y="712.8953488372093" type="curve" smooth="yes"/>
      <point x="1482.0852713178294" y="1144.1589147286822"/>
      <point x="1201.7751937984497" y="1446.6821705426357"/>
      <point x="797.6744186046511" y="1446.6821705426357" type="curve" smooth="yes"/>
      <point x="394.9418604651163" y="1446.6821705426357"/>
      <point x="112.8953488372093" y="1143.1589147286822"/>
      <point x="112.8953488372093" y="712.8953488372093" type="curve" smooth="yes"/>
      <point x="112.8953488372093" y="282.63178294573646"/>
      <point x="391.5736434108527" y="-15.523255813953488"/>
    </contour>
    <contour>
      <point x="797.6744186046511" y="81.15116279069767" type="curve"/>
      <point x="472.5077519379845" y="89.67829457364341"/>
      <point x="256.1860465116279" y="342.78682170542635"/>
      <point x="256.1860465116279" y="715.1589147286821" type="curve" smooth="yes"/>
      <point x="256.1860465116279" y="1088.2674418604652"/>
      <point x="475.1395348837209" y="1345.1124031007753"/>
      <point x="797.6744186046511" y="1350.375968992248" type="curve"/>
      <point x="1120.2093023255813" y="1345.1124031007753"/>
      <point x="1339.1627906976744" y="1088.2674418604652"/>
      <point x="1339.1627906976744" y="715.1589147286821" type="curve" smooth="yes"/>
      <point x="1339.1627906976744" y="342.4186046511628"/>
      <point x="1123.2093023255813" y="89.67829457364341"/>
    </contour>
  </outline>
</glyph>
<glyph name="P" format="2">
  <advance width="1094.7635658914728"/>
  <unicode hex="0050"/>
  <note>
P
</note>
  <anchor x="542.7790697674419" y="-38.41085271317829" name="bottom"/>
  <anchor x="542.7790697674419" y="1430.0" name="top"/>
  <outline>
    <contour>
      <point x="142.26356589147287" y="0.0" type="line"/>
      <point x="271.6589147286822" y="0.0" type="line"/>
      <point x="271.6589147286822" y="646.3720930232558" type="line"/>
      <point x="183.0891472868217" y="574.9573643410853" type="line"/>
      <point x="476.2403100775194" y="574.9573643410853" type="line" smooth="yes"/>
      <point x="633.5581395348837" y="574.9573643410853"/>
      <point x="752.9806201550388" y="606.5891472868217"/>
      <point x="840.3992248062016" y="672.3255813953489" type="curve" smooth="yes"/>
      <point x="933.9767441860465" y="742.5891472868217"/>
      <point x="984.5" y="859.4263565891473"/>
      <point x="984.5" y="1006.7945736434109" type="curve" smooth="yes"/>
      <point x="984.5" y="1138.7945736434108"/>
      <point x="945.5542635658915" y="1242.84496124031"/>
      <point x="869.7131782945736" y="1311.5813953488373" type="curve" smooth="yes"/>
      <point x="779.7170542635658" y="1392.6317829457364"/>
      <point x="648.6124031007752" y="1431.1046511627908"/>
      <point x="468.77131782945736" y="1431.1046511627908" type="curve" smooth="yes"/>
      <point x="142.26356589147287" y="1431.1046511627908" type="line"/>
    </contour>
    <contour>
      <point x="271.6589147286822" y="593.4302325581396" type="line"/>
      <point x="271.6589147286822" y="1416.3682170542636" type="line"/>
      <point x="172.47286821705427" y="1338.2713178294573" type="line"/>
      <point x="431.50387596899225" y="1338.2713178294573" type="line" smooth="yes"/>
      <point x="722.4147286821706" y="1338.2713178294573"/>
      <point x="850.2093023255813" y="1234.062015503876"/>
      <point x="850.2093023255813" y="1001.4806201550388" type="curve" smooth="yes"/>
      <point x="850.2093023255813" y="783.3100775193799"/>
      <point x="726.0968992248062" y="669.6317829457364"/>
      <point x="431.50387596899225" y="669.6317829457364" type="curve" smooth="yes"/>
      <point x="195.0813953488372" y="669.6317829457364" type="line"/>
    </contour>
  </outline>
</glyph>
<glyph name="Q" format="2">
  <advance width="1594.9806201550387"/>
  <unicode hex="0051"/>
  <note>
Q
</note>
  <anchor x="754.7790697674419" y="21.93798449612403" name="bottom"/>
  <anchor x="754.7790697674419" y="1397.2674418604652" name="top"/>
  <anchor x="797.6744186046511" y="747.4722315891472" name="center"/>
  <anchor x="894.9806201550388" y="28.259689922480618" name="ogonek"/>
  <anchor x="6.046511627906977" y="1466.6847732558138" name="topleft"/>
  <anchor x="1404.5736434108528" y="1466.6847732558138" name="topright"/>
  <outline>
    <contour>
      <point x="1013.3023255813954" y="-374.3139534883721" type="curve" smooth="yes"/>
      <point x="1106.608527131783" y="-374.3139534883721"/>
      <point x="1124.2906976744187" y="-366.36821705426354"/>
      <point x="1122.0813953488373" y="-271.9573643410853" type="curve"/>
      <point x="1098.7170542635658" y="-271.9573643410853"/>
      <point x="1074.7209302325582" y="-271.9573643410853"/>
      <point x="1051.3565891472867" y="-271.9573643410853" type="curve" smooth="yes"/>
      <point x="890.3488372093024" y="-271.9573643410853"/>
      <point x="804.7131782945736" y="-223.48062015503876"/>
      <point x="804.7131782945736" y="-134.42248062015503" type="curve" smooth="yes"/>
      <point x="804.7131782945736" y="63.8875968992248" type="line"/>
      <point x="686.4767441860465" y="63.8875968992248" type="line"/>
      <point x="686.4767441860465" y="-140.37209302325581" type="line" smooth="yes"/>
      <point x="686.4767441860465" y="-245.58139534883722"/>
      <point x="749.1589147286821" y="-308.73643410852713"/>
      <point x="803.4147286821706" y="-334.0503875968992" type="curve" smooth="yes"/>
      <point x="864.5697674418604" y="-363.6821705426357"/>
      <point x="917.0426356589147" y="-374.3139534883721"/>
    </contour>
    <component base="O" yScale="1.0058916666666666" yOffset="28.259689922480618"/>
  </outline>
</glyph>
<glyph name="R" format="2">
  <advance width="1148.1317829457364"/>
  <unicode hex="0052"/>
  <note>
R
</note>
  <anchor x="571.6201550387597" y="-8.953488372093023" name="bottom"/>
  <anchor x="571.6201550387597" y="1430.0" name="top"/>
  <outline>
    <contour>
      <point x="142.26356589147287" y="0.0" type="line"/>
      <point x="271.6589147286822" y="0.0" type="line"/>
      <point x="271.6589147286822" y="679.9961240310078" type="line"/>
      <point x="209.9341085271318" y="625.2674418604652" type="line"/>
      <point x="483.0348837209302" y="625.2674418604652" type="line"/>
      <point x="579.7248062015503" y="625.2674418604652" type="line"/>
      <point x="828.1434108527131" y="667.1666666666666"/>
      <point x="984.5" y="779.0077519379845"/>
      <point x="984.5" y="1029.7403100775193" type="curve" smooth="yes"/>
      <point x="984.5" y="1310.108527131783"/>
      <point x="781.2945736434109" y="1431.1046511627908"/>
      <point x="468.77131782945736" y="1431.1046511627908" type="curve" smooth="yes"/>
      <point x="142.26356589147287" y="1431.1046511627908" type="line"/>
    </contour>
    <contour>
      <point x="223.5581395348837" y="718.1007751937984" type="line"/>
      <point x="271.6589147286822" y="660.7945736434109" type="line"/>
      <point x="271.6589147286822" y="1397.0503875968993" type="line"/>
      <point x="185.26356589147287" y="1338.2713178294573" type="line"/>
      <point x="431.50387596899225" y="1338.2713178294573" type="line" smooth="yes"/>
      <point x="722.4147286821706" y="1338.2713178294573"/>
      <point x="850.2093023255813" y="1257.375968992248"/>
      <point x="850.2093023255813" y="1029.5813953488373" type="curve" smooth="yes"/>
      <point x="850.2093023255813" y="803.3100775193799"/>
      <point x="726.0968992248062" y="718.1007751937984"/>
      <point x="431.50387596899225" y="718.1007751937984" type="curve" smooth="yes"/>
    </contour>
    <contour>
      <point x="443.1007751937984" y="625.2674418604652" type="line"/>
      <point x="529.1007751937984" y="625.2674418604652"/>
      <point x="646.4728682170543" y="614.6860465116279"/>
      <point x="709.1007751937984" y="570.2674418604652" type="curve" smooth="yes"/>
      <point x="771.4728682170543" y="525.6860465116279"/>
      <point x="793.7325581395348" y="504.7403100775194"/>
      <point x="858.1007751937984" y="216.21317829457365" type="curve" smooth="yes"/>
      <point x="873.3643410852713" y="145.52713178294573"/>
      <point x="889.3643410852713" y="72.52713178294573"/>
      <point x="904.9961240310078" y="0.0" type="curve"/>
      <point x="1042.8682170542636" y="0.0" type="line"/>
      <point x="1016.2364341085271" y="96.26356589147287"/>
      <point x="989.2364341085271" y="219.8953488372093"/>
      <point x="973.9728682170543" y="291.21317829457365" type="curve" smooth="yes"/>
      <point x="928.6046511627907" y="500.7906976744186"/>
      <point x="885.4496124031008" y="569.7906976744187"/>
      <point x="841.9728682170543" y="612.2674418604652" type="curve" smooth="yes"/>
      <point x="805.8720930232558" y="648.0"/>
      <point x="767.8720930232558" y="662.5813953488372"/>
      <point x="725.1899224806201" y="675.4767441860465" type="curve"/>
    </contour>
  </outline>
</glyph>
<glyph name="S" format="2">
  <advance width="1208.139534883721"/>
  <unicode hex="0053"/>
  <note>
S
</note>
  <anchor x="604.5697674418604" y="-8.953488372093023" name="bottom"/>
  <anchor x="604.5697674418604" y="1430.0" name="top"/>
  <outline>
    <contour>
      <point x="605.937984496124" y="-27.57751937984496" type="curve" smooth="yes"/>
      <point x="943.8798449612403" y="-27.57751937984496"/>
      <point x="1097.875968992248" y="119.63178294573643"/>
      <point x="1097.875968992248" y="402.1007751937984" type="curve" smooth="yes"/>
      <point x="1097.875968992248" y="640.1007751937984"/>
      <point x="885.0813953488372" y="744.9418604651163"/>
      <point x="639.515503875969" y="815.046511627907" type="curve" smooth="yes"/>
      <point x="334.3992248062016" y="906.4728682170543"/>
      <point x="300.9263565891473" y="974.9961240310078"/>
      <point x="300.9263565891473" y="1111.6356589147288" type="curve" smooth="yes"/>
      <point x="300.9263565891473" y="1287.0581395348838"/>
      <point x="442.40697674418607" y="1364.484496124031"/>
      <point x="584.8333333333334" y="1364.484496124031" type="curve" smooth="yes"/>
      <point x="794.6240310077519" y="1364.484496124031"/>
      <point x="930.8992248062016" y="1221.2209302325582"/>
      <point x="930.4263565891473" y="1100.0038759689924" type="curve"/>
      <point x="1067.0348837209303" y="1100.0038759689924" type="line"/>
      <point x="1056.6666666666667" y="1316.5813953488373"/>
      <point x="839.4031007751938" y="1463.3682170542636"/>
      <point x="595.3062015503876" y="1463.3682170542636" type="curve" smooth="yes"/>
      <point x="325.05426356589146" y="1463.3682170542636"/>
      <point x="161.68604651162792" y="1308.2093023255813"/>
      <point x="161.68604651162792" y="1078.0581395348838" type="curve" smooth="yes"/>
      <point x="161.68604651162792" y="873.0581395348837"/>
      <point x="304.6821705426357" y="780.3798449612403"/>
      <point x="574.3100775193799" y="700.8527131782946" type="curve" smooth="yes"/>
      <point x="781.4147286821706" y="639.3255813953489"/>
      <point x="959.5813953488372" y="588.3759689922481"/>
      <point x="959.5813953488372" y="369.47286821705427" type="curve" smooth="yes"/>
      <point x="959.5813953488372" y="192.9418604651163"/>
      <point x="846.0" y="72.77906976744185"/>
      <point x="613.0426356589147" y="72.77906976744185" type="curve" smooth="yes"/>
      <point x="389.4573643410853" y="72.77906976744185"/>
      <point x="264.7170542635659" y="197.4108527131783"/>
      <point x="244.03100775193798" y="411.7906976744186" type="curve"/>
      <point x="106.26356589147287" y="411.7906976744186" type="line"/>
      <point x="124.94961240310077" y="129.41860465116278"/>
      <point x="311.8953488372093" y="-27.57751937984496"/>
    </contour>
  </outline>
</glyph>
<glyph name="T" format="2">
  <advance width="1408.0387596899225"/>
  <unicode hex="0054"/>
  <note>
T
</note>
  <anchor x="704.5193798449612" y="-8.953488372093023" name="bottom"/>
  <anchor x="704.5193798449612" y="715.0" name="center"/>
  <anchor x="704.5193798449612" y="1430.0" name="top"/>
  <outline>
    <contour>
      <point x="637.5852713178294" y="0.0" type="line"/>
      <point x="770.453488372093" y="0.0" type="line"/>
      <point x="770.453488372093" y="1414.422480620155" type="line"/>
      <point x="600.8914728682171" y="1319.860465116279" type="line"/>
      <point x="1302.0387596899225" y="1319.860465116279" type="line"/>
      <point x="1302.0387596899225" y="1431.1046511627908" type="line"/>
      <point x="106.0" y="1431.1046511627908" type="line"/>
      <point x="106.0" y="1319.860465116279" type="line"/>
      <point x="807.1472868217054" y="1319.860465116279" type="line"/>
      <point x="637.5852713178294" y="1414.422480620155" type="line"/>
    </contour>
  </outline>
</glyph>
<glyph name="U" format="2">
  <advance width="1452.0891472868218"/>
  <unicode hex="0055"/>
  <note>
U
</note>
  <anchor x="726.7286821705426" y="-8.953488372093023" name="bottom"/>
  <anchor x="847.8294573643411" y="0.0" name="ogonek"/>
  <anchor x="726.7286821705426" y="1430.0" name="top"/>
  <anchor x="1375.8875968992247" y="1430.0" name="topright"/>
  <outline>
    <contour>
      <point x="725.7286821705426" y="-26.945736434108525" type="curve" smooth="yes"/>
      <point x="1026.6162790697674" y="-26.945736434108525"/>
      <point x="1321.8255813953488" y="219.36821705426357"/>
      <point x="1321.8255813953488" y="559.3217054263566" type="curve" smooth="yes"/>
      <point x="1321.8255813953488" y="1431.1046511627908" type="line"/>
      <point x="1206.4767441860465" y="1431.1046511627908" type="line"/>
      <point x="1205.0038759689924" y="550.8488372093024" type="line" smooth="yes"/>
      <point x="1204.6356589147288" y="269.5736434108527"/>
      <point x="975.2015503875969" y="68.83333333333333"/>
      <point x="725.7286821705426" y="68.83333333333333" type="curve" smooth="yes"/>
      <point x="484.14728682170545" y="68.83333333333333"/>
      <point x="255.60852713178295" y="260.36821705426354"/>
      <point x="255.60852713178295" y="556.3720930232558" type="curve" smooth="yes"/>
      <point x="255.60852713178295" y="1431.1046511627908" type="line"/>
      <point x="130.26356589147287" y="1431.1046511627908" type="line"/>
      <point x="130.26356589147287" y="563.3720930232558" type="line" smooth="yes"/>
      <point x="130.26356589147287" y="220.47286821705427"/>
      <point x="423.73643410852713" y="-26.945736434108525"/>
    </contour>
  </outline>
</glyph>
<glyph name="V" format="2">
  <advance width="1500.4612403100775"/>
  <unicode hex="0056"/>
  <note>
V
</note>
  <anchor x="750.4147286821706" y="-8.953488372093023" name="bottom"/>
  <anchor x="750.4147286821706" y="1430.0" name="top"/>
  <outline>
    <contour>
      <point x="749.4147286821706" y="-34.52713178294574" type="line"/>
      <point x="1396.1976744186047" y="1431.1046511627908" type="line"/>
      <point x="1280.6860465116279" y="1431.1046511627908" type="line"/>
      <point x="711.5193798449612" y="134.49612403100775" type="line"/>
      <point x="801.7751937984497" y="139.27906976744185" type="line"/>
      <point x="236.76356589147287" y="1431.1046511627908" type="line"/>
      <point x="104.26356589147287" y="1431.1046511627908" type="line"/>
    </contour>
  </outline>
</glyph>
<glyph name="W" format="2">
  <advance width="2080.8875968992247"/>
  <unicode hex="0057"/>
  <note>
W
</note>
  <anchor x="1040.6279069767443" y="-8.953488372093023" name="bottom"/>
  <anchor x="1040.6279069767443" y="1430.0" name="top"/>
  <outline>
    <contour>
      <point x="1384.4147286821706" y="-32.68604651162791" type="line"/>
      <point x="1976.624031007752" y="1431.1046511627908" type="line"/>
      <point x="1883.1046511627908" y="1431.1046511627908" type="line"/>
      <point x="1357.4651162790697" y="134.5" type="line"/>
      <point x="1433.9883720930231" y="154.58914728682169" type="line"/>
      <point x="909.8720930232558" y="1431.1046511627908" type="line"/>
      <point x="776.7403100775193" y="1431.1046511627908" type="line"/>
    </contour>
    <contour>
      <point x="710.8333333333334" y="-32.68604651162791" type="line"/>
      <point x="1074.6744186046512" y="865.4186046511628" type="line"/>
      <point x="1030.8333333333333" y="991.7713178294574" type="line"/>
      <point x="682.2519379844962" y="129.6046511627907" type="line"/>
      <point x="761.8798449612403" y="152.3798449612403" type="line"/>
      <point x="237.3953488372093" y="1431.1046511627908" type="line"/>
      <point x="104.26356589147287" y="1431.1046511627908" type="line"/>
    </contour>
    <contour>
      <point x="1093.1472868217054" y="856.2131782945736" type="line"/>
      <point x="1323.8837209302326" y="1431.1046511627908" type="line"/>
      <point x="1229.9961240310076" y="1431.1046511627908" type="line"/>
      <point x="1049.937984496124" y="982.5658914728682" type="line"/>
    </contour>
  </outline>
</glyph>
<glyph name="X" format="2">
  <advance width="1400.391472868217"/>
  <unicode hex="0058"/>
  <note>
X
</note>
  <anchor x="700.1434108527131" y="-8.953488372093023" name="bottom"/>
  <anchor x="700.1434108527131" y="1430.0" name="top"/>
  <outline>
    <contour>
      <point x="1130.9496124031007" y="0.0" type="line"/>
      <point x="1296.1279069767443" y="0.0" type="line"/>
      <point x="301.5503875968992" y="1428.0" type="line"/>
      <point x="135.37209302325581" y="1428.0" type="line"/>
    </contour>
    <contour>
      <point x="107.20930232558139" y="0.0" type="line"/>
      <point x="216.56201550387595" y="0.0" type="line"/>
      <point x="735.9806201550388" y="731.3139534883721" type="line"/>
      <point x="663.8837209302326" y="788.9341085271318" type="line"/>
    </contour>
    <contour>
      <point x="729.5658914728682" y="698.7984496124031" type="line"/>
      <point x="1242.8217054263566" y="1431.1046511627908" type="line"/>
      <point x="1133.8372093023256" y="1431.1046511627908" type="line"/>
      <point x="657.1007751937984" y="756.4186046511628" type="line"/>
    </contour>
  </outline>
</glyph>
<glyph name="Y" format="2">
  <advance width="1306.562015503876"/>
  <unicode hex="0059"/>
  <note>
Y
</note>
  <anchor x="659.937984496124" y="3.682170542635659" name="bottom"/>
  <anchor x="653.0968992248062" y="1430.0" name="top"/>
  <anchor x="-5.368217054263566" y="1430.0" name="topleft"/>
  <outline>
    <contour>
      <point x="595.4767441860465" y="0.0" type="line"/>
      <point x="726.7131782945736" y="0.0" type="line"/>
      <point x="726.7131782945736" y="615.9496124031008" type="line"/>
      <point x="1202.2984496124031" y="1431.1046511627908" type="line"/>
      <point x="1082.8372093023256" y="1431.1046511627908" type="line"/>
      <point x="625.6279069767442" y="630.3875968992248" type="line"/>
      <point x="721.0852713178294" y="662.6240310077519" type="line"/>
      <point x="266.28682170542635" y="1431.1046511627908" type="line"/>
      <point x="103.8953488372093" y="1431.1046511627908" type="line"/>
      <point x="595.4767441860465" y="607.422480620155" type="line"/>
    </contour>
  </outline>
</glyph>
<glyph name="Z" format="2">
  <advance width="1348.9302325581396"/>
  <unicode hex="005A"/>
  <note>
Z
</note>
  <anchor x="674.4651162790698" y="-8.953488372093023" name="bottom"/>
  <anchor x="674.4651162790698" y="715.0" name="center"/>
  <anchor x="674.4651162790698" y="1430.0" name="top"/>
  <outline>
    <contour>
      <point x="103.26356589147287" y="0.0" type="line"/>
      <point x="1209.6666666666667" y="0.0" type="line"/>
      <point x="1207.4031007751937" y="106.45736434108527" type="line"/>
      <point x="227.52325581395348" y="106.45736434108527" type="line"/>
      <point x="259.55426356589146" y="21.8953488372093" type="line"/>
      <point x="1244.6666666666667" y="1431.1046511627908" type="line"/>
      <point x="163.57751937984497" y="1431.1046511627908" type="line"/>
      <point x="163.57751937984497" y="1324.6472868217054" type="line"/>
      <point x="1132.9418604651162" y="1324.6472868217054" type="line"/>
      <point x="1089.2713178294573" y="1409.4728682170542" type="line"/>
    </contour>
  </outline>
</glyph>
<glyph name="bracketright" format="2">
  <advance width="631.8837209302326"/>
  <unicode hex="005D"/>
  <note>
bracketright
</note>
  <outline>
    <contour>
      <point x="103.0" y="-387.26356589147287" type="line"/>
      <point x="494.2519379844961" y="-387.26356589147287" type="line"/>
      <point x="494.2519379844961" y="1461.7364341085272" type="line"/>
      <point x="103.0" y="1461.7364341085272" type="line"/>
      <point x="103.0" y="1348.3798449612402" type="line"/>
      <point x="378.9496124031008" y="1348.3798449612402" type="line"/>
      <point x="378.9496124031008" y="-273.5387596899225" type="line"/>
      <point x="103.0" y="-273.5387596899225" type="line"/>
    </contour>
  </outline>
</glyph>
<glyph name="asciicircum" format="2">
  <advance width="1096.4457364341085"/>
  <unicode hex="005E"/>
  <note>
asciicircum
</note>
  <outline>
    <contour>
      <point x="134.8953488372093" y="813.4806201550388" type="line"/>
      <point x="254.4031007751938" y="813.4806201550388" type="line"/>
      <point x="586.8217054263566" y="1361.2713178294573" type="line"/>
      <point x="512.1511627906976" y="1355.1124031007753" type="line"/>
      <point x="842.0426356589147" y="813.4806201550388" type="line"/>
      <point x="961.5503875968992" y="813.4806201550388" type="line"/>
      <point x="574.8720930232558" y="1449.6860465116279" type="line"/>
      <point x="519.5736434108527" y="1449.6860465116279" type="line"/>
    </contour>
  </outline>
</glyph>
<glyph name="underscore" format="2">
  <advance width="1386.639534883721"/>
  <unicode hex="005F"/>
  <note>
underscore
</note>
  <outline>
    <contour>
      <point x="86.73643410852713" y="-350.9922480620155" type="line"/>
      <point x="1299.9031007751937" y="-350.9922480620155" type="line"/>
      <point x="1299.9031007751937" y="-244.1627906976744" type="line"/>
      <point x="86.73643410852713" y="-244.1627906976744" type="line"/>
    </contour>
  </outline>
</glyph>
<glyph name="a" format="2">
  <advance width="1153.6046511627908"/>
  <unicode hex="0061"/>
  <note>
a
</note>
  <anchor x="555.7286821705426" y="-13.74031007751938" name="bottom"/>
  <anchor x="982.6124031007752" y="0.0" name="ogonek"/>
  <anchor x="565.7286821705426" y="1011.577519379845" name="top"/>
  <outline>
    <contour>
      <point x="536.6782945736434" y="-30.209302325581394" type="curve" smooth="yes"/>
      <point x="751.0426356589147" y="-30.209302325581394"/>
      <point x="900.8333333333334" y="91.15891472868218"/>
      <point x="957.0968992248062" y="316.62790697674416" type="curve"/>
      <point x="919.4186046511628" y="356.72868217054264" type="line"/>
      <point x="909.2596899224807" y="0.0" type="line"/>
      <point x="1043.9728682170542" y="0.0" type="line"/>
      <point x="1043.9728682170542" y="994.0503875968992" type="line"/>
      <point x="909.5232558139535" y="994.0503875968992" type="line"/>
      <point x="909.5232558139535" y="617.4263565891473" type="line"/>
      <point x="957.6240310077519" y="650.7906976744187" type="line"/>
      <point x="900.2015503875969" y="887.0503875968992"/>
      <point x="747.937984496124" y="1020.4186046511628"/>
      <point x="534.9418604651163" y="1020.4186046511628" type="curve" smooth="yes"/>
      <point x="268.2093023255814" y="1020.4186046511628"/>
      <point x="84.26356589147287" y="800.7868217054264"/>
      <point x="84.26356589147287" y="483.8410852713178" type="curve" smooth="yes"/>
      <point x="84.26356589147287" y="174.8953488372093"/>
      <point x="263.3139534883721" y="-30.209302325581394"/>
    </contour>
    <contour>
      <point x="549.1472868217054" y="70.3062015503876" type="curve" smooth="yes"/>
      <point x="335.6666666666667" y="70.3062015503876"/>
      <point x="211.50387596899225" y="222.99612403100775"/>
      <point x="211.50387596899225" y="493.1046511627907" type="curve" smooth="yes"/>
      <point x="211.50387596899225" y="763.8449612403101"/>
      <point x="336.2984496124031" y="919.5348837209302"/>
      <point x="547.4108527131783" y="919.5348837209302" type="curve" smooth="yes"/>
      <point x="760.1550387596899" y="919.5348837209302"/>
      <point x="900.7906976744187" y="743.4806201550388"/>
      <point x="900.7906976744187" y="483.1046511627907" type="curve" smooth="yes"/>
      <point x="900.7906976744187" y="231.46511627906978"/>
      <point x="765.1550387596899" y="70.3062015503876"/>
    </contour>
  </outline>
</glyph>
<glyph name="b" format="2">
  <advance width="1155.3410852713178"/>
  <unicode hex="0062"/>
  <note>
b
</note>
  <anchor x="580.4069767441861" y="-5.6395348837209305" name="bottom"/>
  <anchor x="580.4069767441861" y="1515.4728682170542" name="top"/>
  <outline>
    <contour>
      <point x="618.6627906976744" y="-28.73643410852713" type="curve" smooth="yes"/>
      <point x="891.0271317829457" y="-28.73643410852713"/>
      <point x="1071.077519379845" y="175.36821705426357"/>
      <point x="1071.077519379845" y="484.57751937984494" type="curve" smooth="yes"/>
      <point x="1071.077519379845" y="801.7868217054264"/>
      <point x="888.1317829457364" y="1020.4186046511628"/>
      <point x="620.3992248062016" y="1020.4186046511628" type="curve" smooth="yes"/>
      <point x="408.4031007751938" y="1020.4186046511628"/>
      <point x="253.5077519379845" y="885.4186046511628"/>
      <point x="196.7170542635659" y="650.5271317829457" type="curve"/>
      <point x="245.81782945736433" y="617.4263565891473" type="line"/>
      <point x="245.81782945736433" y="1515.4728682170542" type="line"/>
      <point x="115.26356589147287" y="1515.4728682170542" type="line"/>
      <point x="115.26356589147287" y="0.0" type="line"/>
      <point x="244.0813953488372" y="0.0" type="line"/>
      <point x="244.0813953488372" y="355.72868217054264" type="line"/>
      <point x="195.6124031007752" y="321.99612403100775" type="line"/>
      <point x="252.87596899224806" y="94.63178294573643"/>
      <point x="401.0348837209302" y="-28.73643410852713"/>
    </contour>
    <contour>
      <point x="606.1937984496124" y="71.41085271317829" type="curve" smooth="yes"/>
      <point x="390.8178294573643" y="71.41085271317829"/>
      <point x="255.18217054263567" y="233.56976744186045"/>
      <point x="255.18217054263567" y="484.2093023255814" type="curve" smooth="yes"/>
      <point x="255.18217054263567" y="745.8488372093024"/>
      <point x="395.8178294573643" y="920.9031007751938"/>
      <point x="607.9302325581396" y="920.9031007751938" type="curve" smooth="yes"/>
      <point x="818.0426356589147" y="920.9031007751938"/>
      <point x="943.8372093023256" y="764.5813953488372"/>
      <point x="943.8372093023256" y="493.8410852713178" type="curve" smooth="yes"/>
      <point x="943.8372093023256" y="224.10077519379846"/>
      <point x="819.6744186046511" y="71.41085271317829"/>
    </contour>
  </outline>
</glyph>
<glyph name="c" format="2">
  <advance width="959.9302325581396"/>
  <unicode hex="0063"/>
  <note>
c
</note>
  <anchor x="480.4651162790698" y="-3.3139534883720927" name="bottom"/>
  <anchor x="570.4651162790698" y="1011.577519379845" name="top"/>
  <outline>
    <contour>
      <point x="578.8875968992248" y="-30.209302325581394" type="curve" smooth="yes"/>
      <point x="689.2519379844962" y="-30.209302325581394"/>
      <point x="786.8798449612403" y="-1.0"/>
      <point x="875.562015503876" y="59.627906976744185" type="curve"/>
      <point x="875.562015503876" y="191.19767441860466" type="line"/>
      <point x="803.9341085271318" y="118.25193798449612"/>
      <point x="690.3062015503876" y="69.93798449612403"/>
      <point x="581.8333333333334" y="69.93798449612403" type="curve" smooth="yes"/>
      <point x="366.51162790697674" y="69.93798449612403"/>
      <point x="216.71317829457365" y="244.36434108527132"/>
      <point x="216.71317829457365" y="499.26356589147287" type="curve" smooth="yes"/>
      <point x="216.71317829457365" y="749.5813953488372"/>
      <point x="367.51162790697674" y="919.9031007751938"/>
      <point x="582.4651162790698" y="919.9031007751938" type="curve" smooth="yes"/>
      <point x="689.0426356589147" y="919.9031007751938"/>
      <point x="805.5658914728682" y="872.5891472868217"/>
      <point x="874.562015503876" y="800.6434108527131" type="curve"/>
      <point x="874.562015503876" y="930.2131782945736" type="line"/>
      <point x="785.2480620155038" y="990.8410852713179"/>
      <point x="685.2519379844962" y="1020.4186046511628"/>
      <point x="578.2558139534883" y="1020.4186046511628" type="curve" smooth="yes"/>
      <point x="325.6860465116279" y="1020.4186046511628"/>
      <point x="84.26356589147287" y="837.8449612403101"/>
      <point x="84.26356589147287" y="498.63178294573646" type="curve" smooth="yes"/>
      <point x="84.26356589147287" y="150.52325581395348"/>
      <point x="325.05426356589146" y="-30.209302325581394"/>
    </contour>
  </outline>
</glyph>
<glyph name="d" format="2">
  <advance width="1154.9728682170542"/>
  <unicode hex="0064"/>
  <note>
d
</note>
  <anchor x="559.2480620155038" y="-5.6395348837209305" name="bottom"/>
  <anchor x="973.2480620155038" y="1323.3139534883721" name="center"/>
  <anchor x="575.9341085271318" y="1515.4728682170542" name="top"/>
  <anchor x="1243.562015503876" y="1515.4728682170542" name="topright"/>
  <outline>
    <contour>
      <point x="536.6782945736434" y="-28.73643410852713" type="curve" smooth="yes"/>
      <point x="753.3062015503876" y="-28.73643410852713"/>
      <point x="903.4651162790698" y="88.73643410852713"/>
      <point x="960.7286821705426" y="318.1007751937984" type="curve"/>
      <point x="910.8914728682171" y="350.8333333333333" type="line"/>
      <point x="910.8914728682171" y="0.0" type="line"/>
      <point x="1039.7093023255813" y="0.0" type="line"/>
      <point x="1039.7093023255813" y="1515.4728682170542" type="line"/>
      <point x="910.5232558139535" y="1515.4728682170542" type="line"/>
      <point x="910.5232558139535" y="616.7945736434109" type="line"/>
      <point x="958.6240310077519" y="648.8953488372093" type="line"/>
      <point x="901.8333333333334" y="887.4186046511628"/>
      <point x="747.937984496124" y="1022.6821705426356"/>
      <point x="534.9418604651163" y="1022.6821705426356" type="curve" smooth="yes"/>
      <point x="268.2093023255814" y="1022.6821705426356"/>
      <point x="84.26356589147287" y="805.4186046511628"/>
      <point x="84.26356589147287" y="486.2093023255814" type="curve" smooth="yes"/>
      <point x="84.26356589147287" y="173.73643410852713"/>
      <point x="264.3139534883721" y="-28.73643410852713"/>
    </contour>
    <contour>
      <point x="549.1472868217054" y="72.41085271317829" type="curve" smooth="yes"/>
      <point x="335.6666666666667" y="72.41085271317829"/>
      <point x="211.50387596899225" y="221.8372093023256"/>
      <point x="211.50387596899225" y="494.47286821705427" type="curve" smooth="yes"/>
      <point x="211.50387596899225" y="769.4767441860465"/>
      <point x="336.2984496124031" y="921.5348837209302"/>
      <point x="547.4108527131783" y="921.5348837209302" type="curve" smooth="yes"/>
      <point x="761.1550387596899" y="921.5348837209302"/>
      <point x="900.7906976744187" y="744.2170542635658"/>
      <point x="900.7906976744187" y="480.57751937984494" type="curve" smooth="yes"/>
      <point x="900.7906976744187" y="227.67441860465115"/>
      <point x="765.1550387596899" y="72.41085271317829"/>
    </contour>
  </outline>
</glyph>
<glyph name="e" format="2">
  <advance width="1082.7170542635658"/>
  <unicode hex="0065"/>
  <note>
e
</note>
  <anchor x="541.6744186046511" y="-21.472868217054263" name="bottom"/>
  <anchor x="695.1434108527131" y="10.0" name="ogonek"/>
  <anchor x="541.6744186046511" y="1011.577519379845" name="top"/>
  <outline>
    <contour>
      <point x="545.7790697674419" y="-30.209302325581394" type="curve" smooth="yes"/>
      <point x="766.3527131782946" y="-30.209302325581394"/>
      <point x="924.0348837209302" y="95.42248062015504"/>
      <point x="984.8759689922481" y="316.21317829457365" type="curve"/>
      <point x="868.7364341085271" y="316.21317829457365" type="line"/>
      <point x="829.8914728682171" y="167.9922480620155"/>
      <point x="707.4147286821706" y="69.93798449612403"/>
      <point x="548.8837209302326" y="69.93798449612403" type="curve" smooth="yes"/>
      <point x="339.72093023255815" y="69.93798449612403"/>
      <point x="220.34496124031008" y="238.6201550387597"/>
      <point x="220.34496124031008" y="492.1046511627907" type="curve" smooth="yes"/>
      <point x="220.34496124031008" y="751.8488372093024"/>
      <point x="346.1395348837209" y="920.5348837209302"/>
      <point x="545.7790697674419" y="920.5348837209302" type="curve" smooth="yes"/>
      <point x="734.6821705426356" y="920.5348837209302"/>
      <point x="859.7945736434109" y="770.4263565891473"/>
      <point x="879.7945736434109" y="515.0038759689922" type="curve"/>
      <point x="1003.453488372093" y="515.0038759689922" type="line"/>
      <point x="984.1395348837209" y="826.4186046511628"/>
      <point x="807.0891472868217" y="1020.4186046511628"/>
      <point x="544.6744186046511" y="1020.4186046511628" type="curve" smooth="yes"/>
      <point x="270.0503875968992" y="1020.4186046511628"/>
      <point x="84.26356589147287" y="801.5232558139535"/>
      <point x="84.26356589147287" y="485.3139534883721" type="curve" smooth="yes"/>
      <point x="84.26356589147287" y="176.63178294573643"/>
      <point x="265.6821705426357" y="-30.209302325581394"/>
    </contour>
    <contour>
      <point x="174.86821705426357" y="514.6356589147287" type="line"/>
      <point x="967.7209302325581" y="515.0038759689922" type="line"/>
      <point x="965.0891472868217" y="604.3643410852713" type="line"/>
      <point x="162.7170542635659" y="604.3643410852713" type="line"/>
    </contour>
  </outline>
</glyph>
<glyph name="f" format="2">
  <advance width="722.2209302325581"/>
  <unicode hex="0066"/>
  <note>
f
</note>
  <anchor x="361.29457364341084" y="-5.6395348837209305" name="bottom"/>
  <anchor x="361.29457364341084" y="1515.4728682170542" name="top"/>
  <outline>
    <contour>
      <point x="282.8410852713178" y="0.0" type="line"/>
      <point x="411.6589147286822" y="0.0" type="line"/>
      <point x="411.6589147286822" y="1093.2751937984497" type="line" smooth="yes"/>
      <point x="411.6589147286822" y="1340.0736434108528"/>
      <point x="409.35271317829455" y="1434.5348837209303"/>
      <point x="507.29457364341084" y="1434.5348837209303" type="curve" smooth="yes"/>
      <point x="561.0852713178294" y="1434.5348837209303"/>
      <point x="602.5542635658915" y="1415.4806201550387"/>
      <point x="602.5542635658915" y="1369.2209302325582" type="curve" smooth="yes"/>
      <point x="602.5542635658915" y="1351.484496124031"/>
      <point x="596.922480620155" y="1328.7480620155038"/>
      <point x="590.1860465116279" y="1306.3294573643411" type="curve"/>
      <point x="691.2790697674418" y="1306.3294573643411" type="line"/>
      <point x="697.7519379844962" y="1317.6434108527133"/>
      <point x="707.3837209302326" y="1351.1666666666667"/>
      <point x="707.3837209302326" y="1381.2713178294573" type="curve" smooth="yes"/>
      <point x="707.3837209302326" y="1475.1046511627908"/>
      <point x="607.7093023255813" y="1538.2596899224807"/>
      <point x="494.1395348837209" y="1538.2596899224807" type="curve" smooth="yes"/>
      <point x="295.30232558139534" y="1538.2596899224807"/>
      <point x="282.8410852713178" y="1331.515503875969"/>
      <point x="282.8410852713178" y="1110.6860465116279" type="curve" smooth="yes"/>
    </contour>
    <contour>
      <point x="77.0" y="884.3294573643411" type="line"/>
      <point x="624.968992248062" y="884.3294573643411" type="line"/>
      <point x="624.968992248062" y="982.8449612403101" type="line"/>
      <point x="77.0" y="982.8449612403101" type="line"/>
    </contour>
  </outline>
</glyph>
<glyph name="g" format="2">
  <advance width="1140.5503875968993"/>
  <unicode hex="0067"/>
  <note>
g
</note>
  <anchor x="569.7751937984497" y="-531.6395348837209" name="bottom"/>
  <anchor x="550.7248062015503" y="1011.577519379845" name="top"/>
  <outline>
    <contour>
      <point x="541.4573643410853" y="-561.6821705426356" type="curve" smooth="yes"/>
      <point x="873.7131782945736" y="-561.6821705426356"/>
      <point x="1027.2868217054263" y="-337.5813953488372"/>
      <point x="1027.2868217054263" y="104.25968992248062" type="curve" smooth="yes"/>
      <point x="1027.2868217054263" y="994.0503875968992" type="line"/>
      <point x="893.8372093023256" y="994.0503875968992" type="line"/>
      <point x="893.8372093023256" y="659.3100775193799" type="line"/>
      <point x="925.2558139534883" y="706.9922480620155" type="line"/>
      <point x="858.5193798449612" y="908.8372093023256"/>
      <point x="717.6240310077519" y="1020.4186046511628"/>
      <point x="526.4147286821706" y="1020.4186046511628" type="curve" smooth="yes"/>
      <point x="263.94573643410854" y="1020.4186046511628"/>
      <point x="84.26356589147287" y="800.7868217054264"/>
      <point x="84.26356589147287" y="483.8410852713178" type="curve" smooth="yes"/>
      <point x="84.26356589147287" y="173.8953488372093"/>
      <point x="260.4186046511628" y="-30.57751937984496"/>
      <point x="528.5193798449612" y="-30.57751937984496" type="curve" smooth="yes"/>
      <point x="728.2558139534883" y="-30.57751937984496"/>
      <point x="870.046511627907" y="96.95348837209302"/>
      <point x="930.8875968992248" y="282.48062015503876" type="curve"/>
      <point x="902.7325581395348" y="329.79457364341084" type="line"/>
      <point x="895.2054263565891" y="65.36821705426357" type="line"/>
      <point x="895.2054263565891" y="-294.06201550387595"/>
      <point x="771.7286821705426" y="-462.1666666666667"/>
      <point x="523.6162790697674" y="-462.1666666666667" type="curve" smooth="yes"/>
      <point x="338.2984496124031" y="-462.1666666666667"/>
      <point x="224.76356589147287" y="-381.4263565891473"/>
      <point x="205.81782945736433" y="-261.7403100775194" type="curve"/>
      <point x="87.31395348837209" y="-261.7403100775194" type="line"/>
      <point x="130.25581395348837" y="-457.0503875968992"/>
      <point x="302.51937984496124" y="-561.6821705426356"/>
    </contour>
    <contour>
      <point x="538.7790697674419" y="69.93798449612403" type="curve" smooth="yes"/>
      <point x="330.6666666666667" y="69.93798449612403"/>
      <point x="211.87209302325581" y="221.36434108527132"/>
      <point x="211.87209302325581" y="493.1046511627907" type="curve" smooth="yes"/>
      <point x="211.87209302325581" y="764.8449612403101"/>
      <point x="333.2984496124031" y="920.5348837209302"/>
      <point x="537.0426356589147" y="920.5348837209302" type="curve" smooth="yes"/>
      <point x="743.4186046511628" y="920.5348837209302"/>
      <point x="880.0542635658915" y="745.4806201550388"/>
      <point x="880.0542635658915" y="483.1046511627907" type="curve" smooth="yes"/>
      <point x="880.0542635658915" y="232.46511627906978"/>
      <point x="747.7868217054264" y="69.93798449612403"/>
    </contour>
  </outline>
</glyph>
<glyph name="h" format="2">
  <advance width="1045.5542635658915"/>
  <unicode hex="0068"/>
  <note>
h
</note>
  <anchor x="522.3565891472869" y="0.0" name="bottom"/>
  <anchor x="184.6705426356589" y="1323.3139534883721" name="center"/>
  <anchor x="522.3565891472869" y="1515.4728682170542" name="top"/>
  <outline>
    <contour>
      <point x="115.26356589147287" y="0.0" type="line"/>
      <point x="247.65891472868216" y="0.0" type="line"/>
      <point x="247.65891472868216" y="573.577519379845" type="line" smooth="yes"/>
      <point x="247.65891472868216" y="781.2713178294574"/>
      <point x="364.9263565891473" y="919.1666666666666"/>
      <point x="549.7248062015503" y="919.1666666666666" type="curve" smooth="yes"/>
      <point x="731.2093023255813" y="919.1666666666666"/>
      <point x="813.5271317829457" y="815.5852713178294"/>
      <point x="813.5271317829457" y="574.1085271317829" type="curve" smooth="yes"/>
      <point x="813.5271317829457" y="0.0" type="line"/>
      <point x="945.922480620155" y="0.0" type="line"/>
      <point x="945.922480620155" y="594.1007751937984" type="line" smooth="yes"/>
      <point x="945.922480620155" y="875.4728682170543"/>
      <point x="821.2945736434109" y="1020.0503875968992"/>
      <point x="576.2441860465117" y="1020.0503875968992" type="curve" smooth="yes"/>
      <point x="375.8759689922481" y="1020.0503875968992"/>
      <point x="247.13565891472868" y="903.468992248062"/>
      <point x="210.98062015503876" y="665.1550387596899" type="curve"/>
      <point x="246.92248062015503" y="630.968992248062" type="line"/>
      <point x="247.65891472868216" y="1515.4728682170542" type="line"/>
      <point x="115.26356589147287" y="1515.4728682170542" type="line"/>
    </contour>
  </outline>
</glyph>
<glyph name="k" format="2">
  <advance width="1026.4922480620155"/>
  <unicode hex="006B"/>
  <note>
k
</note>
  <anchor x="474.3992248062016" y="0.0" name="bottom"/>
  <anchor x="516.2984496124031" y="1515.4728682170542" name="top"/>
  <outline>
    <contour>
      <point x="115.26356589147287" y="0.0" type="line"/>
      <point x="245.0813953488372" y="0.0" type="line"/>
      <point x="245.0813953488372" y="1515.4728682170542" type="line"/>
      <point x="115.26356589147287" y="1515.4728682170542" type="line"/>
    </contour>
    <contour>
      <point x="780.6201550387597" y="0.0" type="line"/>
      <point x="953.2286821705426" y="0.0" type="line"/>
      <point x="386.5387596899225" y="626.0503875968992" type="line"/>
      <point x="301.44573643410854" y="524.3294573643411" type="line"/>
    </contour>
    <contour>
      <point x="226.4031007751938" y="370.9108527131783" type="line"/>
      <point x="857.2829457364342" y="994.0503875968992" type="line"/>
      <point x="708.5116279069767" y="994.0503875968992" type="line"/>
      <point x="184.28682170542635" y="475.82945736434107" type="line"/>
    </contour>
  </outline>
</glyph>
<glyph name="l" format="2">
  <advance width="357.71317829457365"/>
  <unicode hex="006C"/>
  <note>
l
</note>
  <anchor x="103.1937984496124" y="0.0" name="bottom"/>
  <anchor x="184.25193798449612" y="790.2093023255813" name="center"/>
  <anchor x="504.3837209302326" y="790.2093023255813" name="dot"/>
  <anchor x="253.30232558139534" y="1512.8953488372092" name="top"/>
  <anchor x="359.50387596899225" y="1478.7906976744187" name="topright"/>
  <outline>
    <contour>
      <point x="115.26356589147287" y="0.0" type="line"/>
      <point x="242.4496124031008" y="0.0" type="line"/>
      <point x="242.4496124031008" y="1515.4728682170542" type="line"/>
      <point x="115.26356589147287" y="1515.4728682170542" type="line"/>
    </contour>
  </outline>
</glyph>
<glyph name="m" format="2">
  <advance width="1756.9302325581396"/>
  <unicode hex="006D"/>
  <note>
m
</note>
  <anchor x="878.4651162790698" y="0.0" name="bottom"/>
  <anchor x="878.4651162790698" y="1011.577519379845" name="top"/>
  <outline>
    <contour>
      <point x="109.26356589147287" y="0.0" type="line"/>
      <point x="240.92248062015503" y="0.0" type="line"/>
      <point x="240.92248062015503" y="573.577519379845" type="line" smooth="yes"/>
      <point x="240.92248062015503" y="783.5348837209302"/>
      <point x="365.3488372093023" y="920.1666666666666"/>
      <point x="569.7286821705426" y="920.1666666666666" type="curve" smooth="yes"/>
      <point x="743.3178294573644" y="920.1666666666666"/>
      <point x="819.2674418604652" y="830.6395348837209"/>
      <point x="819.2674418604652" y="617.0077519379845" type="curve" smooth="yes"/>
      <point x="819.2674418604652" y="0.0" type="line"/>
      <point x="950.9263565891473" y="0.0" type="line"/>
      <point x="950.9263565891473" y="573.577519379845" type="line" smooth="yes"/>
      <point x="950.9263565891473" y="784.5348837209302"/>
      <point x="1070.984496124031" y="917.5348837209302"/>
      <point x="1275.7325581395348" y="917.5348837209302" type="curve" smooth="yes"/>
      <point x="1448.953488372093" y="917.5348837209302"/>
      <point x="1524.0077519379845" y="830.0077519379845"/>
      <point x="1524.0077519379845" y="617.0077519379845" type="curve" smooth="yes"/>
      <point x="1524.0077519379845" y="1.0" type="line"/>
      <point x="1655.6666666666667" y="1.0" type="line"/>
      <point x="1655.6666666666667" y="654.6860465116279" type="line" smooth="yes"/>
      <point x="1655.6666666666667" y="893.5271317829457"/>
      <point x="1534.9341085271317" y="1020.4186046511628"/>
      <point x="1304.1472868217054" y="1020.4186046511628" type="curve" smooth="yes"/>
      <point x="1077.0387596899225" y="1020.4186046511628"/>
      <point x="937.8759689922481" y="902.2054263565891"/>
      <point x="905.7209302325581" y="676.6821705426356" type="curve"/>
      <point x="945.0852713178294" y="681.3100775193799" type="line"/>
      <point x="933.6666666666666" y="907.0503875968992"/>
      <point x="817.5116279069767" y="1020.4186046511628"/>
      <point x="598.1434108527131" y="1020.4186046511628" type="curve" smooth="yes"/>
      <point x="387.98062015503876" y="1020.4186046511628"/>
      <point x="253.4496124031008" y="916.4147286821706"/>
      <point x="212.39922480620154" y="720.8333333333334" type="curve"/>
      <point x="240.55426356589146" y="673.7286821705426" type="line"/>
      <point x="240.92248062015503" y="994.0503875968992" type="line"/>
      <point x="109.26356589147287" y="994.0503875968992" type="line"/>
    </contour>
  </outline>
</glyph>
<glyph name="n" format="2">
  <advance width="1040.1860465116279"/>
  <unicode hex="006E"/>
  <note>
n
</note>
  <anchor x="518.9883720930233" y="0.0" name="bottom"/>
  <anchor x="518.9883720930233" y="1011.577519379845" name="top"/>
  <outline>
    <contour>
      <point x="108.63178294573643" y="0.0" type="line"/>
      <point x="241.65891472868216" y="0.0" type="line"/>
      <point x="241.65891472868216" y="573.577519379845" type="line" smooth="yes"/>
      <point x="241.65891472868216" y="781.2713178294574"/>
      <point x="358.9263565891473" y="917.9031007751938"/>
      <point x="544.7248062015503" y="917.9031007751938" type="curve" smooth="yes"/>
      <point x="725.2093023255813" y="917.9031007751938"/>
      <point x="807.5271317829457" y="815.5852713178294"/>
      <point x="807.5271317829457" y="574.1085271317829" type="curve" smooth="yes"/>
      <point x="807.5271317829457" y="0.0" type="line"/>
      <point x="940.5542635658915" y="0.0" type="line"/>
      <point x="940.5542635658915" y="594.7325581395348" type="line" smooth="yes"/>
      <point x="940.5542635658915" y="875.4728682170543"/>
      <point x="815.2945736434109" y="1020.4186046511628"/>
      <point x="570.2441860465117" y="1020.4186046511628" type="curve" smooth="yes"/>
      <point x="361.3488372093023" y="1020.4186046511628"/>
      <point x="228.71317829457365" y="892.6782945736434"/>
      <point x="204.98062015503876" y="666.1550387596899" type="curve"/>
      <point x="240.92248062015503" y="629.3372093023256" type="line"/>
      <point x="241.65891472868216" y="994.0503875968992" type="line"/>
      <point x="108.63178294573643" y="994.0503875968992" type="line"/>
    </contour>
  </outline>
</glyph>
<glyph name="o" format="2">
  <advance width="1103.1899224806202"/>
  <unicode hex="006F"/>
  <note>
o
</note>
  <anchor x="551.7790697674419" y="-13.74031007751938" name="bottom"/>
  <anchor x="551.7790697674419" y="496.1046511627907" name="center"/>
  <anchor x="674.1434108527131" y="0.0" name="ogonek"/>
  <anchor x="551.7790697674419" y="1011.577519379845" name="top"/>
  <anchor x="1103.1899224806202" y="991.577519379845" name="topright"/>
  <outline>
    <contour>
      <point x="550.7790697674419" y="-30.209302325581394" type="curve" smooth="yes"/>
      <point x="831.6666666666666" y="-30.209302325581394"/>
      <point x="1018.9263565891473" y="177.15891472868216"/>
      <point x="1018.9263565891473" y="484.2093023255814" type="curve" smooth="yes"/>
      <point x="1018.9263565891473" y="796.5232558139535"/>
      <point x="825.6666666666666" y="1020.4186046511628"/>
      <point x="550.7790697674419" y="1020.4186046511628" type="curve" smooth="yes"/>
      <point x="276.5232558139535" y="1020.4186046511628"/>
      <point x="84.26356589147287" y="797.1550387596899"/>
      <point x="84.26356589147287" y="484.2093023255814" type="curve" smooth="yes"/>
      <point x="84.26356589147287" y="176.52713178294573"/>
      <point x="270.8914728682171" y="-30.209302325581394"/>
    </contour>
    <contour>
      <point x="550.7790697674419" y="70.93798449612403" type="curve" smooth="yes"/>
      <point x="352.7170542635659" y="70.93798449612403"/>
      <point x="226.55426356589146" y="234.25581395348837"/>
      <point x="226.55426356589146" y="491.73643410852713" type="curve" smooth="yes"/>
      <point x="226.55426356589146" y="746.953488372093"/>
      <point x="356.98062015503876" y="920.2713178294574"/>
      <point x="550.7790697674419" y="920.2713178294574" type="curve" smooth="yes"/>
      <point x="743.9457364341085" y="920.2713178294574"/>
      <point x="875.3720930232558" y="741.5852713178294"/>
      <point x="875.3720930232558" y="484.2093023255814" type="curve" smooth="yes"/>
      <point x="875.3720930232558" y="229.72868217054264"/>
      <point x="751.4728682170543" y="70.93798449612403"/>
    </contour>
  </outline>
</glyph>
<glyph name="p" format="2">
  <advance width="1138.2868217054263"/>
  <unicode hex="0070"/>
  <note>
p
</note>
  <anchor x="570.2480620155038" y="-5.6395348837209305" name="bottom"/>
  <anchor x="570.2480620155038" y="991.577519379845" name="top"/>
  <outline>
    <contour>
      <point x="115.26356589147287" y="-526.0" type="line"/>
      <point x="245.81782945736433" y="-526.0" type="line"/>
      <point x="245.81782945736433" y="375.7829457364341" type="line"/>
      <point x="197.34883720930233" y="342.6821705426357" type="line"/>
      <point x="252.5077519379845" y="107.79069767441861"/>
      <point x="404.1395348837209" y="-27.209302325581394"/>
      <point x="611.8720930232558" y="-27.209302325581394" type="curve" smooth="yes"/>
      <point x="875.3410852713179" y="-27.209302325581394"/>
      <point x="1054.0232558139535" y="192.42248062015503"/>
      <point x="1054.0232558139535" y="508.63178294573646" type="curve" smooth="yes"/>
      <point x="1054.0232558139535" y="817.577519379845"/>
      <point x="878.2364341085271" y="1020.4186046511628"/>
      <point x="610.1356589147287" y="1020.4186046511628" type="curve" smooth="yes"/>
      <point x="397.77131782945736" y="1020.4186046511628"/>
      <point x="251.87596899224806" y="899.3139534883721"/>
      <point x="196.24418604651163" y="672.5813953488372" type="curve"/>
      <point x="244.0813953488372" y="639.2170542635658" type="line"/>
      <point x="244.0813953488372" y="994.0503875968992" type="line"/>
      <point x="115.26356589147287" y="994.0503875968992" type="line"/>
    </contour>
    <contour>
      <point x="599.4031007751938" y="73.3062015503876" type="curve" smooth="yes"/>
      <point x="392.55426356589146" y="73.3062015503876"/>
      <point x="255.18217054263567" y="248.36046511627907"/>
      <point x="255.18217054263567" y="509.36821705426354" type="curve" smooth="yes"/>
      <point x="255.18217054263567" y="761.3759689922481"/>
      <point x="387.55426356589146" y="920.9031007751938"/>
      <point x="597.6666666666666" y="920.9031007751938" type="curve" smooth="yes"/>
      <point x="806.2519379844962" y="920.9031007751938"/>
      <point x="926.7829457364342" y="771.4767441860465"/>
      <point x="926.7829457364342" y="499.73643410852713" type="curve" smooth="yes"/>
      <point x="926.7829457364342" y="227.99612403100775"/>
      <point x="805.6201550387597" y="73.3062015503876"/>
    </contour>
  </outline>
</glyph>
<glyph name="q" format="2">
  <advance width="1132.65503875969"/>
  <unicode hex="0071"/>
  <note>
q
</note>
  <anchor x="568.7751937984497" y="-5.6395348837209305" name="bottom"/>
  <anchor x="568.7751937984497" y="991.577519379845" name="top"/>
  <outline>
    <contour>
      <point x="893.468992248062" y="-526.0" type="line"/>
      <point x="1023.0232558139535" y="-526.0" type="line"/>
      <point x="1023.0232558139535" y="994.0503875968992" type="line"/>
      <point x="894.2054263565891" y="994.0503875968992" type="line"/>
      <point x="894.2054263565891" y="638.4806201550388" type="line"/>
      <point x="943.0426356589147" y="671.2131782945736" type="line"/>
      <point x="887.4108527131783" y="898.9457364341085"/>
      <point x="741.515503875969" y="1020.4186046511628"/>
      <point x="528.1511627906976" y="1020.4186046511628" type="curve" smooth="yes"/>
      <point x="260.0503875968992" y="1020.4186046511628"/>
      <point x="84.26356589147287" y="817.8410852713179"/>
      <point x="84.26356589147287" y="508.63178294573646" type="curve" smooth="yes"/>
      <point x="84.26356589147287" y="192.42248062015503"/>
      <point x="263.94573643410854" y="-27.209302325581394"/>
      <point x="526.4147286821706" y="-27.209302325581394" type="curve" smooth="yes"/>
      <point x="735.1472868217054" y="-27.209302325581394"/>
      <point x="885.7790697674419" y="106.79069767441861"/>
      <point x="940.937984496124" y="342.0503875968992" type="curve"/>
      <point x="893.468992248062" y="375.7829457364341" type="line"/>
    </contour>
    <contour>
      <point x="538.8837209302326" y="73.3062015503876" type="curve" smooth="yes"/>
      <point x="333.6666666666667" y="73.3062015503876"/>
      <point x="211.50387596899225" y="227.99612403100775"/>
      <point x="211.50387596899225" y="499.73643410852713" type="curve" smooth="yes"/>
      <point x="211.50387596899225" y="770.1085271317829"/>
      <point x="332.0348837209302" y="920.9031007751938"/>
      <point x="540.6201550387597" y="920.9031007751938" type="curve" smooth="yes"/>
      <point x="751.1007751937984" y="920.9031007751938"/>
      <point x="884.1046511627907" y="760.6395348837209"/>
      <point x="884.1046511627907" y="509.36821705426354" type="curve" smooth="yes"/>
      <point x="884.1046511627907" y="248.36046511627907"/>
      <point x="746.7325581395348" y="73.3062015503876"/>
    </contour>
  </outline>
</glyph>
<glyph name="r" format="2">
  <advance width="882.9186046511628"/>
  <unicode hex="0072"/>
  <note>
r
</note>
  <anchor x="123.61627906976744" y="0.0" name="bottom"/>
  <anchor x="530.922480620155" y="1011.577519379845" name="top"/>
  <outline>
    <contour>
      <point x="109.26356589147287" y="0.0" type="line"/>
      <point x="241.65891472868216" y="0.0" type="line"/>
      <point x="241.65891472868216" y="603.6860465116279" type="line" smooth="yes"/>
      <point x="241.65891472868216" y="787.7984496124031"/>
      <point x="354.66279069767444" y="919.1666666666666"/>
      <point x="517.8798449612403" y="919.1666666666666" type="curve" smooth="yes"/>
      <point x="613.9922480620155" y="919.1666666666666"/>
      <point x="701.7751937984497" y="891.7945736434109"/>
      <point x="695.1472868217054" y="802.484496124031" type="curve" smooth="yes"/>
      <point x="694.7790697674419" y="782.2209302325581"/>
      <point x="688.3062015503876" y="735.6937984496124"/>
      <point x="670.937984496124" y="704.9031007751938" type="curve"/>
      <point x="768.3410852713179" y="683.7480620155038" type="line"/>
      <point x="785.8643410852713" y="707.953488372093"/>
      <point x="804.2868217054264" y="763.0"/>
      <point x="804.2868217054264" y="813.6860465116279" type="curve" smooth="yes"/>
      <point x="804.2868217054264" y="950.046511627907"/>
      <point x="682.7170542635658" y="1020.4186046511628"/>
      <point x="545.031007751938" y="1020.4186046511628" type="curve" smooth="yes"/>
      <point x="357.5077519379845" y="1020.4186046511628"/>
      <point x="237.55426356589146" y="892.6279069767442"/>
      <point x="206.29457364341084" y="676.2635658914729" type="curve"/>
      <point x="240.92248062015503" y="624.4418604651163" type="line"/>
      <point x="241.65891472868216" y="994.0503875968992" type="line"/>
      <point x="109.26356589147287" y="994.0503875968992" type="line"/>
    </contour>
  </outline>
</glyph>
<glyph name="s" format="2">
  <advance width="881.8217054263566"/>
  <unicode hex="0073"/>
  <note>
s
</note>
  <anchor x="390.984496124031" y="-16.686046511627907" name="bottom"/>
  <anchor x="441.4108527131783" y="1010.1046511627907" name="top"/>
  <outline>
    <contour>
      <point x="414.7248062015504" y="-26.1046511627907" type="curve" smooth="yes"/>
      <point x="662.6124031007752" y="-25.73643410852713"/>
      <point x="802.5581395348837" y="92.21317829457364"/>
      <point x="802.1899224806201" y="279.6821705426357" type="curve" smooth="yes"/>
      <point x="802.1899224806201" y="448.2015503875969"/>
      <point x="666.4612403100775" y="525.4147286821706"/>
      <point x="433.5658914728682" y="572.7829457364342" type="curve" smooth="yes"/>
      <point x="236.0891472868217" y="613.046511627907"/>
      <point x="207.61627906976744" y="686.4728682170543"/>
      <point x="207.61627906976744" y="756.9496124031008" type="curve" smooth="yes"/>
      <point x="207.61627906976744" y="878.2713178294574"/>
      <point x="312.14728682170545" y="918.9573643410853"/>
      <point x="447.0968992248062" y="919.3255813953489" type="curve" smooth="yes"/>
      <point x="581.6240310077519" y="919.3255813953489"/>
      <point x="668.8294573643411" y="870.5852713178294"/>
      <point x="748.7170542635658" y="819.5348837209302" type="curve"/>
      <point x="748.3488372093024" y="934.8410852713179" type="line"/>
      <point x="656.1434108527131" y="989.3139534883721"/>
      <point x="572.0387596899225" y="1020.4186046511628"/>
      <point x="445.4651162790698" y="1020.4186046511628" type="curve" smooth="yes"/>
      <point x="235.36434108527132" y="1020.0503875968992"/>
      <point x="99.8953488372093" y="925.3643410852713"/>
      <point x="100.26356589147287" y="754.7403100775193" type="curve" smooth="yes"/>
      <point x="100.63178294573643" y="590.4806201550388"/>
      <point x="180.78682170542635" y="517.531007751938"/>
      <point x="403.5232558139535" y="472.4263565891473" type="curve" smooth="yes"/>
      <point x="612.4728682170543" y="430.4263565891473"/>
      <point x="685.0503875968992" y="367.0503875968992"/>
      <point x="685.0503875968992" y="262.78682170542635" type="curve" smooth="yes"/>
      <point x="685.0503875968992" y="139.04651162790697"/>
      <point x="548.7403100775193" y="79.09302325581396"/>
      <point x="411.515503875969" y="79.09302325581396" type="curve" smooth="yes"/>
      <point x="257.515503875969" y="78.7248062015504"/>
      <point x="158.46511627906978" y="141.83333333333334"/>
      <point x="83.0" y="204.8294573643411" type="curve"/>
      <point x="82.73643410852713" y="76.94573643410853" type="line"/>
      <point x="164.62790697674419" y="13.054263565891473"/>
      <point x="271.1007751937984" y="-26.472868217054263"/>
    </contour>
  </outline>
</glyph>
<glyph name="t" format="2">
  <advance width="764.1976744186046"/>
  <unicode hex="0074"/>
  <note>
t
</note>
  <anchor x="437.51937984496124" y="-10.0" name="bottom"/>
  <anchor x="355.2519379844961" y="605.8527131782946" name="center"/>
  <anchor x="397.51937984496124" y="991.577519379845" name="top"/>
  <anchor x="761.7248062015503" y="1394.891472868217" name="topright"/>
  <outline>
    <contour>
      <point x="465.468992248062" y="-27.73643410852713" type="curve" smooth="yes"/>
      <point x="528.7286821705426" y="-27.73643410852713"/>
      <point x="627.3023255813954" y="-13.263565891472869"/>
      <point x="685.5658914728682" y="1.2093023255813953" type="curve"/>
      <point x="685.5658914728682" y="103.98837209302326" type="line"/>
      <point x="635.3100775193799" y="91.09689922480621"/>
      <point x="567.6240310077519" y="72.77906976744185"/>
      <point x="503.2519379844961" y="72.77906976744185" type="curve" smooth="yes"/>
      <point x="383.40697674418607" y="72.77906976744185"/>
      <point x="402.0891472868217" y="152.93798449612405"/>
      <point x="402.0891472868217" y="295.44573643410854" type="curve" smooth="yes"/>
      <point x="402.0891472868217" y="892.3759689922481" type="line"/>
      <point x="653.3604651162791" y="892.3759689922481" type="line"/>
      <point x="653.3604651162791" y="993.1550387596899" type="line"/>
      <point x="402.0891472868217" y="993.1550387596899" type="line"/>
      <point x="402.0891472868217" y="1285.3643410852712" type="line"/>
      <point x="329.7829457364341" y="1285.3643410852712" type="line"/>
      <point x="339.515503875969" y="1032.4612403100775"/>
      <point x="328.37209302325584" y="991.7868217054264"/>
      <point x="77.0" y="993.1550387596899" type="curve"/>
      <point x="77.0" y="892.3759689922481" type="line"/>
      <point x="276.0581395348837" y="892.3759689922481" type="line"/>
      <point x="276.0581395348837" y="234.68217054263565" type="line" smooth="yes"/>
      <point x="276.0581395348837" y="125.42635658914729"/>
      <point x="280.3139534883721" y="-27.73643410852713"/>
    </contour>
  </outline>
</glyph>
<glyph name="u" format="2">
  <advance width="1075.0813953488373"/>
  <unicode hex="0075"/>
  <note>
u
</note>
  <anchor x="492.0968992248062" y="-16.686046511627907" name="bottom"/>
  <anchor x="906.6162790697674" y="0.0" name="ogonek"/>
  <anchor x="536.8837209302326" y="993.4186046511628" name="top"/>
  <anchor x="1224.9767441860465" y="993.4186046511628" name="topright"/>
  <outline>
    <contour>
      <point x="465.36046511627904" y="-27.631782945736433" type="curve" smooth="yes"/>
      <point x="689.6279069767442" y="-27.631782945736433"/>
      <point x="823.8953488372093" y="109.31395348837209"/>
      <point x="870.2093023255813" y="391.11240310077517" type="curve"/>
      <point x="834.7906976744187" y="390.9263565891473" type="line"/>
      <point x="834.422480620155" y="0.0" type="line"/>
      <point x="967.0813953488372" y="0.0" type="line"/>
      <point x="967.0813953488372" y="994.0503875968992" type="line"/>
      <point x="834.422480620155" y="994.0503875968992" type="line"/>
      <point x="834.422480620155" y="508.9031007751938" type="line" smooth="yes"/>
      <point x="834.422480620155" y="231.46511627906978"/>
      <point x="709.577519379845" y="74.51550387596899"/>
      <point x="482.14728682170545" y="74.51550387596899" type="curve" smooth="yes"/>
      <point x="288.87209302325584" y="74.51550387596899"/>
      <point x="233.2906976744186" y="191.25581395348837"/>
      <point x="233.2906976744186" y="379.6744186046512" type="curve" smooth="yes"/>
      <point x="233.2906976744186" y="994.0503875968992" type="line"/>
      <point x="100.26356589147287" y="994.0503875968992" type="line"/>
      <point x="100.26356589147287" y="335.468992248062" type="line" smooth="yes"/>
      <point x="100.26356589147287" y="105.78682170542636"/>
      <point x="237.04651162790697" y="-27.631782945736433"/>
    </contour>
  </outline>
</glyph>
<glyph name="v" format="2">
  <advance width="1124.7131782945737"/>
  <unicode hex="0076"/>
  <note>
v
</note>
  <anchor x="562.3565891472869" y="-5.6395348837209305" name="bottom"/>
  <anchor x="562.3565891472869" y="991.577519379845" name="top"/>
  <outline>
    <contour>
      <point x="555.8875968992248" y="-26.631782945736433" type="line"/>
      <point x="577.4573643410853" y="-26.631782945736433" type="line"/>
      <point x="1049.2403100775193" y="994.0503875968992" type="line"/>
      <point x="948.0426356589147" y="994.0503875968992" type="line"/>
      <point x="561.7713178294574" y="129.6046511627907" type="line"/>
      <point x="612.6124031007752" y="164.87209302325581" type="line"/>
      <point x="231.2906976744186" y="994.0503875968992" type="line"/>
      <point x="75.47286821705427" y="994.0503875968992" type="line"/>
    </contour>
  </outline>
</glyph>
<glyph name="w" format="2">
  <advance width="1573.8023255813953"/>
  <unicode hex="0077"/>
  <note>
w
</note>
  <anchor x="787.0852713178294" y="0.0" name="bottom"/>
  <anchor x="787.0852713178294" y="993.4186046511628" name="top"/>
  <outline>
    <contour>
      <point x="1020.1899224806201" y="-18.1046511627907" type="line"/>
      <point x="1042.1279069767443" y="-18.1046511627907" type="line"/>
      <point x="1499.5387596899225" y="993.4186046511628" type="line"/>
      <point x="1401.6046511627908" y="993.4186046511628" type="line"/>
      <point x="1014.4922480620155" y="114.75968992248062" type="line"/>
      <point x="1098.9651162790697" y="139.97674418604652" type="line"/>
      <point x="712.6472868217054" y="994.0503875968992" type="line"/>
      <point x="559.0930232558139" y="993.4186046511628" type="line"/>
    </contour>
    <contour>
      <point x="536.3604651162791" y="-18.1046511627907" type="line"/>
      <point x="558.2984496124031" y="-18.1046511627907" type="line"/>
      <point x="817.1317829457364" y="547.9341085271318" type="line"/>
      <point x="768.9806201550388" y="656.6589147286821" type="line"/>
      <point x="531.1899224806201" y="114.75968992248062" type="line"/>
      <point x="608.5077519379845" y="139.97674418604652" type="line"/>
      <point x="227.81782945736433" y="994.0503875968992" type="line"/>
      <point x="74.26356589147287" y="993.4186046511628" type="line"/>
    </contour>
    <contour>
      <point x="835.0232558139535" y="557.5077519379845" type="line"/>
      <point x="1027.2906976744187" y="993.4186046511628" type="line"/>
      <point x="928.6201550387597" y="993.4186046511628" type="line"/>
      <point x="778.6666666666666" y="649.2945736434109" type="line"/>
    </contour>
  </outline>
</glyph>
<glyph name="x" format="2">
  <advance width="1075.077519379845"/>
  <unicode hex="0078"/>
  <note>
x
</note>
  <anchor x="538.0387596899225" y="-5.6395348837209305" name="bottom"/>
  <anchor x="538.0387596899225" y="991.577519379845" name="top"/>
  <outline>
    <contour>
      <point x="822.577519379845" y="0.0" type="line"/>
      <point x="1000.8139534883721" y="0.0" type="line"/>
      <point x="259.02713178294573" y="994.0503875968992" type="line"/>
      <point x="80.79069767441861" y="994.0503875968992" type="line"/>
    </contour>
    <contour>
      <point x="82.25968992248062" y="0.0" type="line"/>
      <point x="201.6124031007752" y="0.0" type="line"/>
      <point x="560.0891472868217" y="475.2170542635659" type="line"/>
      <point x="486.3565891472868" y="538.7829457364342" type="line"/>
    </contour>
    <contour>
      <point x="577.7713178294574" y="482.79457364341084" type="line"/>
      <point x="960.3410852713179" y="994.0503875968992" type="line"/>
      <point x="838.3565891472869" y="994.0503875968992" type="line"/>
      <point x="512.6201550387597" y="556.2054263565891" type="line"/>
    </contour>
  </outline>
</glyph>
<glyph name="y" format="2">
  <advance width="1085.875968992248"/>
  <unicode hex="0079"/>
  <note>
y
</note>
  <anchor x="766.9302325581396" y="0.0" name="bottom"/>
  <anchor x="552.1434108527131" y="993.4186046511628" name="top"/>
  <outline>
    <contour>
      <point x="283.2015503875969" y="-558.4186046511628" type="curve" smooth="yes"/>
      <point x="383.56201550387595" y="-558.4186046511628"/>
      <point x="416.98062015503876" y="-489.48062015503876"/>
      <point x="463.7170542635659" y="-359.7984496124031" type="curve" smooth="yes"/>
      <point x="501.7170542635659" y="-255.06201550387595"/>
      <point x="542.9806201550388" y="-140.7984496124031"/>
      <point x="584.0852713178294" y="-31.166666666666668" type="curve"/>
      <point x="1011.2441860465117" y="993.4186046511628" type="line"/>
      <point x="910.4147286821706" y="993.4186046511628" type="line"/>
      <point x="566.3062015503876" y="162.03875968992247" type="line"/>
      <point x="611.2403100775193" y="162.03875968992247" type="line"/>
      <point x="228.71317829457365" y="994.0503875968992" type="line"/>
      <point x="74.26356589147287" y="993.4186046511628" type="line"/>
      <point x="539.4612403100775" y="-9.410852713178294" type="line"/>
      <point x="530.8333333333334" y="79.98837209302326" type="line"/>
      <point x="431.8333333333333" y="-208.1627906976744" type="line" smooth="yes"/>
      <point x="360.67054263565893" y="-408.8062015503876"/>
      <point x="355.0426356589147" y="-474.7403100775194"/>
      <point x="281.4651162790698" y="-474.7403100775194" type="curve" smooth="yes"/>
      <point x="229.99612403100775" y="-474.7403100775194"/>
      <point x="201.9418604651163" y="-440.79457364341084"/>
      <point x="202.20542635658916" y="-399.9496124031008" type="curve"/>
      <point x="125.0" y="-399.9496124031008" type="line"/>
      <point x="129.73643410852713" y="-498.57751937984494"/>
      <point x="192.84108527131784" y="-558.4186046511628"/>
    </contour>
  </outline>
</glyph>
<glyph name="z" format="2">
  <advance width="978.7131782945736"/>
  <unicode hex="007A"/>
  <note>
z
</note>
  <anchor x="489.3565891472868" y="0.0" name="bottom"/>
  <anchor x="489.3565891472868" y="497.2093023255814" name="center"/>
  <anchor x="489.3565891472868" y="993.4186046511628" name="top"/>
  <outline>
    <contour>
      <point x="74.26356589147287" y="0.0" type="line"/>
      <point x="877.2906976744187" y="0.0" type="line"/>
      <point x="877.2906976744187" y="103.14728682170542" type="line"/>
      <point x="211.97286821705427" y="103.14728682170542" type="line"/>
      <point x="232.7674418604651" y="26.891472868217054" type="line"/>
      <point x="901.7131782945736" y="994.0503875968992" type="line"/>
      <point x="116.36821705426357" y="994.0503875968992" type="line"/>
      <point x="116.36821705426357" y="891.2713178294574" type="line"/>
      <point x="742.422480620155" y="891.2713178294574" type="line"/>
      <point x="742.2093023255813" y="965.5271317829457" type="line"/>
    </contour>
  </outline>
</glyph>
<glyph name="braceleft" format="2">
  <advance width="725.562015503876"/>
  <unicode hex="007B"/>
  <note>
braceleft
</note>
  <outline>
    <contour>
      <point x="622.562015503876" y="-385.1589147286822" type="curve"/>
      <point x="622.562015503876" y="-271.0658914728682" type="line"/>
      <point x="409.18992248062017" y="-279.7984496124031"/>
      <point x="346.98062015503876" y="-211.27131782945736"/>
      <point x="346.98062015503876" y="38.52325581395349" type="curve" smooth="yes"/>
      <point x="346.98062015503876" y="345.57751937984494" type="line" smooth="yes"/>
      <point x="346.98062015503876" y="400.3139534883721"/>
      <point x="323.45348837209303" y="441.94573643410854"/>
      <point x="268.7674418604651" y="488.1046511627907" type="curve"/>
      <point x="323.45348837209303" y="536.2635658914729"/>
      <point x="346.98062015503876" y="576.2635658914729"/>
      <point x="346.98062015503876" y="629.0" type="curve" smooth="yes"/>
      <point x="346.98062015503876" y="1036.3178294573643" type="line" smooth="yes"/>
      <point x="346.98062015503876" y="1270.4263565891472"/>
      <point x="422.61240310077517" y="1354.639534883721"/>
      <point x="622.562015503876" y="1345.5387596899225" type="curve"/>
      <point x="622.562015503876" y="1460.0" type="line"/>
      <point x="383.0426356589147" y="1475.4186046511627"/>
      <point x="231.31007751937983" y="1335.577519379845"/>
      <point x="231.31007751937983" y="1103.5813953488373" type="curve" smooth="yes"/>
      <point x="231.31007751937983" y="629.0" type="line" smooth="yes"/>
      <point x="231.31007751937983" y="581.1046511627907"/>
      <point x="208.15116279069767" y="561.8914728682171"/>
      <point x="96.8953488372093" y="487.8410852713178" type="curve"/>
      <point x="203.8875968992248" y="419.5813953488372"/>
      <point x="231.31007751937983" y="392.2093023255814"/>
      <point x="231.31007751937983" y="345.57751937984494" type="curve" smooth="yes"/>
      <point x="231.31007751937983" y="-28.372093023255815" type="line" smooth="yes"/>
      <point x="231.31007751937983" y="-262.1046511627907"/>
      <point x="382.0426356589147" y="-399.57751937984494"/>
    </contour>
  </outline>
</glyph>
<glyph name="bar" format="2">
  <advance width="470.1937984496124"/>
  <unicode hex="007C"/>
  <note>
bar
</note>
  <outline>
    <contour>
      <point x="174.26356589147287" y="-300.0" type="line"/>
      <point x="295.93023255813955" y="-300.0" type="line"/>
      <point x="295.93023255813955" y="1664.0" type="line"/>
      <point x="174.26356589147287" y="1664.0" type="line"/>
    </contour>
  </outline>
</glyph>
<glyph name="braceright" format="2">
  <advance width="725.9302325581396"/>
  <unicode hex="007D"/>
  <note>
braceright
</note>
  <outline>
    <contour>
      <point x="103.0" y="-385.1589147286822" type="line"/>
      <point x="343.88759689922483" y="-399.57751937984494"/>
      <point x="494.2519379844961" y="-262.1046511627907"/>
      <point x="494.2519379844961" y="-28.372093023255815" type="curve" smooth="yes"/>
      <point x="494.2519379844961" y="345.57751937984494" type="line" smooth="yes"/>
      <point x="494.2519379844961" y="392.2093023255814"/>
      <point x="521.6744186046511" y="419.21317829457365"/>
      <point x="629.0348837209302" y="487.47286821705427" type="curve"/>
      <point x="517.0426356589147" y="561.8914728682171"/>
      <point x="494.2519379844961" y="581.1046511627907"/>
      <point x="494.2519379844961" y="629.0" type="curve" smooth="yes"/>
      <point x="494.2519379844961" y="1103.5813953488373" type="line" smooth="yes"/>
      <point x="494.2519379844961" y="1335.577519379845"/>
      <point x="342.88759689922483" y="1475.4186046511627"/>
      <point x="103.0" y="1460.0" type="curve"/>
      <point x="103.0" y="1345.5387596899225" type="line"/>
      <point x="303.6860465116279" y="1354.639534883721"/>
      <point x="378.9496124031008" y="1270.4263565891472"/>
      <point x="378.9496124031008" y="1036.3178294573643" type="curve" smooth="yes"/>
      <point x="378.9496124031008" y="629.0" type="line" smooth="yes"/>
      <point x="378.9496124031008" y="575.8953488372093"/>
      <point x="402.4767441860465" y="536.2635658914729"/>
      <point x="457.16279069767444" y="488.1046511627907" type="curve"/>
      <point x="402.4767441860465" y="441.94573643410854"/>
      <point x="378.9496124031008" y="400.3139534883721"/>
      <point x="378.9496124031008" y="345.57751937984494" type="curve" smooth="yes"/>
      <point x="378.9496124031008" y="38.52325581395349" type="line" smooth="yes"/>
      <point x="378.9496124031008" y="-211.27131782945736"/>
      <point x="316.7403100775194" y="-279.7984496124031"/>
      <point x="103.0" y="-271.0658914728682" type="curve"/>
    </contour>
  </outline>
</glyph>
<glyph name="asciitilde" format="2">
  <advance width="1213.0658914728683"/>
  <unicode hex="007E"/>
  <note>
asciitilde
</note>
  <outline>
    <contour>
      <point x="782.0813953488372" y="596.5387596899225" type="curve" smooth="yes"/>
      <point x="896.4961240310078" y="596.5387596899225"/>
      <point x="991.062015503876" y="656.1627906976744"/>
      <point x="1076.1705426356589" y="757.3837209302326" type="curve"/>
      <point x="1017.7596899224807" y="832.1550387596899" type="line"/>
      <point x="962.8178294573644" y="775.1550387596899"/>
      <point x="859.2906976744187" y="730.1007751937984"/>
      <point x="778.1860465116279" y="730.1007751937984" type="curve" smooth="yes"/>
      <point x="707.7131782945736" y="730.1007751937984"/>
      <point x="659.6085271317829" y="765.1007751937984"/>
      <point x="629.2945736434109" y="784.468992248062" type="curve" smooth="yes"/>
      <point x="556.6666666666666" y="830.5736434108527"/>
      <point x="502.7751937984496" y="857.5736434108527"/>
      <point x="424.87984496124034" y="857.5736434108527" type="curve" smooth="yes"/>
      <point x="318.2480620155039" y="857.5736434108527"/>
      <point x="224.20542635658916" y="801.8914728682171"/>
      <point x="136.8953488372093" y="684.8372093023256" type="curve"/>
      <point x="196.0968992248062" y="615.9069767441861" type="line"/>
      <point x="255.77131782945736" y="675.5348837209302"/>
      <point x="343.77131782945736" y="721.0116279069767"/>
      <point x="426.51162790697674" y="721.0116279069767" type="curve" smooth="yes"/>
      <point x="499.3565891472868" y="721.0116279069767"/>
      <point x="552.6705426356589" y="682.9573643410853"/>
      <point x="593.7713178294574" y="659.0116279069767" type="curve" smooth="yes"/>
      <point x="676.453488372093" y="608.0116279069767"/>
      <point x="720.7674418604652" y="596.5387596899225"/>
    </contour>
  </outline>
</glyph>
<glyph name=".notdef" format="2">
  <advance width="1235.0"/>
  <unicode hex="007F"/>
  <note>
.notdef
</note>
  <outline>
    <contour>
      <point x="89.37596899224806" y="-351.42248062015506" type="line"/>
      <point x="1145.624031007752" y="-351.42248062015506" type="line"/>
      <point x="1145.624031007752" y="1411.4728682170542" type="line"/>
      <point x="89.37596899224806" y="1411.4728682170542" type="line"/>
    </contour>
    <contour>
      <point x="231.9922480620155" y="-214.38372093023256" type="line"/>
      <point x="231.9922480620155" y="1274.4341085271317" type="line"/>
      <point x="1004.3759689922481" y="1274.4341085271317" type="line"/>
      <point x="1004.3759689922481" y="-214.38372093023256" type="line"/>
    </contour>
  </outline>
</glyph>
<glyph name="Euro" format="2">
  <advance width="1611.015503875969"/>
  <unicode hex="0080"/>
  <note>
Euro
</note>
  <outline>
    <contour>
      <point x="953.8720930232558" y="-18.996124031007753" type="curve" smooth="yes"/>
      <point x="1188.7054263565892" y="-18.996124031007753"/>
      <point x="1349.8565891472867" y="100.4186046511628"/>
      <point x="1463.4883720930234" y="315.72868217054264" type="curve"/>
      <point x="1330.2945736434108" y="315.72868217054264" type="line"/>
      <point x="1261.0348837209303" y="166.8953488372093"/>
      <point x="1120.5116279069766" y="78.67829457364341"/>
      <point x="960.6085271317829" y="78.67829457364341" type="curve" smooth="yes"/>
      <point x="677.7635658914728" y="78.67829457364341"/>
      <point x="467.2829457364341" y="344.25581395348837"/>
      <point x="467.2829457364341" y="712.0542635658915" type="curve" smooth="yes"/>
      <point x="467.2829457364341" y="1076.2170542635658"/>
      <point x="682.3914728682171" y="1344.1666666666667"/>
      <point x="954.3992248062016" y="1344.1666666666667" type="curve" smooth="yes"/>
      <point x="1120.1434108527133" y="1344.1666666666667"/>
      <point x="1274.875968992248" y="1245.2674418604652"/>
      <point x="1328.3488372093022" y="1113.0658914728683" type="curve"/>
      <point x="1455.2790697674418" y="1113.0658914728683" type="line"/>
      <point x="1364.9108527131782" y="1311.4263565891472"/>
      <point x="1195.6007751937984" y="1441.4728682170542"/>
      <point x="954.8720930232558" y="1441.4728682170542" type="curve" smooth="yes"/>
      <point x="589.0348837209302" y="1441.4728682170542"/>
      <point x="332.3062015503876" y="1152.1046511627908"/>
      <point x="333.3062015503876" y="710.7906976744187" type="curve" smooth="yes"/>
      <point x="333.93798449612405" y="277.9496124031008"/>
      <point x="582.6666666666666" y="-18.996124031007753"/>
    </contour>
    <contour>
      <point x="146.8953488372093" y="507.8992248062016" type="line"/>
      <point x="1005.2984496124031" y="507.8992248062016" type="line"/>
      <point x="1027.453488372093" y="603.3100775193799" type="line"/>
      <point x="169.78682170542635" y="603.3100775193799" type="line"/>
    </contour>
    <contour>
      <point x="195.26356589147287" y="796.5852713178294" type="line"/>
      <point x="1053.6666666666667" y="796.5852713178294" type="line"/>
      <point x="1078.0852713178294" y="891.6279069767442" type="line"/>
      <point x="220.41860465116278" y="891.6279069767442" type="line"/>
    </contour>
  </outline>
</glyph>
<glyph name="sterling" format="2">
  <advance width="1226.5038759689924"/>
  <unicode hex="00A3"/>
  <note>
sterling
</note>
  <outline>
    <contour>
      <point x="336.14728682170545" y="63.72868217054263" type="curve" smooth="yes"/>
      <point x="474.0891472868217" y="63.72868217054263"/>
      <point x="702.5658914728682" y="232.62403100775194"/>
      <point x="702.5658914728682" y="465.8914728682171" type="curve" smooth="yes"/>
      <point x="702.5658914728682" y="672.953488372093"/>
      <point x="594.6666666666666" y="727.4767441860465"/>
      <point x="478.35271317829455" y="813.1589147286821" type="curve" smooth="yes"/>
      <point x="357.09302325581393" y="902.4186046511628"/>
      <point x="315.5077519379845" y="1027.4728682170542"/>
      <point x="315.5077519379845" y="1133.3720930232557" type="curve" smooth="yes"/>
      <point x="315.5077519379845" y="1285.0581395348838"/>
      <point x="423.77131782945736" y="1365.1666666666667"/>
      <point x="602.7286821705426" y="1365.1666666666667" type="curve" smooth="yes"/>
      <point x="779.3100775193799" y="1365.1666666666667"/>
      <point x="915.8410852713179" y="1295.124031007752"/>
      <point x="925.2635658914729" y="1167.9147286821706" type="curve"/>
      <point x="1037.7170542635658" y="1167.9147286821706" type="line"/>
      <point x="1015.6627906976744" y="1358.5348837209303"/>
      <point x="859.6666666666666" y="1457.8410852713178"/>
      <point x="612.8333333333334" y="1457.8410852713178" type="curve" smooth="yes"/>
      <point x="328.31007751937983" y="1457.8410852713178"/>
      <point x="187.74031007751938" y="1310.531007751938"/>
      <point x="187.74031007751938" y="1101.6937984496124" type="curve" smooth="yes"/>
      <point x="187.74031007751938" y="891.4263565891473"/>
      <point x="316.58527131782944" y="794.8992248062016"/>
      <point x="431.6356589147287" y="716.0581395348837" type="curve" smooth="yes"/>
      <point x="536.7403100775193" y="644.0581395348837"/>
      <point x="569.1666666666666" y="604.2713178294574"/>
      <point x="569.1666666666666" y="445.20542635658916" type="curve" smooth="yes"/>
      <point x="569.1666666666666" y="274.82945736434107"/>
      <point x="376.0077519379845" y="126.40310077519379"/>
      <point x="158.36821705426357" y="119.24418604651163" type="curve"/>
      <point x="241.62790697674419" y="33.3062015503876"/>
      <point x="211.82558139534885" y="63.72868217054263"/>
    </contour>
    <contour>
      <point x="158.36821705426357" y="0.0" type="line"/>
      <point x="1077.8720930232557" y="0.0" type="line"/>
      <point x="1077.8720930232557" y="119.24418604651163" type="line"/>
      <point x="158.36821705426357" y="119.24418604651163" type="line"/>
    </contour>
    <contour>
      <point x="153.47286821705427" y="667.7984496124031" type="line"/>
      <point x="980.8837209302326" y="667.7984496124031" type="line"/>
      <point x="980.8837209302326" y="763.9457364341085" type="line"/>
      <point x="153.47286821705427" y="763.9457364341085" type="line"/>
    </contour>
  </outline>
</glyph>
<glyph name="currency" format="2">
  <advance width="1175.8062015503876"/>
  <unicode hex="00A4"/>
  <note>
currency
</note>
  <outline>
    <contour>
      <point x="217.51937984496124" y="267.7015503875969" type="line"/>
      <point x="356.6744186046512" y="406.8565891472868" type="line"/>
      <point x="420.09302325581393" y="358.015503875969"/>
      <point x="500.2480620155039" y="328.9108527131783"/>
      <point x="587.4031007751938" y="328.9108527131783" type="curve" smooth="yes"/>
      <point x="673.9263565891473" y="328.9108527131783"/>
      <point x="754.0813953488372" y="358.015503875969"/>
      <point x="817.5" y="406.8565891472868" type="curve"/>
      <point x="957.6550387596899" y="267.7015503875969" type="line"/>
      <point x="1027.9108527131782" y="337.3255813953488" type="line"/>
      <point x="888.1240310077519" y="477.48062015503876" type="line"/>
      <point x="936.9651162790698" y="541.2674418604652"/>
      <point x="966.0697674418604" y="621.0542635658915"/>
      <point x="966.0697674418604" y="707.577519379845" type="curve" smooth="yes"/>
      <point x="966.0697674418604" y="794.7325581395348"/>
      <point x="936.9651162790698" y="874.8875968992248"/>
      <point x="888.1240310077519" y="938.3062015503876" type="curve"/>
      <point x="1027.2790697674418" y="1077.4612403100775" type="line"/>
      <point x="956.6550387596899" y="1148.0852713178294" type="line"/>
      <point x="817.5" y="1008.9302325581396" type="line"/>
      <point x="754.0813953488372" y="1057.139534883721"/>
      <point x="673.9263565891473" y="1086.2441860465117"/>
      <point x="587.4031007751938" y="1086.2441860465117" type="curve" smooth="yes"/>
      <point x="501.2480620155039" y="1086.2441860465117"/>
      <point x="421.09302325581393" y="1057.139534883721"/>
      <point x="357.3062015503876" y="1008.9302325581396" type="curve"/>
      <point x="218.15116279069767" y="1147.0852713178294" type="line"/>
      <point x="147.8953488372093" y="1077.4612403100775" type="line"/>
      <point x="287.0503875968992" y="938.3062015503876" type="line"/>
      <point x="237.84108527131784" y="874.8875968992248"/>
      <point x="208.73643410852713" y="794.7325581395348"/>
      <point x="208.73643410852713" y="707.577519379845" type="curve" smooth="yes"/>
      <point x="208.73643410852713" y="621.0542635658915"/>
      <point x="237.84108527131784" y="541.2674418604652"/>
      <point x="286.0503875968992" y="477.48062015503876" type="curve"/>
      <point x="147.8953488372093" y="338.3255813953488" type="line"/>
    </contour>
    <contour>
      <point x="587.4031007751938" y="432.16279069767444" type="curve" smooth="yes"/>
      <point x="435.1434108527132" y="432.16279069767444"/>
      <point x="311.98837209302326" y="555.3178294573644"/>
      <point x="311.98837209302326" y="707.577519379845" type="curve" smooth="yes"/>
      <point x="311.98837209302326" y="859.8372093023256"/>
      <point x="435.1434108527132" y="982.9922480620155"/>
      <point x="587.4031007751938" y="982.9922480620155" type="curve" smooth="yes"/>
      <point x="739.6627906976744" y="982.9922480620155"/>
      <point x="862.8178294573644" y="859.8372093023256"/>
      <point x="862.8178294573644" y="707.577519379845" type="curve" smooth="yes"/>
      <point x="862.8178294573644" y="555.3178294573644"/>
      <point x="739.6627906976744" y="432.16279069767444"/>
    </contour>
  </outline>
</glyph>
<glyph name="brokenbar" format="2">
  <advance width="470.1937984496124"/>
  <unicode hex="00A6"/>
  <note>
brokenbar
</note>
  <outline>
    <contour>
      <point x="174.26356589147287" y="-300.0" type="line"/>
      <point x="295.93023255813955" y="-300.0" type="line"/>
      <point x="295.93023255813955" y="511.4263565891473" type="line"/>
      <point x="174.26356589147287" y="511.4263565891473" type="line"/>
    </contour>
    <contour>
      <point x="174.26356589147287" y="880.5736434108527" type="line"/>
      <point x="295.93023255813955" y="880.5736434108527" type="line"/>
      <point x="295.93023255813955" y="1664.0" type="line"/>
      <point x="174.26356589147287" y="1664.0" type="line"/>
    </contour>
  </outline>
</glyph>
<glyph name="section" format="2">
  <advance width="1352.9418604651162"/>
  <unicode hex="00A7"/>
  <note>
section
</note>
  <outline>
    <contour>
      <point x="662.1550387596899" y="-450.37209302325584" type="curve" smooth="yes"/>
      <point x="956.9418604651163" y="-450.37209302325584"/>
      <point x="1143.3100775193798" y="-321.2674418604651"/>
      <point x="1143.3100775193798" y="-111.48062015503876" type="curve" smooth="yes"/>
      <point x="1143.3100775193798" y="73.83333333333333"/>
      <point x="1027.4147286821706" y="174.72868217054264"/>
      <point x="773.1550387596899" y="219.36046511627907" type="curve"/>
      <point x="766.9457364341085" y="135.68604651162792" type="line"/>
      <point x="1071.2054263565892" y="189.05426356589146"/>
      <point x="1215.6782945736434" y="307.7906976744186"/>
      <point x="1215.6782945736434" y="520.577519379845" type="curve" smooth="yes"/>
      <point x="1215.6782945736434" y="703.1007751937984"/>
      <point x="1111.9961240310076" y="824.8372093023256"/>
      <point x="834.9961240310078" y="919.6279069767442" type="curve" smooth="yes"/>
      <point x="641.3720930232558" y="985.9418604651163"/>
      <point x="508.62790697674416" y="1033.7325581395348"/>
      <point x="508.62790697674416" y="1138.2674418604652" type="curve" smooth="yes"/>
      <point x="508.62790697674416" y="1247.4767441860465"/>
      <point x="580.4728682170543" y="1384.906976744186"/>
      <point x="672.4186046511628" y="1384.906976744186" type="curve" smooth="yes"/>
      <point x="774.5736434108527" y="1384.906976744186"/>
      <point x="834.6821705426356" y="1240.3720930232557"/>
      <point x="834.577519379845" y="1084.9573643410852" type="curve"/>
      <point x="1134.3100775193798" y="1084.9573643410852" type="line"/>
      <point x="1134.3100775193798" y="1129.8992248062016" type="line" smooth="yes"/>
      <point x="1134.3100775193798" y="1353.3178294573643"/>
      <point x="970.2054263565891" y="1477.1589147286822"/>
      <point x="683.7868217054264" y="1477.1589147286822" type="curve" smooth="yes"/>
      <point x="391.63178294573646" y="1477.1589147286822"/>
      <point x="195.26356589147287" y="1344.0542635658915"/>
      <point x="195.26356589147287" y="1140.2674418604652" type="curve" smooth="yes"/>
      <point x="195.26356589147287" y="970.5852713178294"/>
      <point x="309.9496124031008" y="881.7945736434109"/>
      <point x="601.6240310077519" y="802.5852713178294" type="curve"/>
      <point x="569.2093023255813" y="892.3643410852713" type="line"/>
      <point x="298.0" y="864.6279069767442"/>
      <point x="137.8953488372093" y="718.5232558139535"/>
      <point x="137.8953488372093" y="506.2093023255814" type="curve" smooth="yes"/>
      <point x="137.8953488372093" y="306.05426356589146"/>
      <point x="247.0" y="208.05426356589146"/>
      <point x="605.0503875968992" y="83.79069767441861" type="curve" smooth="yes"/>
      <point x="739.6279069767442" y="37.7906976744186"/>
      <point x="834.9457364341085" y="-18.0"/>
      <point x="834.9457364341085" y="-105.48062015503876" type="curve" smooth="yes"/>
      <point x="834.9457364341085" y="-219.3217054263566"/>
      <point x="770.2596899224807" y="-358.12015503875966"/>
      <point x="666.1550387596899" y="-358.12015503875966" type="curve" smooth="yes"/>
      <point x="557.8953488372093" y="-358.12015503875966"/>
      <point x="486.15503875968994" y="-204.84883720930233"/>
      <point x="486.99612403100775" y="-50.17054263565892" type="curve"/>
      <point x="184.26356589147287" y="-50.17054263565892" type="line"/>
      <point x="184.26356589147287" y="-95.48062015503876" type="line" smooth="yes"/>
      <point x="184.26356589147287" y="-309.2674418604651"/>
      <point x="377.0" y="-450.37209302325584"/>
    </contour>
    <contour>
      <point x="673.7868217054264" y="258.1511627906977" type="curve" smooth="yes"/>
      <point x="541.2596899224807" y="258.1511627906977"/>
      <point x="431.2596899224806" y="375.20542635658916"/>
      <point x="431.2596899224806" y="520.2093023255813" type="curve" smooth="yes"/>
      <point x="431.2596899224806" y="667.5813953488372"/>
      <point x="540.8914728682171" y="780.6356589147287"/>
      <point x="673.7868217054264" y="780.6356589147287" type="curve" smooth="yes"/>
      <point x="807.6821705426356" y="780.6356589147287"/>
      <point x="922.3139534883721" y="666.8449612403101"/>
      <point x="922.3139534883721" y="520.2093023255813" type="curve" smooth="yes"/>
      <point x="922.3139534883721" y="376.20542635658916"/>
      <point x="805.3139534883721" y="258.1511627906977"/>
    </contour>
  </outline>
</glyph>
<glyph name="copyright" format="2">
  <advance width="1775.2558139534883"/>
  <unicode hex="00A9"/>
  <note>
copyright
</note>
  <outline>
    <contour>
      <point x="886.6279069767442" y="-12.577519379844961" type="curve" smooth="yes"/>
      <point x="1090.6279069767443" y="-12.577519379844961"/>
      <point x="1279.468992248062" y="71.84496124031008"/>
      <point x="1418.4147286821706" y="199.42248062015503" type="curve" smooth="yes"/>
      <point x="1565.7829457364342" y="336.42248062015506"/>
      <point x="1633.360465116279" y="515.6860465116279"/>
      <point x="1633.360465116279" y="707.2635658914729" type="curve" smooth="yes"/>
      <point x="1633.360465116279" y="916.7906976744187"/>
      <point x="1563.1511627906978" y="1081.7364341085272"/>
      <point x="1418.7829457364342" y="1215.1046511627908" type="curve" smooth="yes"/>
      <point x="1277.9418604651162" y="1345.9457364341085"/>
      <point x="1095.7325581395348" y="1427.1046511627908"/>
      <point x="886.6279069767442" y="1427.1046511627908" type="curve" smooth="yes"/>
      <point x="693.9457364341085" y="1427.1046511627908"/>
      <point x="506.0503875968992" y="1352.6821705426357"/>
      <point x="363.47286821705427" y="1217.1046511627908" type="curve" smooth="yes"/>
      <point x="217.47286821705427" y="1078.7364341085272"/>
      <point x="141.8953488372093" y="894.8410852713179"/>
      <point x="141.8953488372093" y="707.2635658914729" type="curve" smooth="yes"/>
      <point x="141.8953488372093" y="511.0"/>
      <point x="215.36821705426357" y="337.1589147286822"/>
      <point x="363.47286821705427" y="197.7906976744186" type="curve" smooth="yes"/>
      <point x="504.3139534883721" y="64.68604651162791"/>
      <point x="691.4186046511628" y="-12.577519379844961"/>
    </contour>
    <contour>
      <point x="890.1550387596899" y="272.6240310077519" type="curve" smooth="yes"/>
      <point x="1084.3100775193798" y="272.6240310077519"/>
      <point x="1226.3643410852712" y="385.56976744186045"/>
      <point x="1250.577519379845" y="572.6240310077519" type="curve"/>
      <point x="1144.1666666666667" y="572.6240310077519" type="line"/>
      <point x="1125.1124031007753" y="452.0426356589147"/>
      <point x="1027.7906976744187" y="375.0387596899225"/>
      <point x="897.7868217054264" y="375.0387596899225" type="curve" smooth="yes"/>
      <point x="725.7286821705426" y="375.0387596899225"/>
      <point x="618.3527131782946" y="510.6782945736434"/>
      <point x="618.3527131782946" y="705.2635658914729" type="curve" smooth="yes"/>
      <point x="618.3527131782946" y="902.3759689922481"/>
      <point x="728.5193798449612" y="1043.1201550387598"/>
      <point x="897.7868217054264" y="1043.1201550387598" type="curve" smooth="yes"/>
      <point x="1024.422480620155" y="1043.1201550387598"/>
      <point x="1115.0077519379845" y="962.9573643410853"/>
      <point x="1133.2713178294573" y="864.7984496124031" type="curve"/>
      <point x="1240.9457364341085" y="864.7984496124031" type="line"/>
      <point x="1215.7325581395348" y="1039.8527131782946"/>
      <point x="1085.6782945736434" y="1144.5348837209303"/>
      <point x="899.7868217054264" y="1144.5348837209303" type="curve" smooth="yes"/>
      <point x="660.9961240310078" y="1144.5348837209303"/>
      <point x="504.99612403100775" y="971.1627906976744"/>
      <point x="504.99612403100775" y="703.6317829457364" type="curve" smooth="yes"/>
      <point x="504.99612403100775" y="442.1007751937984"/>
      <point x="652.2596899224807" y="272.6240310077519"/>
    </contour>
    <contour>
      <point x="886.6279069767442" y="91.72868217054264" type="curve" smooth="yes"/>
      <point x="716.2054263565891" y="91.72868217054264"/>
      <point x="557.4147286821706" y="159.25581395348837"/>
      <point x="437.51937984496124" y="272.41472868217056" type="curve" smooth="yes"/>
      <point x="308.36046511627904" y="393.83720930232556"/>
      <point x="247.83333333333334" y="549.3139534883721"/>
      <point x="247.83333333333334" y="707.2635658914729" type="curve" smooth="yes"/>
      <point x="247.83333333333334" y="876.8449612403101"/>
      <point x="310.36046511627904" y="1023.4263565891473"/>
      <point x="437.88759689922483" y="1143.2170542635658" type="curve" smooth="yes"/>
      <point x="559.4147286821706" y="1258.0077519379845"/>
      <point x="710.1007751937984" y="1323.1666666666667"/>
      <point x="886.6279069767442" y="1323.1666666666667" type="curve" smooth="yes"/>
      <point x="1057.5232558139535" y="1323.1666666666667"/>
      <point x="1225.4728682170542" y="1250.7441860465117"/>
      <point x="1344.3682170542636" y="1141.2170542635658" type="curve" smooth="yes"/>
      <point x="1471.5271317829458" y="1024.4263565891472"/>
      <point x="1527.7906976744187" y="869.2131782945736"/>
      <point x="1527.7906976744187" y="707.2635658914729" type="curve" smooth="yes"/>
      <point x="1527.7906976744187" y="527.5232558139535"/>
      <point x="1470.2635658914728" y="389.20542635658916"/>
      <point x="1345.1046511627908" y="274.41472868217056" type="curve" smooth="yes"/>
      <point x="1224.2093023255813" y="163.25581395348837"/>
      <point x="1061.4186046511627" y="91.72868217054264"/>
    </contour>
  </outline>
</glyph>
<glyph name="ordfeminine" format="2">
  <advance width="785.968992248062"/>
  <unicode hex="00AA"/>
  <note>
ordfeminine
</note>
  <outline>
    <contour>
      <point x="370.6162790697674" y="828.062015503876" type="curve" smooth="yes"/>
      <point x="486.2015503875969" y="828.062015503876"/>
      <point x="586.5193798449612" y="903.4341085271318"/>
      <point x="600.5697674418604" y="1009.0193798449612" type="curve"/>
      <point x="600.5697674418604" y="843.8527131782946" type="line"/>
      <point x="665.0813953488372" y="843.8527131782946" type="line"/>
      <point x="665.0813953488372" y="1436.8410852713178" type="line"/>
      <point x="597.937984496124" y="1436.8410852713178" type="line"/>
      <point x="597.937984496124" y="1268.4108527131782" type="line"/>
      <point x="584.2558139534883" y="1375.7325581395348"/>
      <point x="483.93798449612405" y="1452.4728682170542"/>
      <point x="365.6162790697674" y="1452.4728682170542" type="curve" smooth="yes"/>
      <point x="204.93798449612405" y="1452.4728682170542"/>
      <point x="99.31007751937985" y="1323.5271317829458"/>
      <point x="99.31007751937985" y="1138.2674418604652" type="curve" smooth="yes"/>
      <point x="99.31007751937985" y="956.0077519379845"/>
      <point x="207.30620155038758" y="828.062015503876"/>
    </contour>
    <contour>
      <point x="376.984496124031" y="891.5232558139535" type="curve" smooth="yes"/>
      <point x="258.98062015503876" y="891.5232558139535"/>
      <point x="181.7674418604651" y="990.7364341085271"/>
      <point x="181.7674418604651" y="1140.4767441860465" type="curve" smooth="yes"/>
      <point x="181.7674418604651" y="1289.639534883721"/>
      <point x="256.98062015503876" y="1389.0116279069769"/>
      <point x="373.984496124031" y="1389.0116279069769" type="curve" smooth="yes"/>
      <point x="493.14728682170545" y="1389.0116279069769"/>
      <point x="572.5193798449612" y="1292.1666666666667"/>
      <point x="572.5193798449612" y="1137.8992248062016" type="curve" smooth="yes"/>
      <point x="572.5193798449612" y="986.3682170542636"/>
      <point x="494.14728682170545" y="891.5232558139535"/>
    </contour>
    <contour>
      <point x="100.31007751937985" y="692.8062015503876" type="line"/>
      <point x="675.8682170542636" y="692.8062015503876" type="line"/>
      <point x="675.8682170542636" y="750.4302325581396" type="line"/>
      <point x="100.31007751937985" y="750.4302325581396" type="line"/>
    </contour>
  </outline>
</glyph>
<glyph name="logicalnot" format="2">
  <advance width="1097.937984496124"/>
  <unicode hex="00AC"/>
  <note>
logicalnot
</note>
  <outline>
    <contour>
      <point x="1090.2480620155038" y="331.7403100775194" type="line"/>
      <point x="1202.7558139534883" y="331.7403100775194" type="line"/>
      <point x="1202.7558139534883" y="879.3139534883721" type="line"/>
      <point x="140.73643410852713" y="879.3139534883721" type="line"/>
      <point x="140.73643410852713" y="759.2248062015503" type="line"/>
      <point x="1090.2480620155038" y="759.2248062015503" type="line"/>
    </contour>
  </outline>
</glyph>
<glyph name="registered" format="2">
  <advance width="1775.2558139534883"/>
  <unicode hex="00AE"/>
  <note>
registered
</note>
  <outline>
    <contour>
      <point x="886.6279069767442" y="-12.577519379844961" type="curve" smooth="yes"/>
      <point x="1090.6279069767443" y="-12.577519379844961"/>
      <point x="1279.468992248062" y="71.84496124031008"/>
      <point x="1418.4147286821706" y="199.42248062015503" type="curve" smooth="yes"/>
      <point x="1565.7829457364342" y="336.42248062015506"/>
      <point x="1633.360465116279" y="515.6860465116279"/>
      <point x="1633.360465116279" y="707.2635658914729" type="curve" smooth="yes"/>
      <point x="1633.360465116279" y="916.7906976744187"/>
      <point x="1563.1511627906978" y="1081.7364341085272"/>
      <point x="1418.7829457364342" y="1215.1046511627908" type="curve" smooth="yes"/>
      <point x="1277.9418604651162" y="1345.9457364341085"/>
      <point x="1095.7325581395348" y="1427.1046511627908"/>
      <point x="886.6279069767442" y="1427.1046511627908" type="curve" smooth="yes"/>
      <point x="693.9457364341085" y="1427.1046511627908"/>
      <point x="506.0503875968992" y="1352.6821705426357"/>
      <point x="363.47286821705427" y="1217.1046511627908" type="curve" smooth="yes"/>
      <point x="217.47286821705427" y="1078.7364341085272"/>
      <point x="141.8953488372093" y="894.8410852713179"/>
      <point x="141.8953488372093" y="707.2635658914729" type="curve" smooth="yes"/>
      <point x="141.8953488372093" y="511.0"/>
      <point x="215.36821705426357" y="337.1589147286822"/>
      <point x="363.47286821705427" y="197.7906976744186" type="curve" smooth="yes"/>
      <point x="504.3139534883721" y="64.68604651162791"/>
      <point x="691.4186046511628" y="-12.577519379844961"/>
    </contour>
    <contour>
      <point x="886.6279069767442" y="91.72868217054264" type="curve" smooth="yes"/>
      <point x="716.2054263565891" y="91.72868217054264"/>
      <point x="557.4147286821706" y="159.25581395348837"/>
      <point x="437.51937984496124" y="272.41472868217056" type="curve" smooth="yes"/>
      <point x="308.36046511627904" y="393.83720930232556"/>
      <point x="247.83333333333334" y="549.3139534883721"/>
      <point x="247.83333333333334" y="707.2635658914729" type="curve" smooth="yes"/>
      <point x="247.83333333333334" y="876.8449612403101"/>
      <point x="310.36046511627904" y="1023.4263565891473"/>
      <point x="437.88759689922483" y="1143.2170542635658" type="curve" smooth="yes"/>
      <point x="559.4147286821706" y="1258.0077519379845"/>
      <point x="710.1007751937984" y="1323.1666666666667"/>
      <point x="886.6279069767442" y="1323.1666666666667" type="curve" smooth="yes"/>
      <point x="1057.5232558139535" y="1323.1666666666667"/>
      <point x="1225.4728682170542" y="1250.7441860465117"/>
      <point x="1344.3682170542636" y="1141.2170542635658" type="curve" smooth="yes"/>
      <point x="1471.5271317829458" y="1024.4263565891472"/>
      <point x="1527.7906976744187" y="869.2131782945736"/>
      <point x="1527.7906976744187" y="707.2635658914729" type="curve" smooth="yes"/>
      <point x="1527.7906976744187" y="527.5232558139535"/>
      <point x="1470.2635658914728" y="389.20542635658916"/>
      <point x="1345.1046511627908" y="274.41472868217056" type="curve" smooth="yes"/>
      <point x="1224.2093023255813" y="163.25581395348837"/>
      <point x="1061.4186046511627" y="91.72868217054264"/>
    </contour>
    <contour>
      <point x="616.5232558139535" y="319.5736434108527" type="line"/>
      <point x="706.6705426356589" y="319.5736434108527" type="line"/>
      <point x="706.6705426356589" y="670.6899224806201" type="line"/>
      <point x="880.468992248062" y="670.6899224806201" type="line"/>
      <point x="1056.1046511627908" y="319.5736434108527" type="line"/>
      <point x="1152.9341085271317" y="319.5736434108527" type="line"/>
      <point x="968.2480620155038" y="680.4767441860465" type="line"/>
      <point x="1060.406976744186" y="702.1046511627907"/>
      <point x="1155.4651162790697" y="780.422480620155"/>
      <point x="1155.4651162790697" y="902.5852713178294" type="curve" smooth="yes"/>
      <point x="1155.4651162790697" y="1037.1627906976744"/>
      <point x="1058.4147286821706" y="1119.6899224806202"/>
      <point x="828.6240310077519" y="1119.6899224806202" type="curve" smooth="yes"/>
      <point x="616.5232558139535" y="1119.6899224806202" type="line"/>
    </contour>
    <contour>
      <point x="706.6705426356589" y="744.4728682170543" type="line"/>
      <point x="706.6705426356589" y="1044.0658914728683" type="line"/>
      <point x="867.468992248062" y="1044.0658914728683" type="line" smooth="yes"/>
      <point x="998.0503875968992" y="1043.6976744186047"/>
      <point x="1065.7906976744187" y="1008.3798449612403"/>
      <point x="1065.7906976744187" y="900.4806201550388" type="curve" smooth="yes"/>
      <point x="1065.7906976744187" y="798.422480620155"/>
      <point x="999.0503875968992" y="744.4728682170543"/>
      <point x="870.8372093023256" y="744.4728682170543" type="curve" smooth="yes"/>
    </contour>
  </outline>
</glyph>
<glyph name="degree" format="2">
  <advance width="779.8798449612403"/>
  <unicode hex="00B0"/>
  <note>
degree
</note>
  <outline>
    <contour>
      <point x="387.6240310077519" y="945.437984496124" type="curve" smooth="yes"/>
      <point x="525.9883720930233" y="945.437984496124"/>
      <point x="636.6162790697674" y="1055.6976744186047"/>
      <point x="636.6162790697674" y="1191.7984496124031" type="curve" smooth="yes"/>
      <point x="636.6162790697674" y="1327.531007751938"/>
      <point x="525.9883720930233" y="1437.7906976744187"/>
      <point x="390.25581395348837" y="1437.7906976744187" type="curve" smooth="yes"/>
      <point x="252.52325581395348" y="1437.7906976744187"/>
      <point x="143.8953488372093" y="1329.1627906976744"/>
      <point x="143.8953488372093" y="1191.7984496124031" type="curve" smooth="yes"/>
      <point x="143.8953488372093" y="1054.0658914728683"/>
      <point x="251.89147286821705" y="945.437984496124"/>
    </contour>
    <contour>
      <point x="390.25581395348837" y="1024.2751937984497" type="curve" smooth="yes"/>
      <point x="297.31007751937983" y="1024.2751937984497"/>
      <point x="223.10077519379846" y="1098.8527131782946"/>
      <point x="223.10077519379846" y="1191.7984496124031" type="curve" smooth="yes"/>
      <point x="223.10077519379846" y="1283.7441860465117"/>
      <point x="297.31007751937983" y="1357.953488372093"/>
      <point x="390.25581395348837" y="1357.953488372093" type="curve" smooth="yes"/>
      <point x="483.2015503875969" y="1357.953488372093"/>
      <point x="556.7790697674419" y="1283.7441860465117"/>
      <point x="556.7790697674419" y="1191.7984496124031" type="curve" smooth="yes"/>
      <point x="556.7790697674419" y="1098.8527131782946"/>
      <point x="483.2015503875969" y="1024.2751937984497"/>
    </contour>
  </outline>
</glyph>
<glyph name="plusminus" format="2">
  <advance width="1097.937984496124"/>
  <unicode hex="00B1"/>
  <note>
plusminus
</note>
  <outline>
    <contour>
      <point x="430.31007751937983" y="346.6356589147287" type="line"/>
      <point x="535.8217054263566" y="346.6356589147287" type="line"/>
      <point x="535.8217054263566" y="607.2751937984497" type="line"/>
      <point x="819.6589147286821" y="607.2751937984497" type="line"/>
      <point x="819.6589147286821" y="729.3565891472869" type="line"/>
      <point x="535.8217054263566" y="729.3565891472869" type="line"/>
      <point x="535.8217054263566" y="990.6279069767442" type="line"/>
      <point x="430.31007751937983" y="990.6279069767442" type="line"/>
      <point x="430.31007751937983" y="729.3565891472869" type="line"/>
      <point x="145.84108527131784" y="729.3565891472869" type="line"/>
      <point x="145.84108527131784" y="607.2751937984497" type="line"/>
      <point x="430.31007751937983" y="607.2751937984497" type="line"/>
    </contour>
    <contour>
      <point x="145.84108527131784" y="189.2325581395349" type="line"/>
      <point x="819.2906976744187" y="189.2325581395349" type="line"/>
      <point x="819.2906976744187" y="310.94573643410854" type="line"/>
      <point x="145.84108527131784" y="310.94573643410854" type="line"/>
    </contour>
  </outline>
</glyph>
<glyph name="paragraph" format="2">
  <advance width="1147.5503875968993"/>
  <unicode hex="00B6"/>
  <note>
paragraph
</note>
  <outline>
    <contour>
      <point x="516.2635658914729" y="0.0" type="line"/>
      <point x="614.6666666666666" y="0.0" type="line"/>
      <point x="614.6666666666666" y="1336.5387596899225" type="line"/>
      <point x="786.8837209302326" y="1336.5387596899225" type="line"/>
      <point x="786.8837209302326" y="0.0" type="line"/>
      <point x="884.9186046511628" y="0.0" type="line"/>
      <point x="884.9186046511628" y="1336.5387596899225" type="line"/>
      <point x="1010.9186046511628" y="1336.5387596899225" type="line"/>
      <point x="1010.9186046511628" y="1444.1046511627908" type="line"/>
      <point x="548.2558139534883" y="1444.1046511627908" type="line" smooth="yes"/>
      <point x="302.62790697674416" y="1444.1046511627908"/>
      <point x="139.26356589147287" y="1295.6356589147288"/>
      <point x="139.26356589147287" y="1074.9031007751937" type="curve" smooth="yes"/>
      <point x="139.26356589147287" y="863.7480620155038"/>
      <point x="288.94573643410854" y="716.437984496124"/>
      <point x="516.2635658914729" y="706.437984496124" type="curve"/>
    </contour>
  </outline>
</glyph>
<glyph name="ordmasculine" format="2">
  <advance width="783.546511627907"/>
  <unicode hex="00BA"/>
  <note>
ordmasculine
</note>
  <outline>
    <contour>
      <point x="392.0891472868217" y="840.1162790697674" type="curve" smooth="yes"/>
      <point x="549.5542635658915" y="840.1162790697674"/>
      <point x="681.077519379845" y="951.3759689922481"/>
      <point x="681.077519379845" y="1139.2674418604652" type="curve" smooth="yes"/>
      <point x="681.077519379845" y="1327.7906976744187"/>
      <point x="550.5542635658915" y="1442.0503875968993"/>
      <point x="392.0891472868217" y="1442.0503875968993" type="curve" smooth="yes"/>
      <point x="233.25581395348837" y="1442.0503875968993"/>
      <point x="105.73255813953489" y="1328.7906976744187"/>
      <point x="105.73255813953489" y="1139.2674418604652" type="curve" smooth="yes"/>
      <point x="105.73255813953489" y="950.3759689922481"/>
      <point x="234.25581395348837" y="840.1162790697674"/>
    </contour>
    <contour>
      <point x="392.72093023255815" y="906.2093023255813" type="curve" smooth="yes"/>
      <point x="280.6666666666667" y="906.2093023255813"/>
      <point x="187.82170542635657" y="989.3682170542636"/>
      <point x="187.82170542635657" y="1139.2674418604652" type="curve" smooth="yes"/>
      <point x="187.82170542635657" y="1289.1666666666667"/>
      <point x="281.6666666666667" y="1375.3255813953488"/>
      <point x="392.72093023255815" y="1375.3255813953488" type="curve" smooth="yes"/>
      <point x="503.7751937984496" y="1375.3255813953488"/>
      <point x="598.6201550387597" y="1289.1666666666667"/>
      <point x="598.6201550387597" y="1139.2674418604652" type="curve" smooth="yes"/>
      <point x="598.6201550387597" y="989.3682170542636"/>
      <point x="504.40697674418607" y="906.2093023255813"/>
    </contour>
    <contour>
      <point x="96.41472868217055" y="692.8062015503876" type="line"/>
      <point x="685.7635658914728" y="692.8062015503876" type="line"/>
      <point x="685.7635658914728" y="750.4302325581396" type="line"/>
      <point x="96.41472868217055" y="750.4302325581396" type="line"/>
    </contour>
  </outline>
</glyph>
<glyph name="AE" format="2">
  <advance width="1910.9612403100775"/>
  <unicode hex="00C6"/>
  <note>
AE
</note>
  <anchor x="965.5542635658915" y="-8.953488372093023" name="bottom"/>
  <anchor x="965.5542635658915" y="1430.0" name="top"/>
  <outline>
    <contour>
      <point x="103.8953488372093" y="0.0" type="line"/>
      <point x="218.9341085271318" y="0.0" type="line"/>
      <point x="1138.9263565891472" y="1431.1046511627908" type="line"/>
      <point x="1024.2558139534883" y="1431.1046511627908" type="line"/>
    </contour>
    <contour>
      <point x="476.30232558139534" y="437.7403100775194" type="line"/>
      <point x="1164.5" y="437.7403100775194" type="line"/>
      <point x="1164.5" y="534.1511627906976" type="line"/>
      <point x="476.30232558139534" y="534.1511627906976" type="line"/>
    </contour>
    <contour>
      <point x="1072.1007751937984" y="0.0" type="line"/>
      <point x="1797.2248062015503" y="0.0" type="line"/>
      <point x="1797.2248062015503" y="96.04263565891473" type="line"/>
      <point x="1115.9418604651162" y="96.04263565891473" type="line"/>
      <point x="1203.968992248062" y="12.0" type="line"/>
      <point x="1203.968992248062" y="769.8372093023256" type="line"/>
      <point x="1147.2480620155038" y="680.1627906976744" type="line"/>
      <point x="1797.2248062015503" y="680.1627906976744" type="line"/>
      <point x="1797.2248062015503" y="776.2054263565891" type="line"/>
      <point x="1118.7713178294573" y="776.2054263565891" type="line"/>
      <point x="1203.968992248062" y="691.4263565891473" type="line"/>
      <point x="1203.968992248062" y="1423.0" type="line"/>
      <point x="1032.7751937984497" y="1335.062015503876" type="line"/>
      <point x="1797.2248062015503" y="1335.062015503876" type="line"/>
      <point x="1797.2248062015503" y="1431.1046511627908" type="line"/>
      <point x="1072.1007751937984" y="1431.1046511627908" type="line"/>
    </contour>
  </outline>
</glyph>
<glyph name="Thorn" format="2">
  <advance width="1089.9186046511627"/>
  <unicode hex="00DE"/>
  <note>
Thorn
</note>
  <anchor x="545.1434108527131" y="-8.953488372093023" name="bottom"/>
  <anchor x="545.1434108527131" y="1430.0" name="top"/>
  <outline>
    <contour>
      <point x="236.2015503875969" y="316.7403100775194" type="line"/>
      <point x="459.61240310077517" y="316.7403100775194" type="line" smooth="yes"/>
      <point x="624.2945736434109" y="316.7403100775194"/>
      <point x="754.7635658914728" y="350.9496124031008"/>
      <point x="836.6589147286821" y="414.84496124031006" type="curve" smooth="yes"/>
      <point x="935.0232558139535" y="491.36821705426354"/>
      <point x="979.6550387596899" y="595.6860465116279"/>
      <point x="979.6550387596899" y="746.0" type="curve" smooth="yes"/>
      <point x="979.6550387596899" y="881.3139534883721"/>
      <point x="944.0232558139535" y="976.8953488372093"/>
      <point x="863.7635658914728" y="1050.4186046511627" type="curve" smooth="yes"/>
      <point x="781.8682170542636" y="1126.3139534883721"/>
      <point x="642.6627906976744" y="1166.2596899224807"/>
      <point x="460.61240310077517" y="1166.2596899224807" type="curve" smooth="yes"/>
      <point x="235.2015503875969" y="1166.2596899224807" type="line"/>
      <point x="235.2015503875969" y="1073.4263565891472" type="line"/>
      <point x="409.35271317829455" y="1073.4263565891472" type="line" smooth="yes"/>
      <point x="719.7790697674419" y="1073.4263565891472"/>
      <point x="847.9418604651163" y="979.8953488372093"/>
      <point x="847.9418604651163" y="744.0" type="curve" smooth="yes"/>
      <point x="847.9418604651163" y="504.47286821705427"/>
      <point x="719.7790697674419" y="409.5736434108527"/>
      <point x="409.35271317829455" y="409.5736434108527" type="curve" smooth="yes"/>
      <point x="236.2015503875969" y="409.5736434108527" type="line"/>
    </contour>
    <contour>
      <point x="142.26356589147287" y="0.0" type="line"/>
      <point x="271.6589147286822" y="0.0" type="line"/>
      <point x="271.6589147286822" y="1431.1046511627908" type="line"/>
      <point x="142.26356589147287" y="1431.1046511627908" type="line"/>
    </contour>
  </outline>
</glyph>
<glyph name="germandbls" format="2">
  <advance width="1234.0697674418604"/>
  <unicode hex="00DF"/>
  <note>
germandbls
</note>
  <anchor x="617.0348837209302" y="-5.6395348837209305" name="bottom"/>
  <anchor x="617.0348837209302" y="991.577519379845" name="top"/>
  <outline>
    <contour>
      <point x="775.9728682170543" y="-29.1046511627907" type="curve" smooth="yes"/>
      <point x="1039.391472868217" y="-29.1046511627907"/>
      <point x="1153.8062015503876" y="66.94961240310077"/>
      <point x="1153.8062015503876" y="281.0503875968992" type="curve" smooth="yes"/>
      <point x="1153.8062015503876" y="452.6240310077519"/>
      <point x="1028.0697674418604" y="542.8914728682171"/>
      <point x="801.0697674418604" y="586.7325581395348" type="curve" smooth="yes"/>
      <point x="608.6937984496124" y="622.8914728682171"/>
      <point x="596.062015503876" y="659.6821705426356"/>
      <point x="596.062015503876" y="738.4767441860465" type="curve" smooth="yes"/>
      <point x="596.062015503876" y="831.8992248062016"/>
      <point x="668.6434108527131" y="864.9031007751938"/>
      <point x="745.7984496124031" y="910.953488372093" type="curve" smooth="yes"/>
      <point x="829.7480620155038" y="961.4806201550388"/>
      <point x="962.0658914728682" y="1012.953488372093"/>
      <point x="962.0658914728682" y="1201.1124031007753" type="curve" smooth="yes"/>
      <point x="962.0658914728682" y="1403.6317829457364"/>
      <point x="827.9147286821706" y="1541.5736434108528"/>
      <point x="597.3488372093024" y="1541.5736434108528" type="curve" smooth="yes"/>
      <point x="377.98837209302326" y="1541.5736434108528"/>
      <point x="245.31395348837208" y="1389.108527131783"/>
      <point x="245.31395348837208" y="1107.7403100775193" type="curve" smooth="yes"/>
      <point x="245.31395348837208" y="0.0" type="line"/>
      <point x="374.3953488372093" y="0.0" type="line"/>
      <point x="374.3953488372093" y="1088.9612403100775" type="line" smooth="yes"/>
      <point x="374.3953488372093" y="1319.0697674418604"/>
      <point x="448.35271317829455" y="1441.0581395348838"/>
      <point x="606.0852713178294" y="1441.0581395348838" type="curve" smooth="yes"/>
      <point x="781.4573643410853" y="1441.0581395348838"/>
      <point x="845.6627906976744" y="1318.0503875968993"/>
      <point x="845.6627906976744" y="1187.6899224806202" type="curve" smooth="yes"/>
      <point x="845.6627906976744" y="1070.6356589147288"/>
      <point x="770.5542635658915" y="1041.4806201550387"/>
      <point x="686.3953488372093" y="989.953488372093" type="curve" smooth="yes"/>
      <point x="602.8139534883721" y="938.8992248062016"/>
      <point x="490.5503875968992" y="875.5813953488372"/>
      <point x="490.5503875968992" y="737.6395348837209" type="curve" smooth="yes"/>
      <point x="490.5503875968992" y="578.1085271317829"/>
      <point x="545.077519379845" y="523.7945736434109"/>
      <point x="773.3953488372093" y="480.68992248062017" type="curve" smooth="yes"/>
      <point x="946.7751937984497" y="449.00387596899225"/>
      <point x="1034.6666666666667" y="384.2596899224806"/>
      <point x="1034.6666666666667" y="263.5232558139535" type="curve" smooth="yes"/>
      <point x="1034.6666666666667" y="138.51937984496124"/>
      <point x="942.5581395348837" y="78.62015503875969"/>
      <point x="775.4457364341085" y="78.62015503875969" type="curve" smooth="yes"/>
      <point x="644.5968992248062" y="78.62015503875969"/>
      <point x="573.8062015503876" y="115.72868217054264"/>
      <point x="501.12790697674416" y="154.30620155038758" type="curve"/>
      <point x="498.5503875968992" y="30.472868217054263" type="line"/>
      <point x="582.6007751937984" y="-11.104651162790697"/>
      <point x="674.8100775193799" y="-29.1046511627907"/>
    </contour>
    <contour>
      <point x="77.0" y="895.5348837209302" type="line"/>
      <point x="302.1395348837209" y="895.5348837209302" type="line"/>
      <point x="302.1395348837209" y="994.4186046511628" type="line"/>
      <point x="77.0" y="994.4186046511628" type="line"/>
    </contour>
  </outline>
</glyph>
